<svg width="70" height="57" viewBox="0 0 70 57" fill="none" xmlns="http://www.w3.org/2000/svg">
<path d="M41.4149 37.2926C49.8321 33.7446 53.7802 24.0427 50.2333 15.6228C46.6864 7.20292 36.9876 3.2535 28.5704 6.80154C20.1532 10.3496 16.2051 20.0515 19.752 28.4714C23.2989 36.8913 32.9977 40.8407 41.4149 37.2926Z" fill="#FFC727"/>
<path d="M25.6273 25.0119C26.6038 25.8649 27.4909 26.7935 28.378 27.7084C29.2651 28.6233 30.1109 29.5864 30.943 30.5563H29.4783C31.6513 27.2682 33.9963 24.1039 36.4582 21.0359C37.6822 19.495 38.9751 18.0023 40.2816 16.5233C41.5882 15.0443 42.9636 13.6204 44.4077 12.2652C43.5068 14.0469 42.4959 15.746 41.4507 17.4244C40.4054 19.1029 39.3051 20.7332 38.1636 22.336C35.8805 25.5485 33.4874 28.6715 30.9155 31.6638L30.0903 32.6269L29.4577 31.6569C28.77 30.5976 28.0823 29.5107 27.429 28.4101C26.7757 27.3095 26.1431 26.1882 25.6273 25.0119Z" fill="white"/>
<path d="M69.9885 54.9965C70.0218 55.2366 69.983 55.4812 69.8772 55.6992C69.7714 55.9173 69.6033 56.099 69.3941 56.2214C69.1849 56.3438 68.9442 56.4013 68.7023 56.3867C68.4604 56.3721 68.2283 56.286 68.0354 56.1394C67.8425 55.9927 67.6974 55.792 67.6186 55.5628C67.5398 55.3336 67.5307 55.0862 67.5926 54.8518C67.6545 54.6175 67.7845 54.4068 67.9662 54.2464C68.1479 54.086 68.373 53.9832 68.6132 53.9509C68.7722 53.9287 68.9341 53.9381 69.0894 53.9787C69.2448 54.0192 69.3906 54.0902 69.5184 54.1874C69.6463 54.2846 69.7536 54.4061 69.8343 54.545C69.915 54.6838 69.9674 54.8373 69.9885 54.9965Z" fill="#FFC727"/>
<path d="M47.2887 38.5003C47.3059 38.5828 47.3058 38.668 47.2886 38.7505C47.2713 38.833 47.2372 38.911 47.1884 38.9797C47.1396 39.0484 47.0772 39.1063 47.005 39.1497C46.9328 39.1931 46.8524 39.2212 46.7688 39.2321C46.6853 39.243 46.6004 39.2366 46.5195 39.2132C46.4386 39.1897 46.3633 39.1499 46.2985 39.096C46.2337 39.0422 46.1807 38.9755 46.1428 38.9002C46.105 38.825 46.083 38.7427 46.0784 38.6585C46.07 38.5044 46.1201 38.3527 46.2187 38.2339C46.3173 38.1151 46.4572 38.038 46.6102 38.018C46.7633 37.998 46.9183 38.0366 47.0441 38.126C47.1699 38.2155 47.2573 38.3491 47.2887 38.5003V38.5003Z" fill="white"/>
<path d="M32.7376 0.529126C32.7526 0.647424 32.7323 0.767528 32.6794 0.874353C32.6264 0.981178 32.5431 1.06998 32.4398 1.1296C32.3366 1.18923 32.218 1.21701 32.0991 1.20948C31.9801 1.20196 31.866 1.15946 31.7711 1.0873C31.6762 1.01515 31.6047 0.91655 31.5656 0.803901C31.5265 0.691252 31.5215 0.569562 31.5513 0.454097C31.5811 0.338633 31.6443 0.234546 31.733 0.154887C31.8217 0.075227 31.932 0.0235511 32.0499 0.00634139C32.1295 -0.00526806 32.2106 -0.00090931 32.2885 0.019189C32.3663 0.0392873 32.4394 0.074723 32.5034 0.123397C32.5675 0.172072 32.6211 0.23301 32.6613 0.302676C32.7015 0.372342 32.7275 0.449323 32.7376 0.529126Z" fill="white"/>
<path d="M67.6705 26.4827C67.6872 26.6028 67.6678 26.7251 67.6149 26.8341C67.562 26.9431 67.4779 27.034 67.3733 27.0952C67.2687 27.1564 67.1483 27.1851 67.0274 27.1778C66.9065 27.1705 66.7904 27.1275 66.694 27.0541C66.5975 26.9808 66.525 26.8805 66.4856 26.7659C66.4461 26.6513 66.4416 26.5276 66.4726 26.4104C66.5035 26.2932 66.5685 26.1878 66.6593 26.1077C66.7502 26.0275 66.8628 25.9761 66.9829 25.9599C67.1433 25.9384 67.3057 25.9813 67.4346 26.0793C67.5635 26.1773 67.6483 26.3223 67.6705 26.4827V26.4827Z" fill="white"/>
<path d="M5.08603 54.4943C5.09447 54.6485 5.04436 54.8001 4.94574 54.9189C4.84713 55.0377 4.70728 55.1148 4.55423 55.1348C4.40117 55.1548 4.24621 55.1163 4.12039 55.0268C3.99456 54.9374 3.90718 54.8037 3.87573 54.6525C3.85602 54.4923 3.89963 54.3308 3.99725 54.2023C4.09487 54.0738 4.2388 53.9885 4.39836 53.9646C4.47831 53.954 4.55958 53.9593 4.63748 53.9802C4.71538 54.0011 4.78838 54.0372 4.85229 54.0864C4.91619 54.1356 4.96974 54.197 5.00986 54.267C5.04997 54.337 5.07586 54.4142 5.08603 54.4943V54.4943Z" fill="#FFC727"/>
<path d="M2.42466 29.8132C2.45492 30.0515 2.41406 30.2934 2.30721 30.5085C2.20035 30.7236 2.03229 30.9022 1.82416 31.022C1.61603 31.1418 1.37714 31.1973 1.13754 31.1816C0.897939 31.1659 0.668335 31.0796 0.477625 30.9337C0.286915 30.7878 0.143618 30.5886 0.0657616 30.3614C-0.0120945 30.1342 -0.0210308 29.889 0.0400798 29.6568C0.10119 29.4245 0.229619 29.2155 0.4092 29.056C0.58878 28.8966 0.811493 28.7938 1.04931 28.7607C1.20884 28.7385 1.3712 28.7482 1.52696 28.7892C1.68273 28.8302 1.82881 28.9017 1.95674 28.9996C2.08467 29.0975 2.1919 29.2198 2.27222 29.3595C2.35254 29.4991 2.40436 29.6533 2.42466 29.8132Z" fill="#FFC727"/>
<path d="M15.223 9.14106L16.8115 10.0353C16.7438 9.55338 16.807 9.06209 16.9946 8.61303C17.1821 8.16397 17.4871 7.77371 17.8774 7.48324C19.2528 6.21751 20.917 6.91229 21.7147 5.24758L20.0436 4.16759C19.8573 4.62691 19.5778 5.04258 19.2227 5.38832C18.8676 5.73406 18.4446 6.00235 17.9806 6.17624C16.7978 6.52707 15.5325 7.02923 15.223 9.14106Z" fill="#FFC727"/>
<path d="M25.2075 42.2913L25.4551 40.4821C25.0345 40.7219 24.5572 40.8439 24.0732 40.8354C23.5891 40.827 23.1163 40.6883 22.7044 40.4339C21.0127 39.5878 21.0609 37.8131 19.211 37.6824L18.8259 39.6429C19.3247 39.6479 19.8169 39.7576 20.2706 39.965C20.7243 40.1723 21.1294 40.4727 21.4597 40.8467C22.1887 41.7822 23.1514 42.8003 25.2075 42.2913Z" fill="#FFC727"/>
<path d="M10.3455 19.5835L8.24121 20.1819C8.24121 20.1819 8.76384 22.9335 10.93 22.4864C10.93 22.4864 9.59593 21.6678 10.3455 19.5835Z" fill="white"/>
<path d="M12.9664 24.4956L13.8879 22.5488C13.8879 22.5488 12.7601 21.2212 10.9309 22.4869C10.9309 22.4869 13.0146 22.652 12.9664 24.4956Z" fill="white"/>
<path d="M53.8224 19.4119C53.7906 19.1719 53.8305 18.9278 53.9373 18.7105C54.0441 18.4932 54.2129 18.3124 54.4224 18.1911C54.6319 18.0698 54.8726 18.0133 55.1142 18.0288C55.3558 18.0443 55.5873 18.1311 55.7796 18.2782C55.9718 18.4253 56.1162 18.6262 56.1943 18.8553C56.2725 19.0845 56.281 19.3317 56.2187 19.5657C56.1564 19.7997 56.0262 20.01 55.8445 20.1699C55.6628 20.3299 55.4377 20.4324 55.1978 20.4644C55.0384 20.4857 54.8763 20.4753 54.7209 20.4339C54.5655 20.3926 54.4198 20.321 54.2921 20.2232C54.1644 20.1255 54.0571 20.0035 53.9766 19.8643C53.896 19.7251 53.8436 19.5714 53.8224 19.4119V19.4119Z" fill="#FFC727"/>
<path d="M60.1958 33.9886L59.9482 35.7978C60.3686 35.5573 60.846 35.4348 61.3302 35.4433C61.8144 35.4518 62.2873 35.5909 62.6989 35.8459C64.3975 36.6921 64.3494 38.4668 66.1923 38.5975L66.5843 36.637C66.0855 36.632 65.5933 36.5223 65.1396 36.3149C64.6859 36.1075 64.2808 35.8071 63.9505 35.4332C63.2009 34.4977 62.2519 33.514 60.1958 33.9886Z" fill="white"/>
<path d="M57.734 9.8298L59.6595 10.8754C59.6595 10.8754 61.2136 8.52967 59.3432 7.3465C59.3225 7.3465 59.7283 8.86675 57.734 9.8298Z" fill="#FFC727"/>
<path d="M59.3221 4.48474L57.259 5.24143C57.259 5.24143 57.1421 6.96804 59.3221 7.34638C59.3221 7.34638 57.9467 5.7711 59.3221 4.48474Z" fill="#FFC727"/>
</svg>
