<svg width="343" height="417" viewBox="0 0 343 417" fill="none" xmlns="http://www.w3.org/2000/svg">
<mask id="mask0_703_14551" style="mask-type:alpha" maskUnits="userSpaceOnUse" x="0" y="0" width="343" height="417">
<rect width="342.246" height="417" rx="21" fill="black"/>
</mask>
<g mask="url(#mask0_703_14551)">
<path d="M174.269 156.429H100.993C100.993 156.429 104.628 151.684 108.648 151.057C108.648 151.057 116.463 127.781 129.543 127.638C141.7 127.486 146.552 141.962 146.552 141.962C146.552 141.962 152.183 135.471 157.564 138.435C162.944 141.398 165.997 149.894 165.997 149.894C165.997 149.894 172.076 153.179 174.269 156.429Z" fill="#EBEBEB"/>
<path d="M218.234 49.6909H168.459C168.459 49.6909 170.939 46.468 173.66 46.0651C173.66 46.0651 178.969 30.273 187.85 30.1566C196.113 30.0492 199.425 39.87 199.425 39.87C199.425 39.87 203.248 35.4654 206.91 37.4797C210.571 39.494 212.657 45.2594 212.657 45.2594C212.657 45.2594 216.739 47.4796 218.234 49.6909Z" fill="#EBEBEB"/>
<path d="M258.718 100.192H351.421C351.421 100.192 351.421 94.2743 338.654 93.1104C338.654 93.1104 327.016 67.2379 309.201 70.7293C298.118 72.8958 292.46 88.115 292.46 88.115C292.46 88.115 284.08 76.1366 277.384 78.4553C270.687 80.774 266.704 93.5223 266.704 93.5223C266.704 93.5223 259.765 96.8436 258.718 100.192Z" fill="#EBEBEB"/>
<path d="M7.24268 108.777H70.2589C70.2589 108.777 64.3145 103.244 61.6735 103.244C59.0325 103.244 51.3155 84.6589 41.4589 85.4467C31.6023 86.2345 26.374 100.075 26.374 100.075C26.374 100.075 14.3867 96.3239 7.24268 108.777Z" fill="#EBEBEB"/>
<path d="M264.797 183.342H318.682C318.682 183.342 315.996 179.86 313.051 179.421C313.051 179.421 307.303 162.322 297.689 162.197C288.736 162.08 285.155 172.716 285.155 172.716C285.155 172.716 281.019 167.944 277.098 170.129C273.177 172.313 270.894 178.553 270.894 178.553C270.894 178.553 266.373 180.934 264.797 183.342Z" fill="#EBEBEB"/>
<path d="M-43.3108 261.3C-43.3108 261.3 -13.6693 241.452 -3.02481 240.924C7.61964 240.396 14.5309 243.538 21.9704 243.019C29.4099 242.5 65.4703 205.15 80.8864 204.944C96.3025 204.738 122.068 213.825 128.334 211.909C134.601 209.993 177.179 182.912 194.484 182.912C224.752 182.912 251.144 235.427 264.179 233.735C277.213 232.043 287.84 231.524 297.911 235.445C307.983 239.366 354.052 261.3 354.052 261.3H-43.3108Z" fill="#EBEBEB"/>
<path opacity="0.6" d="M79.9348 72.8904C92.9863 67.5376 99.2273 52.6179 93.8745 39.5664C88.5217 26.5149 73.6021 20.2739 60.5506 25.6267C47.499 30.9795 41.258 45.8992 46.6108 58.9507C51.9636 72.0022 66.8833 78.2432 79.9348 72.8904Z" fill="#FFC727"/>
<path d="M88.2939 56.8C92.4559 46.8308 87.7483 35.3752 77.7791 31.2132C67.8099 27.0512 56.3543 31.7588 52.1923 41.728C48.0302 51.6972 52.7379 63.1528 62.7071 67.3148C72.6762 71.4769 84.1319 66.7692 88.2939 56.8Z" fill="#FFC727"/>
<path d="M-56.4524 261.298L-3.49871 261.074L49.455 261.003L155.362 260.85L261.27 261.003L314.223 261.074L367.177 261.298L314.223 261.513L261.27 261.593L155.362 261.746L49.455 261.593L-3.49871 261.513L-56.4524 261.298Z" fill="#263238"/>
<path d="M270.714 255.533C270.293 255.954 265.423 256.142 263.651 256.142C261.878 256.142 257.008 255.954 256.587 255.533C256.166 255.112 262.066 222.722 263.651 222.722C265.235 222.722 271.135 255.121 270.714 255.533Z" fill="#455A64"/>
<path d="M270.848 247.279C269.639 247.744 265.181 249.553 264.223 250.09C264.223 249.884 264.223 249.678 264.223 249.481C265.298 248.845 266.381 248.219 267.464 247.592C268.547 246.965 269.863 246.312 270.947 245.524C270.991 245.524 270.947 245.372 270.893 245.408C269.717 245.955 268.58 246.583 267.491 247.288C266.39 247.932 265.306 248.595 264.223 249.257C264.223 247.708 264.223 246.151 264.223 244.602C265.982 243.871 267.682 243.006 269.308 242.015C269.362 242.015 269.308 241.88 269.308 241.907C267.567 242.606 265.882 243.438 264.268 244.396C264.268 243.59 264.268 242.776 264.268 241.97C264.223 237.816 264.214 233.653 264.107 229.499C265.163 228.962 266.255 228.496 267.312 227.959C267.383 227.959 267.312 227.798 267.258 227.825C266.184 228.246 265.154 228.72 264.098 229.204C264.044 227.064 263.964 224.916 263.829 222.776C263.829 222.762 263.824 222.748 263.814 222.738C263.804 222.728 263.79 222.722 263.776 222.722C263.761 222.722 263.748 222.728 263.738 222.738C263.728 222.748 263.722 222.762 263.722 222.776C263.57 226.76 263.588 230.744 263.632 234.727C262.54 233.832 261.367 233.08 260.257 232.23C260.257 232.23 260.168 232.274 260.257 232.301C261.421 233.197 262.513 234.172 263.686 235.059C263.686 235.282 263.686 235.506 263.686 235.739C262.495 235.193 261.287 234.683 260.105 234.172C260.016 234.172 259.926 234.271 260.025 234.316C261.251 234.897 262.469 235.497 263.704 236.052C263.704 238.022 263.767 240 263.794 241.97C263.838 245.417 263.91 248.863 263.99 252.31C261.743 251.173 259.514 250.072 257.213 248.998C257.124 248.998 257.043 249.078 257.133 249.132C259.356 250.402 261.645 251.552 263.99 252.579C264.053 255.443 264.116 258.299 264.152 261.164C264.152 261.2 264.166 261.234 264.191 261.259C264.216 261.284 264.25 261.298 264.286 261.298C264.322 261.298 264.356 261.284 264.381 261.259C264.406 261.234 264.42 261.2 264.42 261.164C264.375 257.511 264.375 253.859 264.366 250.206C266.651 249.422 268.89 248.511 271.072 247.476C271 247.422 270.929 247.234 270.848 247.279Z" fill="#37474F"/>
<path d="M339.165 255.103C338.708 255.551 333.471 255.748 331.564 255.748C329.657 255.748 324.402 255.551 323.964 255.103C323.525 254.656 329.863 219.813 331.564 219.813C333.265 219.813 339.612 254.656 339.165 255.103Z" fill="#37474F"/>
<path d="M339.264 246.222C337.975 246.715 333.177 248.675 332.102 249.239V248.586L335.576 246.554C336.865 245.88 338.117 245.139 339.327 244.333C339.381 244.289 339.327 244.172 339.273 244.208C338.008 244.798 336.784 245.474 335.612 246.231C334.43 246.921 333.266 247.637 332.102 248.353C332.102 246.679 332.102 245.014 332.102 243.34C333.996 242.561 335.825 241.633 337.572 240.564C337.635 240.564 337.572 240.421 337.528 240.448C335.654 241.205 333.841 242.103 332.102 243.134C332.102 242.239 332.102 241.397 332.102 240.529C332.058 236.052 332.049 231.576 331.932 227.1C333.069 226.527 334.242 226.017 335.379 225.444C335.451 225.444 335.379 225.274 335.325 225.31C334.17 225.757 333.06 226.294 331.923 226.787C331.861 224.486 331.771 222.176 331.637 219.875C331.637 219.859 331.63 219.843 331.619 219.831C331.607 219.819 331.591 219.813 331.574 219.813C331.558 219.813 331.542 219.819 331.53 219.831C331.518 219.843 331.512 219.859 331.512 219.875C331.359 224.155 331.368 228.443 331.422 232.731C330.24 231.782 328.987 230.941 327.787 230.045C327.787 230.045 327.698 230.045 327.787 230.117C329.041 231.075 330.213 232.131 331.476 233.08C331.476 233.322 331.476 233.564 331.476 233.805C330.196 233.224 328.897 232.677 327.608 232.131C327.51 232.087 327.42 232.23 327.519 232.275C328.835 232.91 330.142 233.555 331.476 234.146C331.512 236.27 331.544 238.392 331.574 240.511C331.619 244.217 331.7 247.923 331.78 251.63C329.393 250.436 326.964 249.242 324.493 248.049C324.394 248.004 324.314 248.138 324.412 248.183C326.801 249.553 329.264 250.791 331.789 251.889C331.852 254.969 331.914 258.049 331.95 261.128C331.958 261.161 331.977 261.191 332.004 261.211C332.031 261.232 332.064 261.244 332.098 261.244C332.132 261.244 332.165 261.232 332.192 261.211C332.218 261.191 332.237 261.161 332.246 261.128C332.246 257.198 332.192 253.277 332.183 249.347C334.64 248.5 337.048 247.519 339.399 246.41C339.479 246.384 339.39 246.178 339.264 246.222Z" fill="#455A64"/>
<path d="M286.74 255.103C286.292 255.551 281.055 255.748 279.148 255.748C277.242 255.748 271.986 255.551 271.548 255.103C271.109 254.656 277.447 219.813 279.148 219.813C280.849 219.813 287.197 254.656 286.74 255.103Z" fill="#37474F"/>
<path d="M286.847 246.222C285.558 246.715 280.759 248.675 279.685 249.239V248.586L283.158 246.554C284.446 245.878 285.698 245.137 286.909 244.333C286.963 244.289 286.909 244.172 286.856 244.208C285.588 244.8 284.362 245.475 283.185 246.231C282.012 246.921 280.84 247.637 279.685 248.353V243.34C281.579 242.561 283.408 241.633 285.155 240.564C285.17 240.557 285.182 240.544 285.188 240.528C285.194 240.513 285.193 240.495 285.186 240.479C285.183 240.472 285.177 240.465 285.171 240.459C285.165 240.454 285.158 240.449 285.15 240.446C285.134 240.44 285.116 240.441 285.101 240.448C283.231 241.207 281.421 242.105 279.685 243.134C279.685 242.239 279.685 241.397 279.685 240.529C279.64 236.052 279.631 231.576 279.515 227.1C280.652 226.527 281.824 226.017 282.961 225.444C283.033 225.444 282.961 225.274 282.899 225.31C281.753 225.757 280.634 226.294 279.506 226.787C279.443 224.486 279.354 222.176 279.219 219.875C279.219 219.859 279.213 219.843 279.201 219.831C279.189 219.819 279.173 219.813 279.157 219.813C279.14 219.813 279.124 219.819 279.112 219.831C279.1 219.843 279.094 219.859 279.094 219.875C278.933 224.155 278.951 228.443 279.004 232.731C277.823 231.782 276.569 230.941 275.37 230.045C275.325 230.045 275.28 230.045 275.325 230.117C276.578 231.075 277.751 232.131 279.004 233.08C279.004 233.322 279.004 233.564 279.004 233.805C277.733 233.224 276.435 232.677 275.146 232.131C275.038 232.087 274.949 232.23 275.056 232.275C276.372 232.91 277.679 233.555 279.013 234.146C279.013 236.27 279.046 238.392 279.112 240.511C279.112 244.217 279.237 247.923 279.318 251.63C276.901 250.436 274.471 249.242 272.03 248.049C271.932 248.004 271.851 248.138 271.95 248.183C274.336 249.552 276.796 250.789 279.318 251.889C279.389 254.969 279.452 258.049 279.488 261.128C279.496 261.161 279.515 261.191 279.542 261.211C279.569 261.232 279.602 261.244 279.636 261.244C279.669 261.244 279.703 261.232 279.729 261.211C279.756 261.191 279.775 261.161 279.783 261.128C279.738 257.198 279.73 253.277 279.721 249.347C282.177 248.5 284.586 247.519 286.936 246.41C287.053 246.384 286.963 246.178 286.847 246.222Z" fill="#455A64"/>
<path d="M189.489 255.103C189.041 255.551 183.795 255.748 181.897 255.748C179.999 255.748 174.735 255.551 174.297 255.103C173.858 254.656 180.196 219.813 181.897 219.813C183.598 219.813 189.937 254.656 189.489 255.103Z" fill="#37474F"/>
<path d="M189.595 246.223C188.297 246.715 183.498 248.676 182.433 249.24C182.433 249.025 182.433 248.801 182.433 248.586L185.915 246.554C187.2 245.878 188.449 245.137 189.658 244.334C189.72 244.289 189.658 244.173 189.604 244.208C188.338 244.798 187.115 245.474 185.942 246.232C184.761 246.921 183.597 247.637 182.433 248.353C182.433 246.679 182.433 245.014 182.433 243.34C184.326 242.559 186.155 241.631 187.903 240.565C187.957 240.565 187.903 240.422 187.849 240.448C185.978 241.204 184.167 242.102 182.433 243.134C182.433 242.239 182.433 241.397 182.433 240.529C182.379 236.053 182.37 231.577 182.263 227.1C183.4 226.527 184.573 226.017 185.701 225.444C185.781 225.444 185.701 225.274 185.647 225.31C184.492 225.757 183.382 226.295 182.254 226.787C182.191 224.486 182.102 222.176 181.958 219.876C181.962 219.866 181.964 219.856 181.963 219.846C181.961 219.836 181.958 219.826 181.952 219.817C181.946 219.809 181.939 219.802 181.93 219.797C181.921 219.792 181.91 219.79 181.9 219.79C181.89 219.79 181.88 219.792 181.871 219.797C181.862 219.802 181.854 219.809 181.848 219.817C181.843 219.826 181.839 219.836 181.838 219.846C181.837 219.856 181.838 219.866 181.842 219.876C181.681 224.155 181.699 228.443 181.753 232.731C180.571 231.782 179.317 230.941 178.118 230.046C178.073 230.046 178.019 230.046 178.073 230.117C179.326 231.075 180.499 232.132 181.753 233.081C181.753 233.322 181.753 233.564 181.753 233.806C180.472 233.224 179.183 232.678 177.885 232.132C177.787 232.087 177.697 232.23 177.805 232.275C179.112 232.91 180.428 233.555 181.761 234.146C181.761 236.268 181.824 238.389 181.851 240.511C181.905 244.217 181.985 247.924 182.057 251.63C179.67 250.436 177.24 249.243 174.77 248.049C174.68 248.004 174.6 248.139 174.689 248.183C177.08 249.55 179.542 250.787 182.066 251.89C182.129 254.969 182.2 258.049 182.236 261.129C182.236 261.317 182.531 261.317 182.522 261.129C182.522 257.198 182.522 253.277 182.469 249.347C184.925 248.498 187.334 247.518 189.684 246.411C189.801 246.384 189.72 246.178 189.595 246.223Z" fill="#455A64"/>
<path d="M316.811 256.966C317.134 257.279 320.795 257.422 322.12 257.422C323.445 257.422 327.116 257.279 327.429 256.966C327.742 256.652 323.311 232.311 322.12 232.311C320.929 232.311 316.507 256.652 316.811 256.966Z" fill="#455A64"/>
<path d="M316.739 250.762C317.635 251.112 321.001 252.472 321.726 252.875V252.419L319.291 250.995C318.391 250.524 317.519 250.004 316.677 249.437C316.677 249.437 316.677 249.33 316.677 249.357C317.563 249.766 318.419 250.239 319.237 250.771C320.061 251.255 320.875 251.747 321.69 252.249C321.69 251.085 321.69 249.921 321.69 248.748C320.365 248.205 319.087 247.555 317.867 246.805C317.823 246.805 317.867 246.707 317.867 246.725C319.175 247.253 320.441 247.878 321.654 248.596C321.654 247.987 321.654 247.378 321.654 246.805C321.654 243.69 321.699 240.539 321.771 237.432C320.983 237.029 320.159 236.68 319.362 236.277C319.318 236.277 319.362 236.161 319.407 236.179C320.213 236.492 320.992 236.868 321.78 237.217C321.824 235.606 321.887 233.994 321.986 232.383H322.066C322.183 235.373 322.165 238.372 322.129 241.335C322.952 240.682 323.83 240.1 324.671 239.464C324.671 239.464 324.734 239.464 324.671 239.518C323.776 240.181 322.979 240.924 322.102 241.586C322.102 241.756 322.102 241.926 322.102 242.096C322.997 241.685 323.892 241.309 324.788 240.924C324.859 240.924 324.922 240.995 324.85 241.022C323.955 241.47 323.015 241.917 322.084 242.329C322.084 243.815 322.039 245.301 322.021 246.805C322.021 249.402 321.923 251.989 321.869 254.576C323.552 253.681 325.253 252.893 326.963 252.096C327.026 252.096 327.088 252.15 327.026 252.186C325.354 253.142 323.633 254.008 321.869 254.782C321.824 256.931 321.78 259.079 321.753 261.237C321.753 261.362 321.547 261.362 321.547 261.237C321.547 258.488 321.547 255.749 321.592 253.001C319.873 252.408 318.188 251.723 316.542 250.95C316.596 250.87 316.65 250.762 316.739 250.762Z" fill="#37474F"/>
<path d="M166.034 256.966C166.348 257.279 170.009 257.422 171.343 257.422C172.677 257.422 176.338 257.279 176.652 256.966C176.965 256.652 172.525 232.311 171.343 232.311C170.161 232.311 165.712 256.652 166.034 256.966Z" fill="#455A64"/>
<path d="M165.953 250.762C166.848 251.112 170.214 252.472 170.939 252.875V252.419C170.134 251.935 169.319 251.47 168.504 250.995C167.605 250.524 166.732 250.004 165.89 249.437C165.89 249.437 165.89 249.33 165.89 249.357C166.776 249.766 167.632 250.239 168.451 250.771C169.274 251.255 170.089 251.747 170.904 252.249C170.904 251.085 170.904 249.921 170.904 248.748C169.579 248.205 168.3 247.555 167.081 246.805C167.081 246.805 167.081 246.707 167.081 246.725C168.388 247.253 169.654 247.878 170.868 248.596C170.868 247.987 170.868 247.378 170.868 246.805C170.868 243.69 170.912 240.539 170.993 237.432C170.196 237.029 169.373 236.68 168.585 236.277C168.531 236.277 168.585 236.161 168.585 236.179C169.391 236.492 170.169 236.868 170.957 237.217C171.002 235.606 171.065 233.994 171.163 232.383H171.244C171.36 235.373 171.351 238.372 171.306 241.335C172.13 240.682 173.007 240.1 173.849 239.464C173.849 239.464 173.912 239.464 173.849 239.518C172.954 240.181 172.148 240.924 171.271 241.586C171.271 241.756 171.271 241.926 171.271 242.096C172.166 241.685 173.061 241.309 173.956 240.924C174.028 240.924 174.091 240.995 174.019 241.022C173.124 241.47 172.184 241.917 171.253 242.329C171.253 243.815 171.208 245.301 171.19 246.805C171.154 249.402 171.103 251.992 171.038 254.576C172.73 253.681 174.422 252.893 176.132 252.096C176.203 252.096 176.257 252.15 176.194 252.186C174.524 253.144 172.802 254.01 171.038 254.782C171.038 256.931 170.948 259.079 170.921 261.237C170.915 261.259 170.901 261.278 170.883 261.292C170.864 261.306 170.842 261.314 170.819 261.314C170.795 261.314 170.773 261.306 170.754 261.292C170.736 261.278 170.722 261.259 170.716 261.237C170.716 258.488 170.716 255.749 170.716 253.001C168.997 252.408 167.312 251.723 165.666 250.95C165.81 250.87 165.872 250.762 165.953 250.762Z" fill="#37474F"/>
<path d="M283.282 256.966C283.595 257.279 287.257 257.422 288.591 257.422C289.925 257.422 293.586 257.279 293.899 256.966C294.213 256.652 289.772 232.311 288.591 232.311C287.409 232.311 282.969 256.652 283.282 256.966Z" fill="#455A64"/>
<path d="M283.212 250.762C284.107 251.111 287.464 252.472 288.189 252.875V252.418C287.384 251.935 286.569 251.469 285.763 250.995C284.86 250.526 283.984 250.006 283.14 249.437C283.14 249.437 283.14 249.33 283.14 249.357C284.026 249.766 284.882 250.239 285.701 250.771C286.524 251.255 287.348 251.747 288.154 252.248C288.154 251.084 288.154 249.921 288.154 248.748C286.829 248.205 285.55 247.555 284.331 246.805C284.331 246.805 284.331 246.707 284.331 246.725C285.638 247.252 286.904 247.878 288.118 248.596C288.118 247.987 288.118 247.378 288.118 246.805C288.118 243.69 288.118 240.538 288.234 237.432C287.437 237.029 286.623 236.68 285.826 236.277C285.772 236.277 285.826 236.161 285.826 236.179C286.632 236.492 287.411 236.868 288.207 237.217C288.207 235.606 288.306 233.994 288.404 232.383C288.404 232.329 288.485 232.329 288.485 232.383C288.601 235.373 288.592 238.372 288.556 241.335C289.38 240.682 290.257 240.1 291.09 239.464C291.09 239.464 291.153 239.464 291.09 239.518C290.195 240.18 289.389 240.923 288.512 241.586V242.096C289.407 241.684 290.302 241.308 291.197 240.923C291.269 240.923 291.332 240.995 291.26 241.022C290.365 241.47 289.425 241.917 288.494 242.329C288.494 243.815 288.449 245.301 288.431 246.805C288.431 249.401 288.342 251.989 288.288 254.576C289.971 253.681 291.672 252.893 293.382 252.096C293.388 252.09 293.395 252.086 293.402 252.083C293.41 252.081 293.418 252.08 293.426 252.081C293.434 252.082 293.442 252.085 293.449 252.089C293.456 252.094 293.461 252.1 293.466 252.107C293.47 252.114 293.472 252.122 293.473 252.13C293.474 252.138 293.473 252.146 293.47 252.153C293.467 252.161 293.462 252.168 293.456 252.173C293.45 252.179 293.443 252.183 293.436 252.186C291.766 253.145 290.044 254.012 288.279 254.782C288.234 256.93 288.189 259.079 288.163 261.237C288.156 261.259 288.142 261.278 288.124 261.292C288.105 261.306 288.083 261.313 288.06 261.313C288.036 261.313 288.014 261.306 287.995 261.292C287.977 261.278 287.963 261.259 287.957 261.237C287.957 258.488 287.957 255.749 288.001 253C286.286 252.406 284.604 251.722 282.961 250.95C283.06 250.87 283.122 250.762 283.212 250.762Z" fill="#37474F"/>
<path d="M236.237 330.438C240.033 340.814 367.9 348.531 367.9 361.261C367.9 371.628 289.387 379.855 279.325 390.339C269.262 400.822 261.42 416.775 261.42 416.775H379.171V255.014C379.171 255.014 309.486 262.614 296.164 274.432C282.843 286.249 320.569 286.535 320.569 295.568C320.569 302.856 295.95 303.017 283.049 306.571C260.507 312.775 233.157 321.996 236.237 330.438Z" fill="#455A64"/>
<path d="M377.588 274.871C375.994 277.252 371.634 281.137 365.95 284.101C360.265 287.064 348.68 296.007 346.004 298.424C343.327 300.842 323.076 306.759 318.654 306.598C314.231 306.437 288.654 305.345 283.023 306.598C295.924 303.017 320.543 302.883 320.543 295.595C320.543 288.693 298.52 286.894 294.071 281.164C294.393 281.245 299.693 282.695 304.697 284.432C309.863 286.222 338.26 289.49 342.127 287.789C345.995 286.088 355.234 280.26 360.292 277.279C365.35 274.298 379.172 272.489 377.588 274.871Z" fill="#37474F"/>
<path d="M122.909 417.277C122.909 417.277 121.772 404.081 88.9884 383.687C56.2046 363.294 39.4993 355.478 40.6452 341.262C42.1671 321.817 128.71 313.411 184.412 305.371C222.013 299.946 246.408 296.813 246.408 287.833C246.408 278.308 204.099 274.02 204.099 267.476C204.099 259.947 302.397 261.298 302.397 261.298C302.397 261.298 202.926 256.321 181.539 256.321C160.151 256.321 119.015 234.647 99.5523 232.301C80.0897 229.956 69.4184 237.109 48.0578 236.437C26.6973 235.766 14.4683 215.677 -13.329 208.506C-41.1264 201.335 -68.4492 229.92 -68.4492 229.92V417.277H122.909Z" fill="#455A64"/>
<path d="M60.8051 366.249C45.3443 359.713 3.24093 353.832 -7.86009 344.861C-18.9611 335.891 -29.4534 317.905 -31.4587 313.948C-33.4641 309.991 -5.8637 301.173 -1.30691 297.001C3.24989 292.83 33.2316 309.374 41.7633 312.319C50.295 315.264 97.537 315.461 102.3 315.264C107.062 315.068 116.454 314.817 116.928 314.799C76.9643 320.985 41.5663 328.89 40.5995 341.262C39.8743 350.564 46.7767 357.117 60.8051 366.249Z" fill="#37474F"/>
<path d="M129.695 295.415C129.139 297.25 106.472 293.831 102.703 290.455C98.9339 287.08 93.7505 282.121 92.9806 280.133C92.2106 278.146 103.5 282.121 106.472 284.099C109.444 286.078 119.175 288.074 122.354 289.659C125.532 291.243 129.999 294.412 129.695 295.415Z" fill="#37474F"/>
<path d="M-68.4492 417.278C-68.4492 417.278 -42.4871 394.315 -30.5535 385.514C-22.8634 379.865 24.7725 379.176 31.1198 377.69C37.4671 376.204 59.1499 362.65 74.0915 354.619C89.0332 346.589 145.12 351.746 155.344 351.593C165.568 351.441 179.086 339.812 195.63 335.828C228.423 327.941 274.411 336.007 283.641 339.642C309.863 349.937 314.599 378.281 348.994 386.589C358.475 388.88 374.428 407.886 379.164 417.278H-68.4492Z" fill="#37474F"/>
<path opacity="0.5" d="M124.922 417.277H-5.86389C-5.86389 417.277 43.285 399.525 52.2016 390.993C61.1183 382.461 50.7961 378.88 54.1712 372.775C57.5462 366.669 77.161 355.076 89.0857 351.038C111.583 348.612 147.384 351.719 155.334 351.602C156.342 351.578 157.345 351.465 158.333 351.262C145.28 357.01 116.525 369.113 119.757 372.614C122.022 375.058 136.355 382.658 154.071 381.736C164 381.226 161.869 391.253 162.433 395.648C163.704 405.326 124.922 417.277 124.922 417.277Z" fill="#263238"/>
<path opacity="0.5" d="M323.667 396.543C321.876 393.857 309.065 395.2 286.962 398.127C264.858 401.055 243.784 398.19 248.377 395.092C251.618 392.908 280.409 392.192 286.962 389.909C293.515 387.626 308.519 386.999 314.473 383.687C320.426 380.375 312.843 365.684 306.594 356.588C317.49 368.226 327.382 381.359 349.002 386.588C358.483 388.879 374.436 407.885 379.172 417.276H202.648C202.648 417.276 251.949 413.069 263.703 412.093C275.458 411.117 325.457 399.219 323.667 396.543Z" fill="#263238"/>
<path d="M147.107 71.1679C146.467 70.8236 145.803 70.5244 145.12 70.2727C144.424 70.0063 143.695 69.8375 142.953 69.7714C142.727 69.7524 142.499 69.7767 142.282 69.843C142.208 69.8701 142.136 69.903 142.067 69.9415L141.942 70.0399C141.861 70.0982 141.783 70.161 141.709 70.2279C141.43 70.4799 141.164 70.7459 140.912 71.0247C140.429 71.5798 140.017 72.1527 139.561 72.7346L140.098 72.5466C139.369 72.3418 138.627 72.1862 137.877 72.0811C137.494 72.031 137.109 72.0041 136.723 72.0005C136.517 71.9834 136.31 71.9834 136.105 72.0005C135.996 72.02 135.888 72.0469 135.783 72.0811C135.667 72.1209 135.557 72.1719 135.451 72.2333C135.109 72.4629 134.806 72.7472 134.556 73.0748C134.322 73.3612 134.104 73.66 133.903 73.9701C133.505 74.5999 133.161 75.2616 132.873 75.9486C133.348 75.3845 133.768 74.8116 134.296 74.2655C134.528 73.9938 134.776 73.7366 135.04 73.4956C135.268 73.2553 135.53 73.0502 135.818 72.8868C136.107 72.7922 136.412 72.7617 136.714 72.7973C137.059 72.8242 137.403 72.8721 137.743 72.9405C138.441 73.0659 139.149 73.236 139.829 73.424L140.178 73.5135L140.375 73.236C140.769 72.663 141.199 72.099 141.637 71.5529C141.844 71.2844 142.065 71.0274 142.3 70.783C142.363 70.7293 142.416 70.6666 142.47 70.6308L142.551 70.5592C142.669 70.5067 142.797 70.4793 142.927 70.4786C143.615 70.4801 144.301 70.5461 144.977 70.6756C145.702 70.8904 146.409 71.0337 147.107 71.1679Z" fill="#263238"/>
<path d="M139.248 92.3041C138.396 91.6443 137.499 91.046 136.562 90.5136C135.612 89.9253 134.589 89.4648 133.518 89.1439C133.19 89.051 132.847 89.0206 132.507 89.0543C132.393 89.0684 132.281 89.0985 132.175 89.1439L131.952 89.2423C131.814 89.3067 131.679 89.3784 131.549 89.4572C131.068 89.7434 130.605 90.0573 130.161 90.3972C129.266 91.0597 128.478 91.7759 127.663 92.51L128.514 92.3936C127.504 91.8776 126.46 91.4319 125.39 91.0597C124.843 90.8675 124.284 90.715 123.715 90.6031C123.42 90.5416 123.121 90.5027 122.82 90.4867C122.65 90.4736 122.48 90.4736 122.31 90.4867C122.131 90.4867 121.952 90.5762 121.773 90.621C121.216 90.8706 120.7 91.2025 120.242 91.6058C119.812 91.9706 119.402 92.3591 119.015 92.7696C118.249 93.5805 117.548 94.4517 116.921 95.3748C117.816 94.6765 118.63 93.9692 119.508 93.3157C119.938 92.9934 120.403 92.6711 120.824 92.4205C121.232 92.138 121.678 91.9149 122.149 91.758C122.585 91.7043 123.029 91.7471 123.447 91.8833C123.95 92.0212 124.443 92.1917 124.924 92.3936C125.909 92.7786 126.903 93.2441 127.851 93.7096L128.326 93.9513L128.702 93.5932C129.454 92.8681 130.251 92.1698 131.039 91.4984C131.441 91.1582 131.844 90.8359 132.247 90.5583L132.543 90.3703L132.686 90.2987C132.686 90.2987 132.686 90.2987 132.739 90.2987C132.932 90.267 133.129 90.267 133.321 90.2987C134.33 90.5001 135.317 90.8 136.267 91.194C137.296 91.4894 138.281 91.9102 139.248 92.3041Z" fill="#263238"/>
<path d="M12.9198 43.3889C12.3472 42.9649 11.7492 42.5763 11.1293 42.2251C10.484 41.84 9.79198 41.5392 9.07025 41.3298C8.84505 41.2918 8.61507 41.2918 8.38987 41.3298C8.31636 41.3436 8.24439 41.3646 8.175 41.3925L8.02281 41.4731L7.76319 41.6163C7.45244 41.8199 7.15354 42.0411 6.86795 42.2788C6.29499 42.7354 5.7668 43.2367 5.24756 43.738L5.81156 43.6395C5.12537 43.3233 4.41967 43.0512 3.69878 42.8249C3.32893 42.7112 2.95216 42.6215 2.57078 42.5563C2.36725 42.5164 2.16046 42.4954 1.95306 42.4936C1.84281 42.4851 1.73207 42.4851 1.62182 42.4936C1.50032 42.5182 1.38068 42.5511 1.26373 42.5921C0.896032 42.769 0.557826 43.0015 0.26105 43.2815C-0.0178701 43.5365 -0.283794 43.8054 -0.535717 44.0872C-1.02593 44.6487 -1.4719 45.2473 -1.86963 45.8777C-1.30563 45.3942 -0.759531 44.9018 -0.195527 44.4453C0.0909513 44.2215 0.377429 43.9976 0.699717 43.8007C0.974664 43.604 1.27607 43.4473 1.59496 43.3352C1.89357 43.2846 2.19978 43.303 2.49021 43.3889C2.82834 43.4701 3.16039 43.5748 3.48393 43.7022C4.14641 43.935 4.81784 44.2215 5.46242 44.5169L5.7847 44.6601L6.02642 44.4184C6.50986 43.9171 7.02909 43.4336 7.54834 42.9681C7.799 42.7354 8.06758 42.5115 8.3272 42.3146L8.52416 42.1893L8.61368 42.1355C8.74091 42.112 8.8714 42.112 8.99863 42.1355C9.67648 42.2476 10.342 42.4245 10.9861 42.6637C11.568 42.8875 12.2394 43.1472 12.9198 43.3889Z" fill="#263238"/>
<path d="M30.647 40.524C30.0361 39.6302 29.363 38.7806 28.6327 37.9815C27.9053 37.1336 27.0649 36.3895 26.135 35.7703C25.849 35.5833 25.5299 35.4527 25.195 35.3853C25.0823 35.3668 24.9674 35.3668 24.8548 35.3853H24.6131C24.4621 35.4056 24.3126 35.4355 24.1654 35.4748C23.6195 35.605 23.0815 35.7664 22.554 35.9583C21.5245 36.3343 20.5397 36.7729 19.546 37.2385L20.3875 37.3727C19.5827 36.5797 18.721 35.8467 17.8092 35.1794C17.3384 34.8516 16.8481 34.5526 16.341 34.2842C16.0704 34.1378 15.7891 34.0121 15.4995 33.9081C15.3391 33.8505 15.1745 33.8057 15.0071 33.7739C14.8253 33.7603 14.6428 33.7603 14.461 33.7739C13.8426 33.8353 13.2381 33.9955 12.6705 34.2483C12.1423 34.4722 11.641 34.7318 11.1486 35.0003C10.1956 35.5326 9.28301 36.134 8.41809 36.7998C9.44762 36.3969 10.4682 35.9672 11.4977 35.6091C11.9956 35.417 12.5036 35.2527 13.0196 35.1167C13.4923 34.9681 13.9835 34.8867 14.4789 34.875C14.9111 34.9559 15.3205 35.1301 15.6785 35.3853C16.1182 35.6561 16.5399 35.9551 16.9408 36.2805C17.7734 36.943 18.5791 37.6771 19.349 38.4112L19.734 38.7783L20.1816 38.5903C21.0768 38.1248 22.0885 37.695 23.0464 37.2832C23.5107 37.0784 23.9859 36.899 24.4698 36.7461L24.81 36.6565H24.9622C24.9622 36.6565 24.9622 36.6565 25.0249 36.6565C25.2188 36.6784 25.407 36.7361 25.5799 36.8266C26.4813 37.3235 27.3354 37.9019 28.1314 38.5545C28.9908 39.1543 29.8055 39.8436 30.647 40.524Z" fill="#263238"/>
<path d="M164.583 87.1222C163.972 86.2284 163.299 85.3788 162.569 84.5797C161.842 83.7317 161.001 82.9877 160.071 82.3684C159.799 82.1866 159.495 82.0561 159.176 81.9835C159.063 81.9649 158.948 81.9649 158.836 81.9835H158.594C158.443 82.0037 158.294 82.0336 158.146 82.073C157.6 82.2032 157.062 82.3646 156.535 82.5564C155.505 82.9324 154.521 83.3711 153.527 83.8366L154.369 83.9709C153.564 83.1779 152.702 82.4448 151.79 81.7775C151.319 81.4497 150.829 81.1507 150.322 80.8823C150.051 80.7359 149.77 80.6103 149.48 80.5063C149.32 80.4487 149.155 80.4038 148.988 80.372C148.806 80.3584 148.624 80.3584 148.442 80.372C147.824 80.4334 147.219 80.5936 146.652 80.8465C146.123 81.0703 145.622 81.3299 145.13 81.5985C144.162 82.1493 143.238 82.7718 142.363 83.4606C143.393 83.0577 144.413 82.628 145.443 82.2699C145.944 82.0775 146.455 81.9131 146.974 81.7775C147.446 81.6289 147.938 81.5476 148.433 81.5358C148.865 81.6167 149.275 81.7909 149.633 82.0461C150.072 82.3169 150.494 82.6159 150.895 82.9414C151.728 83.6038 152.533 84.3379 153.303 85.072L153.688 85.4391L154.145 85.2063C155.04 84.7408 156.052 84.3111 157.009 83.8993C157.474 83.6944 157.949 83.5151 158.433 83.3621L158.773 83.2726H158.925C158.925 83.2726 158.925 83.2726 158.988 83.2726C159.182 83.2944 159.37 83.3521 159.543 83.4427C160.444 83.9396 161.298 84.5179 162.094 85.1705C162.927 85.7524 163.742 86.4418 164.583 87.1222Z" fill="#263238"/>
<path d="M282.12 293.321L283.14 333.607C283.14 341.047 282.961 347.573 282.567 350.939C282.572 350.957 282.572 350.975 282.567 350.993C282.557 351.789 282.367 352.572 282.012 353.284C282.012 353.284 282.012 353.329 282.012 353.338C279.792 354.824 220.33 356.373 218.235 355.729C216.14 355.084 217.814 349.068 220.079 347.17C222.344 345.272 244.851 334.493 244.851 334.493L244.197 294.261L282.12 293.321Z" fill="#F7A9A0"/>
<path d="M283.203 325.613C283.203 325.613 283.14 333.571 283.14 333.598C283.14 341.038 282.961 347.564 282.567 350.93C282.572 350.948 282.572 350.966 282.567 350.984C282.47 351.766 282.284 352.535 282.012 353.276C282.012 353.276 282.012 353.32 282.012 353.329C279.792 354.815 220.33 356.364 218.235 355.72C216.14 355.075 217.814 349.059 220.079 347.161C222.344 345.263 244.851 334.484 244.851 334.484V326.427L283.203 325.613Z" fill="white"/>
<path d="M241.152 334.512C245.109 333.858 249.916 334.566 252.871 337.439C252.987 337.547 252.826 337.708 252.701 337.672C248.958 336.367 245.086 335.467 241.152 334.986C241.103 334.969 241.06 334.938 241.029 334.895C240.999 334.852 240.982 334.801 240.982 334.749C240.982 334.697 240.999 334.646 241.029 334.603C241.06 334.561 241.103 334.529 241.152 334.512Z" fill="#263238"/>
<path d="M238.262 336.159C242.228 335.514 247.035 336.221 249.989 339.095C250.106 339.203 249.945 339.364 249.819 339.319C246.075 338.018 242.204 337.117 238.271 336.633C238.221 336.617 238.177 336.586 238.146 336.544C238.115 336.502 238.097 336.451 238.096 336.399C238.095 336.347 238.111 336.296 238.14 336.252C238.17 336.209 238.212 336.177 238.262 336.159Z" fill="#263238"/>
<path d="M235.379 337.816C239.344 337.171 244.152 337.879 247.106 340.752C247.223 340.86 247.061 341.021 246.936 340.976C243.194 339.671 239.322 338.77 235.387 338.29C235.338 338.275 235.294 338.243 235.263 338.201C235.232 338.159 235.214 338.109 235.213 338.056C235.212 338.004 235.228 337.953 235.257 337.91C235.287 337.867 235.329 337.834 235.379 337.816Z" fill="#263238"/>
<path d="M218.18 355.72C220.275 356.365 279.737 354.825 281.958 353.33C282.853 352.775 283.095 344.091 283.13 333.634V333.303L244.76 333.876V334.521C244.76 334.521 222.272 345.264 219.998 347.197C217.724 349.131 216.086 355.084 218.18 355.72Z" fill="#263238"/>
<path d="M283.14 333.268V333.608C283.096 344.092 282.818 352.775 281.959 353.304C280.956 353.984 268.064 354.673 254.134 355.166C237.474 355.757 219.318 356.061 218.181 355.703C216.087 355.058 217.77 349.033 220.026 347.135C222.282 345.237 244.788 334.459 244.788 334.459V333.814L257.581 333.626L283.14 333.268Z" fill="#FFC727"/>
<path d="M218.79 353.4C228.808 352.89 269.255 351.798 279.201 352.057C279.282 352.057 279.282 352.111 279.201 352.12C269.282 352.836 228.826 353.606 218.799 353.561C218.584 353.561 218.584 353.409 218.79 353.4Z" fill="#263238"/>
<path opacity="0.1" d="M257.554 333.652C256.659 340.079 255.191 349.551 254.134 355.191C237.474 355.782 219.318 356.086 218.181 355.728C216.087 355.084 217.77 349.059 220.026 347.161C222.282 345.263 244.788 334.484 244.788 334.484V333.84L257.554 333.652Z" fill="black"/>
<path d="M286.594 317.904L243.56 318.316C243.56 318.316 241.125 264.199 240.937 240.833C240.686 209.159 240.82 209.168 242.235 134.093H274.428C274.428 134.093 278.662 145.131 279.638 155.203C280.095 159.876 278.635 164.603 278.125 166.608L276.764 243.008L286.594 317.904Z" fill="#FFC727"/>
<path d="M286.594 317.904L243.56 318.316C243.56 318.316 241.125 264.199 240.937 240.833C240.686 209.159 240.82 209.168 242.235 134.093H274.428C274.428 134.093 278.662 145.131 279.638 155.203C280.095 159.876 278.635 164.603 278.125 166.608L276.764 243.008L286.594 317.904Z" fill="#0064D2"/>
<path d="M283.381 310.339C282.243 310.191 281.099 310.102 279.952 310.071C278.681 309.981 277.409 309.883 276.138 309.829C273.685 309.731 271.241 309.686 268.788 309.677C263.846 309.677 258.94 309.677 253.972 309.847C251.161 309.937 248.35 310.053 245.548 310.214C245.53 310.22 245.514 310.231 245.503 310.247C245.492 310.262 245.486 310.28 245.486 310.299C245.486 310.318 245.492 310.336 245.503 310.352C245.514 310.367 245.53 310.378 245.548 310.384C250.445 310.563 255.395 310.644 260.247 310.733C265.1 310.823 270.05 310.93 274.938 310.832C276.344 310.832 277.749 310.832 279.146 310.715C280.543 310.599 281.984 310.715 283.363 310.51C283.47 310.501 283.506 310.366 283.381 310.339Z" fill="#263238"/>
<path d="M245.477 252.848C244.841 229.661 244.68 201.488 244.975 178.301C245.136 165.284 245.485 157.263 245.87 144.282C245.87 144.13 245.647 144.138 245.647 144.282C244.671 162.589 243.946 185.911 243.919 214.2C243.919 237.396 247.025 293.734 248.001 306.715C248.001 307.261 248.359 306.903 248.35 306.786C247.831 295.068 245.781 264.432 245.477 252.848Z" fill="#263238"/>
<path d="M236.085 299.714C236.085 299.714 235.754 338.621 235.754 338.648C235.754 346.087 235.584 352.614 235.181 355.98C235.185 355.988 235.188 355.997 235.188 356.007C235.188 356.016 235.185 356.025 235.181 356.033C235.17 356.829 234.98 357.613 234.626 358.325L234.581 358.37C232.361 359.865 172.89 361.414 170.804 360.769C168.718 360.125 170.383 354.109 172.639 352.211C174.895 350.313 197.437 339.534 197.437 339.534L198.136 300.645L236.085 299.714Z" fill="#F7A9A0"/>
<path d="M235.825 330.663C235.825 330.663 235.754 338.622 235.754 338.648C235.754 346.088 235.584 352.614 235.181 355.98C235.185 355.989 235.188 355.998 235.188 356.007C235.188 356.017 235.185 356.026 235.181 356.034C235.083 356.817 234.897 357.585 234.626 358.326L234.581 358.371C232.361 359.866 172.89 361.414 170.804 360.77C168.718 360.125 170.383 354.109 172.639 352.211C174.895 350.313 197.437 339.535 197.437 339.535V331.424L235.825 330.663Z" fill="white"/>
<path d="M193.766 339.552C197.732 338.907 202.54 339.615 205.494 342.488C205.61 342.596 205.449 342.757 205.324 342.712C201.581 341.407 197.71 340.506 193.775 340.027C193.725 340.011 193.682 339.979 193.65 339.937C193.619 339.896 193.602 339.845 193.601 339.793C193.6 339.74 193.615 339.689 193.645 339.646C193.675 339.603 193.717 339.57 193.766 339.552Z" fill="#263238"/>
<path d="M190.885 341.181C194.851 340.528 199.658 341.244 202.613 344.118C202.729 344.225 202.613 344.386 202.443 344.341C198.7 343.036 194.828 342.136 190.894 341.656C190.844 341.64 190.8 341.609 190.769 341.567C190.738 341.525 190.721 341.474 190.72 341.422C190.719 341.369 190.734 341.318 190.764 341.275C190.793 341.232 190.836 341.199 190.885 341.181Z" fill="#263238"/>
<path d="M188.001 342.866C191.958 342.212 196.775 342.919 199.729 345.802C199.846 345.909 199.684 346.071 199.559 346.026C195.817 344.72 191.945 343.82 188.01 343.34C187.961 343.324 187.917 343.293 187.886 343.251C187.854 343.209 187.837 343.158 187.836 343.106C187.835 343.054 187.851 343.002 187.88 342.959C187.91 342.916 187.952 342.883 188.001 342.866Z" fill="#263238"/>
<path d="M170.804 360.769C172.899 361.413 232.352 359.874 234.581 358.37C235.432 357.815 235.718 349.14 235.754 338.674V338.343L197.384 338.916V339.561C197.384 339.561 174.886 350.303 172.612 352.237C170.339 354.171 168.709 360.133 170.804 360.769Z" fill="#FFC727"/>
<path d="M171.415 358.441C181.433 357.94 221.88 356.839 231.826 357.099C231.907 357.099 231.907 357.161 231.826 357.17C221.907 357.886 181.451 358.656 171.424 358.612C171.21 358.612 171.201 358.459 171.415 358.441Z" fill="#263238"/>
<path d="M255.745 170.27C255.745 170.27 238.091 230.887 237.778 241.11C237.5 249.83 238.619 321.36 238.619 321.36L193.928 321.62C193.928 321.62 197.706 248.326 198.405 239.257C199.819 220.797 208.038 187.333 217.205 154.531C218.933 148.336 225.217 134.084 225.217 134.084H273.39C272.644 145.599 269.11 156.761 263.095 166.608C263.095 166.608 258.61 168.649 255.745 170.27Z" fill="#FFC727"/>
<path d="M255.745 170.27C255.745 170.27 238.091 230.887 237.778 241.11C237.5 249.83 238.619 321.36 238.619 321.36L193.928 321.62C193.928 321.62 197.706 248.326 198.405 239.257C199.819 220.797 208.038 187.333 217.205 154.531C218.933 148.336 225.217 134.084 225.217 134.084H273.39C272.644 145.599 269.11 156.761 263.095 166.608C263.095 166.608 258.61 168.649 255.745 170.27Z" fill="#0064D2"/>
<path d="M236.246 313.116C231.08 312.973 225.726 312.821 220.561 312.946C215.395 313.072 210.31 313.152 205.189 313.456C202.289 313.627 199.397 313.725 196.506 314.012C196.484 314.012 196.464 314.02 196.449 314.035C196.434 314.05 196.425 314.071 196.425 314.092C196.425 314.113 196.434 314.134 196.449 314.149C196.464 314.164 196.484 314.173 196.506 314.173C201.662 314.468 206.846 314.405 212.011 314.361C217.177 314.316 222.262 314.262 227.383 314.029C230.283 313.895 233.175 313.743 236.075 313.546C236.389 313.528 236.55 313.125 236.246 313.116Z" fill="#263238"/>
<path d="M213.831 210.619C213.759 210.969 213.679 211.318 213.598 211.667C212.139 218.587 210.912 224.639 210.304 227.996C208.452 238.842 207.5 249.822 207.457 260.825C207.367 271.899 207.51 282.991 207.546 294.074C207.582 305.157 207.743 298.317 207.448 309.401C207.448 309.526 207.242 309.544 207.233 309.401C207.188 308.013 207.152 306.634 207.134 305.247C206.937 294.11 206.848 300.905 206.767 289.768C206.687 278.631 206.472 267.593 206.705 256.51C206.97 245.642 208.168 234.818 210.286 224.155C210.832 221.318 211.826 216.609 213.034 211.139C213.106 210.78 213.195 210.413 213.276 210.046L213.33 210.109C213.506 210.27 213.673 210.44 213.831 210.619Z" fill="#263238"/>
<path d="M226.793 155.382C225.415 161.434 223.749 167.432 222.192 173.457C221.762 175.104 220.813 179.195 219.605 184.459C219.605 184.656 219.515 184.862 219.479 185.059L218.888 184.961C218.942 184.764 218.987 184.558 219.032 184.361C220.473 178.094 221.655 173.117 222.111 171.371C223.535 165.999 224.877 160.628 226.471 155.301C226.488 155.267 226.517 155.239 226.552 155.223C226.587 155.206 226.627 155.203 226.665 155.212C226.702 155.222 226.735 155.243 226.759 155.274C226.782 155.305 226.794 155.343 226.793 155.382Z" fill="#263238"/>
<path d="M244.688 171.344C246.915 171.325 249.137 171.122 251.331 170.736C253.503 170.251 255.649 169.653 257.759 168.945C259.824 168.473 261.917 168.129 264.025 167.916C266.164 167.609 268.246 166.988 270.203 166.071C270.301 166.071 270.373 166.17 270.283 166.215C268.383 167.235 266.4 168.095 264.357 168.784C262.244 169.446 260.024 169.545 257.875 170.064C255.704 170.712 253.494 171.224 251.259 171.595C249.056 171.86 246.827 171.821 244.634 171.479C244.581 171.47 244.608 171.344 244.688 171.344Z" fill="#263238"/>
<path d="M241.88 220.583C242.3 218.936 249.847 187.593 251.96 181.085C253.16 177.387 254.225 173.654 255.631 170.037C255.631 170.018 255.638 170 255.652 169.987C255.665 169.973 255.683 169.966 255.702 169.966C255.721 169.966 255.739 169.973 255.753 169.987C255.766 170 255.774 170.018 255.774 170.037C255.067 173.413 254.073 176.716 253.178 180.046C252.282 183.377 243.33 218.3 242.703 220.108C242.077 221.917 241.548 223.868 240.778 225.677C240.778 225.698 240.77 225.719 240.755 225.734C240.74 225.749 240.719 225.757 240.698 225.757C240.677 225.757 240.656 225.749 240.641 225.734C240.626 225.719 240.617 225.698 240.617 225.677C240.913 223.949 241.441 222.266 241.88 220.583Z" fill="#263238"/>
<path d="M230.417 204.416C231.062 200.924 230.856 202.025 231.501 198.525C232.145 195.024 232.87 191.676 233.381 188.23C233.443 187.836 233.488 187.504 233.067 187.245C232.252 186.908 231.393 186.688 230.516 186.591C228.385 186.108 226.237 185.696 224.088 185.266C219.657 184.434 214.643 183.574 210.149 183.171C209.728 183.171 209.63 183.7 210.06 183.744C217.194 184.549 224.275 185.769 231.268 187.397C231.644 187.478 232.512 187.585 232.718 187.934C232.696 188.192 232.648 188.447 232.575 188.695L232.145 190.978C231.847 192.5 231.548 194.022 231.25 195.544C230.668 198.596 230.937 197.048 230.355 200.091C230.095 201.488 229.827 202.885 229.567 204.281L229.137 206.564C229.066 206.949 229.021 207.343 228.922 207.71C228.88 208.039 228.735 208.347 228.509 208.589C228.282 208.832 227.986 208.997 227.66 209.062C226.255 209.527 224.697 209.76 223.238 210.1L218.323 211.246C217.472 211.543 216.588 211.735 215.691 211.819C214.795 211.819 213.9 210.673 213.291 210.118L207.696 205.051C207.138 204.526 206.658 203.923 206.273 203.261C205.906 202.518 208.958 186.627 210.149 183.404C210.203 183.261 209.791 183.136 209.737 183.279C208.645 186.323 205.073 201.354 205.064 202.92C205.064 204.254 206.183 205.06 207.177 205.964L211.385 209.751C212.119 210.405 212.835 211.067 213.569 211.712C214.043 212.226 214.671 212.572 215.359 212.697C216.002 212.694 216.641 212.585 217.248 212.374L220.113 211.694L225.646 210.369C226.863 210.082 228.806 209.957 229.459 208.856C229.706 208.307 229.858 207.719 229.907 207.119C230.077 206.188 230.247 205.302 230.417 204.416Z" fill="#263238"/>
<path d="M232.354 189.116C228.406 190.512 224.449 191.882 220.394 193.055C219.874 193.207 219.355 193.368 218.827 193.502C218.445 193.642 218.029 193.656 217.639 193.542C217.249 193.427 216.906 193.191 216.66 192.867C215.953 192.186 215.273 191.488 214.575 190.817C212.963 189.259 211.325 187.728 209.704 186.179C209.579 186.063 209.364 186.179 209.481 186.323C211.155 188.113 212.82 189.993 214.548 191.793C215.72 193.019 216.804 194.756 218.8 194.246C221.074 193.664 223.276 192.813 225.479 192.025C227.833 191.184 230.161 190.235 232.417 189.241C232.488 189.205 232.444 189.089 232.354 189.116Z" fill="#263238"/>
<path d="M219.148 191.531C219.145 191.375 219.105 191.221 219.032 191.083C218.959 190.944 218.855 190.825 218.727 190.734C218.553 190.648 218.362 190.604 218.168 190.604C217.974 190.604 217.782 190.648 217.608 190.734C217.447 190.797 217.555 191.03 217.716 190.967C217.856 190.902 218.01 190.874 218.163 190.886C218.235 190.896 218.303 190.924 218.36 190.967L218.441 191.048C218.477 191.108 218.51 191.171 218.539 191.236C218.539 191.236 218.539 191.298 218.539 191.334C218.576 191.477 218.592 191.625 218.584 191.773C218.574 191.901 218.525 192.023 218.443 192.122C218.362 192.222 218.251 192.293 218.128 192.328C218.055 192.353 217.977 192.355 217.904 192.334C217.83 192.313 217.764 192.27 217.716 192.211C217.614 192.081 217.557 191.921 217.555 191.755C217.555 191.755 217.474 191.71 217.474 191.755C217.448 191.897 217.464 192.043 217.522 192.176C217.579 192.308 217.675 192.42 217.796 192.498C217.943 192.558 218.104 192.579 218.261 192.557C218.418 192.535 218.567 192.471 218.692 192.373C218.835 192.285 218.954 192.162 219.034 192.014C219.114 191.866 219.153 191.699 219.148 191.531Z" fill="#263238"/>
<path d="M236.863 60.7455L223.712 59.0087L225.315 50.3696L238.215 53.4761L236.863 60.7455Z" fill="#263238"/>
<path d="M230.902 61.4083L211.565 58.8479L213.928 46.1533L232.889 50.7191L230.902 61.4083Z" fill="#37474F"/>
<path d="M217.42 60.2531L193.329 57.066L196.265 41.2471L219.891 46.9408L217.42 60.2531Z" fill="#455A64"/>
<path d="M191.968 48.6336C191.154 52.9934 191.762 56.7713 193.329 57.0668C194.896 57.3622 196.812 54.0498 197.626 49.681C198.441 45.3122 197.832 41.5432 196.266 41.2478C194.699 40.9524 192.783 44.2648 191.968 48.6336Z" fill="#455A64"/>
<path d="M199.075 41.9275C198.901 41.9332 198.732 41.9831 198.584 42.0724C198.435 42.1617 198.311 42.2874 198.224 42.4378C198.018 42.7187 197.838 43.0184 197.687 43.333C197.39 43.9648 197.139 44.617 196.935 45.2847C196.509 46.6097 196.171 47.9615 195.924 49.3312C195.666 50.7053 195.51 52.0968 195.458 53.4941C195.409 54.1885 195.409 54.8855 195.458 55.58C195.481 55.9267 195.532 56.271 195.61 56.6095C195.7 56.9318 195.816 57.3078 196.156 57.4421C195.798 57.3525 195.619 56.9676 195.503 56.6453C195.386 56.3075 195.299 55.96 195.243 55.6068C195.143 54.904 195.092 54.195 195.091 53.4851C195.084 52.0654 195.207 50.648 195.458 49.2506C195.726 47.8592 196.103 46.4912 196.586 45.1593C196.831 44.4913 197.131 43.8446 197.481 43.2256C197.66 42.9049 197.873 42.6047 198.117 42.3304C198.229 42.187 198.376 42.0747 198.544 42.0042C198.711 41.9337 198.894 41.9073 199.075 41.9275Z" fill="#37474F"/>
<path d="M232.639 62.3116L219.425 61.103L220.678 52.4102L233.695 54.9974L232.639 62.3116Z" fill="#263238"/>
<path d="M226.713 63.2074L207.286 61.4348L209.13 48.6597L228.271 52.4555L226.713 63.2074Z" fill="#37474F"/>
<path d="M213.185 62.6087L188.987 60.3974L191.287 44.48L215.119 49.2069L213.185 62.6087Z" fill="#455A64"/>
<path d="M187.285 52.0183C186.65 56.414 187.411 60.1651 188.986 60.3889C190.562 60.6127 192.352 57.2376 192.988 52.842C193.624 48.4463 192.863 44.6952 191.287 44.4714C189.712 44.2476 187.921 47.6316 187.285 52.0183Z" fill="#455A64"/>
<path d="M194.116 45.044C193.945 45.057 193.779 45.113 193.635 45.2069C193.491 45.3008 193.373 45.4295 193.293 45.5812C193.095 45.8617 192.927 46.1617 192.791 46.4764C192.517 47.1176 192.292 47.7791 192.12 48.4549C191.746 49.8014 191.462 51.1712 191.269 52.5551C191.072 53.937 190.973 55.3311 190.974 56.727C190.968 57.4241 191.007 58.1208 191.09 58.8129C191.126 59.1575 191.189 59.4987 191.278 59.8335C191.386 60.1468 191.511 60.5228 191.86 60.6392C191.493 60.5676 191.296 60.1916 191.171 59.8693C191.041 59.5389 190.942 59.1972 190.875 58.8487C190.746 58.1509 190.665 57.445 190.634 56.7359C190.574 55.3154 190.64 53.8924 190.831 52.4835C191.038 51.0813 191.359 49.6982 191.789 48.3475C192.008 47.672 192.278 47.0137 192.594 46.378C192.763 46.06 192.964 45.76 193.194 45.4827C193.297 45.3364 193.436 45.2191 193.597 45.1422C193.759 45.0654 193.938 45.0315 194.116 45.044Z" fill="#37474F"/>
<path d="M192.218 44.7124C196.058 45.3659 199.881 46.0642 203.704 46.7715C207.527 47.4787 211.349 48.2218 215.163 49.0006H215.36V49.2065L215.27 49.8243L215.1 49.5915L221.707 50.9344C223.91 51.4088 226.112 51.8296 228.305 52.3399H228.377V52.4115L228.144 53.8349V53.7812L230.319 54.2557L228.126 53.8708H228.081V53.826L228.26 52.4026L228.323 52.4921C226.103 52.1071 223.901 51.6774 221.689 51.2656L215.065 49.9943H214.868V49.7884L214.957 49.1707L215.127 49.4124C211.304 48.6873 207.5 47.8905 203.677 47.1296C199.854 46.3686 196.014 45.5539 192.218 44.7124Z" fill="#263238"/>
<path d="M245.19 85.7048C248.171 86.0719 251.018 81.2286 252.065 77.6924C252.146 77.4238 251.51 74.8724 250.848 71.7301C250.454 69.8142 250.06 67.6836 249.836 65.7051L237.786 70.0918C238.765 72.4822 239.448 74.9837 239.818 77.5402C239.845 77.8141 239.845 78.0899 239.818 78.3638C239.814 78.4085 239.814 78.4535 239.818 78.4981C239.747 80.0648 242.307 85.3557 245.19 85.7048Z" fill="#F7A9A0"/>
<path d="M239.827 78.3643V78.4986C240.252 78.5085 240.678 78.4846 241.099 78.427C247.813 77.5317 248.995 69.1612 249.156 65.8936L237.75 70.0475C238.731 72.4407 239.413 74.9453 239.783 77.5049C239.827 77.789 239.842 78.077 239.827 78.3643Z" fill="#263238"/>
<path d="M254.734 49.5917C256.059 54.9632 253.194 67.9621 249.282 71.1492C243.597 75.7687 234.698 75.7597 230.884 69.0275C227.178 62.4922 231.001 46.0555 235.361 43.1997C241.735 39.001 252.782 41.6957 254.734 49.5917Z" fill="#F7A9A0"/>
<path d="M231.761 50.7101C231.761 50.7101 231.376 53.8703 233.399 54.9177C233.56 54.9983 239.746 70.5934 250.946 69.743C250.946 69.743 259.639 60.4772 257.759 51.7396C256.532 46.0816 252.745 44.3717 252.745 44.3717C252.745 44.3717 245.073 37.0576 235.816 40.2447C226.559 43.4317 228.35 50.2266 231.761 50.7101Z" fill="#263238"/>
<path d="M227.877 120.951L225.272 134.084H274.43C274.43 134.084 269.246 95.0962 256.238 80.9692C249.73 73.9058 242.084 74.434 237.223 79.3757C235.988 80.6201 224.502 98.6772 222.953 106.099C221.61 112.634 227.877 120.951 227.877 120.951Z" fill="#FFC727"/>
<path d="M275.789 137.72H223.319L224.456 131.605H275.055L275.789 137.72Z" fill="#263238"/>
<path d="M244.491 81.6585C244.912 81.4437 247.795 81.6585 247.651 81.2109C247.562 80.9423 246.953 78.0865 245.404 76.493C244.875 76.0557 244.259 75.7362 243.597 75.5556C242.935 75.375 242.242 75.3375 241.564 75.4455C239.075 75.7678 229.272 92.4552 227.813 98.1758C226.353 103.896 227.177 121.452 228.198 124.245C229.218 127.038 233.175 135.713 234.276 135.149C235.378 134.585 237.159 131.273 237.159 130.619C237.159 129.966 233.193 121.909 232.459 120.163C231.725 118.417 231.635 101.757 231.886 98.9815C232.137 96.2063 241.993 77.5852 242.28 77.3166C242.566 77.048 244.321 81.7391 244.491 81.6585Z" fill="#263238"/>
<path d="M193.41 116.948C189.766 111.935 191.019 100.126 194.421 75.7669C194.887 72.4008 218.888 72.1233 218.593 75.7669C218.19 80.3326 215.656 97.951 215.307 99.2223C212.353 109.885 195.889 120.35 193.41 116.948Z" fill="#F7A9A0"/>
<path d="M222.827 49.1521C222.181 48.7797 221.437 48.6143 220.694 48.6783C219.951 48.7424 219.246 49.0327 218.673 49.5102C218.107 48.3676 217.156 47.4611 215.987 46.9498C213.91 46.1262 211.717 49.0268 211.717 49.0268C210.889 47.9688 209.764 47.1831 208.485 46.7708C206.426 46.1889 203.794 48.794 203.794 48.794C202.498 48.2395 201.046 48.1696 199.703 48.5971C196.167 49.8773 194.958 55.4994 194.161 59.0625C193.364 62.6256 194.421 73.4938 194.412 75.5887L217.259 80.9602C217.259 80.9602 225.396 65.9917 225.745 61.6676C226.086 57.9971 225.244 50.6651 222.827 49.1521Z" fill="#F7A9A0"/>
<path d="M218.754 49.5641C219.372 53.5122 218.754 57.4333 218.432 61.3724C218.436 61.3832 218.437 61.3949 218.436 61.4063C218.434 61.4178 218.43 61.4287 218.424 61.4382C218.417 61.4477 218.408 61.4555 218.398 61.4608C218.388 61.4662 218.376 61.4689 218.365 61.4689C218.353 61.4689 218.342 61.4662 218.332 61.4608C218.321 61.4555 218.313 61.4477 218.306 61.4382C218.299 61.4287 218.295 61.4178 218.294 61.4063C218.292 61.3949 218.294 61.3832 218.298 61.3724C218.7 57.4512 218.298 53.5032 218.566 49.582C218.57 49.5612 218.581 49.5422 218.597 49.528C218.612 49.5137 218.632 49.5049 218.653 49.5029C218.675 49.5009 218.696 49.5057 218.714 49.5168C218.732 49.5278 218.746 49.5444 218.754 49.5641Z" fill="#263238"/>
<path d="M211.842 49.0263C211.889 49.9263 211.823 50.8286 211.645 51.712C211.51 52.661 211.358 53.6189 211.188 54.5679C210.854 56.4717 210.472 58.3667 210.042 60.2527C210.042 60.3422 209.89 60.3332 209.908 60.2527C210.242 58.3547 210.54 56.4509 210.803 54.541C210.928 53.5831 211.045 52.6252 211.161 51.6673C211.205 50.7589 211.349 49.8582 211.591 48.9815C211.607 48.9606 211.628 48.9446 211.653 48.935C211.677 48.9255 211.704 48.9229 211.73 48.9275C211.756 48.9321 211.78 48.9438 211.8 48.9612C211.819 48.9787 211.834 49.0012 211.842 49.0263Z" fill="#263238"/>
<path d="M203.812 48.8761C203.852 49.7023 203.749 50.5292 203.507 51.3202C203.337 52.2154 203.176 53.048 203.015 53.9164C202.693 55.6442 202.37 57.381 202.12 59.1177C202.12 59.2073 201.968 59.1983 201.977 59.1177C202.236 57.3272 202.469 55.5368 202.738 53.8C202.872 52.9047 203.015 52.0632 203.158 51.1948C203.211 50.3902 203.408 49.6017 203.74 48.8672L203.812 48.8761Z" fill="#263238"/>
<path d="M239.379 88.6415C226.918 108.337 215.351 117.289 201.52 118.82C187.867 120.351 193.534 109.232 194.268 108.077C197.025 103.771 218.073 86.7167 232.969 79.2056C247.866 71.6945 242.459 83.7714 239.379 88.6415Z" fill="#F7A9A0"/>
<path d="M216.856 89.1328L212.272 92.6153C210.741 93.7702 209.21 94.9161 207.697 96.0978C206.184 97.2795 204.662 98.4344 203.167 99.634C201.672 100.834 200.195 102.042 198.79 103.358C200.09 101.942 201.481 100.612 202.953 99.3744C204.403 98.1121 205.916 96.9214 207.429 95.7397C208.942 94.558 210.499 93.4389 212.066 92.3378C213.633 91.2366 215.235 90.1623 216.856 89.1328Z" fill="#263238"/>
<path d="M286.506 153.716H235.934L236.892 87.7099C236.908 86.6334 237.347 85.6065 238.115 84.851C238.882 84.0956 239.915 83.6722 240.992 83.6724H278.959C280.702 83.6722 282.374 84.3575 283.616 85.5804C284.857 86.8033 285.567 88.4654 285.593 90.2076L286.506 153.716Z" fill="#263238"/>
<path d="M286.505 153.716H236.479C236.126 153.715 235.777 153.643 235.453 153.503C235.129 153.363 234.836 153.159 234.594 152.903C234.351 152.647 234.163 152.344 234.04 152.013C233.918 151.682 233.865 151.329 233.883 150.976L236.774 95.3281L285.494 95.6862L286.505 153.716Z" fill="#37474F"/>
<path d="M247.24 153.716L247.903 95.3284C247.903 95.3284 247.992 88.632 246.273 85.812C245.262 84.1558 238.708 83.7261 237.715 86.3223C236.721 88.9185 236.819 93.3858 236.819 93.3858L236.9 87.316C236.914 86.3447 237.31 85.418 238.002 84.7362C238.694 84.0544 239.626 83.6723 240.597 83.6724H279.567C281.211 83.6721 282.789 84.3176 283.961 85.4697C285.133 86.6218 285.806 88.1883 285.834 89.8316L286.085 112.58C286.659 113.323 287.11 114.155 287.419 115.042C288.081 124.889 288.439 143.994 288.556 151.022C288.556 151.734 288.273 152.417 287.769 152.921C287.265 153.424 286.582 153.707 285.87 153.707L247.24 153.716Z" fill="#455A64"/>
<path d="M247.697 106.671C247.697 107.566 247.697 108.596 248.404 109.151C249.175 109.593 250.058 109.805 250.946 109.76C252.737 109.76 254.581 109.715 256.398 109.697L267.311 109.616L278.233 109.697L283.694 109.786C284.128 109.847 284.57 109.82 284.992 109.706C285.182 109.612 285.347 109.476 285.476 109.308C285.605 109.141 285.694 108.946 285.736 108.739C285.941 107.859 286.043 106.957 286.04 106.053C286.116 106.968 286.071 107.889 285.906 108.793C285.867 109.033 285.773 109.262 285.632 109.46C285.49 109.659 285.305 109.823 285.091 109.939C284.867 110.045 284.622 110.1 284.375 110.1H283.694L278.233 110.189L267.311 110.27L256.398 110.207C254.608 110.162 252.764 110.207 250.928 110.091C249.988 110.086 249.07 109.806 248.287 109.285C247.939 108.961 247.727 108.516 247.697 108.041C247.661 107.585 247.661 107.127 247.697 106.671Z" fill="#37474F"/>
<path d="M271.386 108.507H263.759V112.42H271.386V108.507Z" fill="#FFC727"/>
<path d="M241.333 120.247L238.415 120.196L238.357 123.553L241.275 123.603L241.333 120.247Z" fill="#DBDBDB"/>
<path d="M242.225 122.527L237.463 122.444L237.397 126.284L242.159 126.367L242.225 122.527Z" fill="#C7C7C7"/>
<path d="M245.36 131.157C245.306 134.64 245.065 148.722 245.065 148.722L233.74 148.525C233.74 148.525 233.981 134.443 234.035 130.969C234.089 127.496 236.327 124.846 239.801 124.908C243.274 124.971 245.423 127.684 245.36 131.157Z" fill="#FFC727"/>
<path opacity="0.1" d="M245.36 131.157C245.306 134.64 245.065 148.722 245.065 148.722L233.74 148.525C233.74 148.525 233.981 134.443 234.035 130.969C234.089 127.496 236.327 124.846 239.801 124.908C243.274 124.971 245.423 127.684 245.36 131.157Z" fill="black"/>
<path d="M239.174 126.206C239.174 126.295 239.148 126.382 239.098 126.456C239.049 126.529 238.978 126.587 238.896 126.62C238.814 126.654 238.723 126.662 238.636 126.644C238.549 126.626 238.469 126.583 238.407 126.519C238.345 126.456 238.303 126.375 238.287 126.288C238.27 126.2 238.28 126.11 238.316 126.028C238.351 125.947 238.41 125.878 238.485 125.829C238.559 125.781 238.647 125.757 238.736 125.758C238.794 125.758 238.852 125.77 238.906 125.793C238.959 125.815 239.008 125.848 239.049 125.89C239.09 125.932 239.122 125.981 239.144 126.035C239.165 126.09 239.175 126.148 239.174 126.206Z" fill="white"/>
<path d="M244.724 130.271C244.722 130.358 244.695 130.442 244.645 130.514C244.595 130.585 244.526 130.639 244.445 130.671C244.364 130.703 244.276 130.709 244.191 130.691C244.106 130.672 244.029 130.629 243.969 130.566C243.909 130.504 243.869 130.425 243.854 130.339C243.838 130.254 243.849 130.166 243.884 130.086C243.919 130.007 243.976 129.94 244.049 129.893C244.122 129.846 244.208 129.822 244.294 129.824C244.352 129.825 244.409 129.837 244.462 129.861C244.514 129.884 244.562 129.917 244.602 129.959C244.642 130 244.673 130.049 244.694 130.103C244.715 130.157 244.725 130.214 244.724 130.271Z" fill="white"/>
<path d="M239.711 130.628C239.711 130.717 239.684 130.804 239.635 130.878C239.585 130.952 239.515 131.009 239.432 131.043C239.35 131.076 239.26 131.085 239.172 131.067C239.085 131.049 239.006 131.005 238.943 130.942C238.881 130.878 238.839 130.798 238.823 130.71C238.807 130.623 238.817 130.532 238.852 130.451C238.887 130.369 238.946 130.3 239.021 130.252C239.096 130.204 239.183 130.179 239.272 130.181C239.331 130.181 239.388 130.192 239.442 130.215C239.496 130.238 239.545 130.271 239.586 130.312C239.626 130.354 239.658 130.403 239.68 130.458C239.702 130.512 239.712 130.57 239.711 130.628Z" fill="white"/>
<path d="M240.079 134.854C240.078 134.912 240.066 134.969 240.043 135.021C240.019 135.074 239.986 135.122 239.945 135.162C239.903 135.202 239.854 135.233 239.8 135.254C239.747 135.275 239.689 135.285 239.632 135.284C239.515 135.282 239.403 135.233 239.321 135.15C239.239 135.066 239.193 134.953 239.193 134.836C239.193 134.718 239.24 134.604 239.324 134.52C239.408 134.436 239.522 134.389 239.641 134.389C239.759 134.389 239.873 134.436 239.957 134.52C240.041 134.604 240.088 134.718 240.088 134.836L240.079 134.854Z" fill="white"/>
<path d="M235.441 139.178C235.438 139.295 235.39 139.407 235.307 139.489C235.223 139.571 235.11 139.617 234.993 139.617C234.935 139.616 234.877 139.603 234.824 139.579C234.77 139.555 234.722 139.521 234.682 139.479C234.642 139.436 234.611 139.386 234.591 139.331C234.57 139.277 234.561 139.218 234.563 139.16C234.563 139.102 234.575 139.045 234.598 138.991C234.621 138.938 234.654 138.89 234.696 138.85C234.737 138.81 234.787 138.778 234.841 138.758C234.895 138.737 234.953 138.728 235.011 138.73C235.069 138.732 235.126 138.744 235.178 138.767C235.231 138.79 235.279 138.824 235.319 138.865C235.359 138.907 235.39 138.956 235.411 139.009C235.432 139.063 235.442 139.12 235.441 139.178Z" fill="white"/>
<path d="M235.037 135.276C235.037 135.394 234.99 135.508 234.906 135.592C234.822 135.676 234.708 135.723 234.589 135.723C234.471 135.723 234.357 135.676 234.273 135.592C234.189 135.508 234.142 135.394 234.142 135.276C234.144 135.159 234.192 135.047 234.276 134.965C234.36 134.883 234.472 134.837 234.589 134.837C234.648 134.836 234.706 134.846 234.76 134.868C234.814 134.889 234.864 134.921 234.905 134.962C234.947 135.003 234.98 135.052 235.003 135.106C235.025 135.16 235.037 135.217 235.037 135.276Z" fill="white"/>
<path d="M235.252 131.095C235.252 131.184 235.225 131.27 235.176 131.344C235.126 131.418 235.056 131.475 234.973 131.509C234.891 131.543 234.8 131.551 234.713 131.533C234.626 131.515 234.547 131.471 234.484 131.408C234.422 131.344 234.38 131.264 234.364 131.176C234.348 131.089 234.358 130.999 234.393 130.917C234.428 130.835 234.487 130.766 234.562 130.718C234.637 130.67 234.724 130.645 234.813 130.647C234.929 130.652 235.04 130.701 235.121 130.784C235.203 130.867 235.249 130.978 235.252 131.095Z" fill="white"/>
<path d="M237.205 128.588C237.202 128.705 237.154 128.817 237.07 128.899C236.987 128.981 236.874 129.027 236.757 129.027C236.698 129.026 236.641 129.013 236.588 128.989C236.534 128.965 236.486 128.931 236.446 128.889C236.406 128.846 236.375 128.796 236.354 128.741C236.334 128.687 236.325 128.629 236.327 128.57C236.327 128.451 236.374 128.338 236.458 128.254C236.542 128.17 236.656 128.123 236.775 128.123C236.893 128.123 237.007 128.17 237.091 128.254C237.175 128.338 237.222 128.451 237.222 128.57L237.205 128.588Z" fill="white"/>
<path d="M237.571 132.975C237.569 133.062 237.541 133.146 237.492 133.217C237.442 133.288 237.372 133.343 237.292 133.375C237.211 133.406 237.122 133.413 237.038 133.394C236.953 133.376 236.876 133.332 236.816 133.27C236.756 133.207 236.715 133.128 236.7 133.043C236.685 132.957 236.695 132.869 236.73 132.79C236.765 132.71 236.823 132.643 236.896 132.596C236.969 132.55 237.054 132.526 237.141 132.527C237.199 132.527 237.256 132.539 237.31 132.562C237.363 132.584 237.411 132.618 237.451 132.66C237.491 132.701 237.523 132.751 237.543 132.805C237.564 132.859 237.573 132.917 237.571 132.975Z" fill="white"/>
<path d="M241.976 128.284C241.972 128.402 241.922 128.513 241.836 128.595C241.751 128.677 241.638 128.723 241.52 128.722C241.401 128.722 241.287 128.675 241.203 128.591C241.119 128.507 241.072 128.394 241.072 128.275C241.072 128.156 241.119 128.042 241.203 127.958C241.287 127.874 241.401 127.827 241.52 127.827C241.58 127.826 241.64 127.837 241.696 127.86C241.752 127.882 241.803 127.916 241.845 127.958C241.888 128.001 241.922 128.052 241.944 128.108C241.967 128.164 241.978 128.224 241.976 128.284Z" fill="white"/>
<path d="M242.433 132.59C242.433 132.648 242.421 132.705 242.399 132.759C242.376 132.812 242.343 132.86 242.301 132.9C242.259 132.941 242.21 132.972 242.155 132.992C242.101 133.013 242.043 133.022 241.985 133.02C241.868 133.017 241.757 132.969 241.675 132.886C241.593 132.802 241.547 132.689 241.547 132.572C241.548 132.514 241.561 132.456 241.584 132.403C241.608 132.349 241.642 132.301 241.685 132.261C241.727 132.221 241.777 132.19 241.832 132.17C241.887 132.149 241.945 132.14 242.003 132.142C242.061 132.142 242.119 132.154 242.172 132.177C242.225 132.2 242.274 132.233 242.314 132.275C242.354 132.316 242.385 132.366 242.406 132.42C242.426 132.474 242.435 132.532 242.433 132.59Z" fill="white"/>
<path d="M237.723 137.067C237.723 137.185 237.676 137.299 237.592 137.383C237.508 137.467 237.394 137.514 237.276 137.514C237.157 137.514 237.043 137.467 236.959 137.383C236.875 137.299 236.828 137.185 236.828 137.067C236.828 136.948 236.875 136.834 236.959 136.75C237.043 136.666 237.157 136.619 237.276 136.619C237.394 136.619 237.508 136.666 237.592 136.75C237.676 136.834 237.723 136.948 237.723 137.067Z" fill="white"/>
<path d="M242.433 140.647C242.432 140.704 242.419 140.761 242.396 140.814C242.373 140.867 242.34 140.914 242.298 140.954C242.257 140.994 242.208 141.025 242.154 141.046C242.1 141.067 242.043 141.078 241.985 141.076C241.868 141.074 241.757 141.026 241.675 140.942C241.593 140.858 241.547 140.746 241.547 140.629C241.547 140.51 241.594 140.396 241.678 140.312C241.762 140.228 241.876 140.181 241.994 140.181C242.113 140.181 242.227 140.228 242.311 140.312C242.395 140.396 242.442 140.51 242.442 140.629L242.433 140.647Z" fill="white"/>
<path d="M242.307 143.968C242.303 144.054 242.275 144.138 242.224 144.207C242.173 144.277 242.103 144.331 242.022 144.361C241.941 144.391 241.853 144.397 241.769 144.377C241.685 144.357 241.608 144.313 241.549 144.251C241.49 144.188 241.451 144.109 241.436 144.024C241.422 143.938 241.433 143.851 241.468 143.772C241.503 143.693 241.56 143.626 241.633 143.58C241.706 143.533 241.791 143.51 241.877 143.511C241.936 143.512 241.993 143.525 242.047 143.549C242.1 143.573 242.148 143.607 242.188 143.649C242.228 143.692 242.259 143.742 242.28 143.797C242.3 143.851 242.309 143.91 242.307 143.968Z" fill="white"/>
<path d="M237.939 140.646C237.937 140.733 237.91 140.817 237.86 140.889C237.81 140.96 237.741 141.014 237.66 141.046C237.579 141.078 237.491 141.084 237.406 141.066C237.321 141.047 237.244 141.004 237.184 140.941C237.124 140.879 237.083 140.8 237.068 140.714C237.053 140.629 237.064 140.541 237.098 140.461C237.133 140.382 237.191 140.315 237.264 140.268C237.337 140.221 237.422 140.197 237.509 140.199C237.567 140.199 237.624 140.21 237.678 140.233C237.731 140.256 237.779 140.289 237.819 140.331C237.86 140.373 237.891 140.422 237.911 140.476C237.932 140.531 237.941 140.589 237.939 140.646Z" fill="white"/>
<path d="M235.7 145.778C235.7 145.896 235.653 146.01 235.569 146.094C235.485 146.178 235.371 146.225 235.252 146.225C235.134 146.225 235.02 146.178 234.936 146.094C234.852 146.01 234.805 145.896 234.805 145.778C234.807 145.66 234.855 145.549 234.939 145.467C235.023 145.385 235.135 145.339 235.252 145.339C235.311 145.338 235.369 145.348 235.423 145.37C235.477 145.391 235.527 145.423 235.568 145.464C235.61 145.505 235.643 145.554 235.666 145.608C235.688 145.661 235.7 145.719 235.7 145.778Z" fill="white"/>
<path d="M240.257 138.705C240.255 138.791 240.228 138.876 240.178 138.947C240.129 139.018 240.059 139.073 239.978 139.104C239.897 139.136 239.809 139.143 239.724 139.124C239.64 139.105 239.562 139.062 239.502 138.999C239.442 138.937 239.402 138.858 239.387 138.772C239.372 138.687 239.382 138.599 239.417 138.519C239.452 138.44 239.509 138.373 239.582 138.326C239.655 138.279 239.741 138.255 239.828 138.257C239.886 138.257 239.943 138.269 239.996 138.291C240.05 138.314 240.098 138.347 240.138 138.389C240.178 138.431 240.209 138.48 240.23 138.535C240.25 138.589 240.26 138.647 240.257 138.705Z" fill="white"/>
<path d="M240.249 142.286C240.249 142.404 240.202 142.518 240.118 142.602C240.034 142.686 239.92 142.733 239.801 142.733C239.683 142.733 239.569 142.686 239.485 142.602C239.401 142.518 239.354 142.404 239.354 142.286C239.354 142.167 239.401 142.053 239.485 141.969C239.569 141.885 239.683 141.838 239.801 141.838C239.92 141.838 240.034 141.885 240.118 141.969C240.202 142.053 240.249 142.167 240.249 142.286Z" fill="white"/>
<path d="M240.195 145.857C240.19 145.975 240.14 146.086 240.055 146.168C239.97 146.25 239.856 146.296 239.738 146.296C239.65 146.294 239.564 146.266 239.491 146.215C239.419 146.164 239.363 146.093 239.33 146.011C239.298 145.929 239.291 145.838 239.31 145.752C239.329 145.665 239.373 145.587 239.437 145.525C239.501 145.464 239.582 145.423 239.669 145.407C239.756 145.392 239.846 145.402 239.927 145.438C240.008 145.473 240.077 145.532 240.124 145.607C240.172 145.681 240.197 145.768 240.195 145.857Z" fill="white"/>
<path d="M242.406 147.549C242.404 147.666 242.356 147.778 242.272 147.86C242.188 147.942 242.076 147.988 241.958 147.988C241.9 147.987 241.842 147.974 241.789 147.95C241.736 147.926 241.688 147.892 241.648 147.85C241.608 147.807 241.576 147.757 241.556 147.702C241.536 147.648 241.526 147.59 241.529 147.531C241.529 147.473 241.54 147.416 241.563 147.362C241.586 147.309 241.619 147.261 241.661 147.221C241.703 147.181 241.752 147.149 241.806 147.129C241.861 147.108 241.918 147.099 241.976 147.101C242.034 147.103 242.091 147.115 242.144 147.138C242.196 147.161 242.244 147.195 242.284 147.236C242.324 147.278 242.355 147.327 242.376 147.381C242.397 147.434 242.407 147.491 242.406 147.549Z" fill="white"/>
<path d="M235.71 142.437C235.71 142.526 235.683 142.613 235.634 142.687C235.584 142.76 235.514 142.818 235.431 142.851C235.349 142.885 235.258 142.893 235.171 142.875C235.084 142.857 235.005 142.814 234.942 142.75C234.88 142.687 234.838 142.606 234.822 142.519C234.806 142.431 234.816 142.341 234.851 142.259C234.886 142.178 234.945 142.108 235.02 142.06C235.095 142.012 235.182 141.988 235.271 141.989C235.329 141.989 235.387 142.001 235.441 142.024C235.495 142.046 235.544 142.079 235.584 142.121C235.625 142.163 235.657 142.212 235.679 142.266C235.7 142.321 235.711 142.379 235.71 142.437Z" fill="white"/>
<path d="M237.885 144.04C237.882 144.157 237.834 144.268 237.75 144.35C237.667 144.432 237.554 144.478 237.437 144.478C237.321 144.474 237.21 144.425 237.129 144.342C237.047 144.258 237 144.147 236.998 144.031C236.998 143.912 237.045 143.798 237.129 143.714C237.213 143.63 237.327 143.583 237.446 143.583C237.565 143.583 237.678 143.63 237.762 143.714C237.846 143.798 237.894 143.912 237.894 144.031L237.885 144.04Z" fill="white"/>
<path d="M244.536 145.927C244.534 146.044 244.485 146.156 244.402 146.238C244.318 146.32 244.205 146.366 244.088 146.366C243.97 146.366 243.856 146.319 243.772 146.235C243.688 146.151 243.641 146.037 243.641 145.918C243.641 145.8 243.688 145.686 243.772 145.602C243.856 145.518 243.97 145.471 244.088 145.471C244.148 145.471 244.207 145.483 244.262 145.506C244.317 145.529 244.366 145.562 244.408 145.605C244.45 145.647 244.482 145.698 244.504 145.753C244.526 145.809 244.537 145.868 244.536 145.927Z" fill="white"/>
<path d="M237.92 147.513C237.92 147.632 237.873 147.746 237.789 147.83C237.705 147.914 237.591 147.961 237.472 147.961C237.354 147.961 237.24 147.914 237.156 147.83C237.072 147.746 237.025 147.632 237.025 147.513C237.027 147.396 237.075 147.285 237.159 147.203C237.243 147.121 237.355 147.075 237.472 147.075C237.531 147.074 237.589 147.084 237.643 147.106C237.697 147.127 237.747 147.159 237.788 147.2C237.83 147.241 237.863 147.29 237.886 147.344C237.908 147.397 237.92 147.455 237.92 147.513Z" fill="white"/>
<path d="M244.724 138.9C244.724 138.989 244.698 139.076 244.648 139.149C244.598 139.223 244.528 139.281 244.446 139.314C244.363 139.348 244.273 139.356 244.186 139.338C244.099 139.32 244.019 139.277 243.957 139.213C243.895 139.15 243.853 139.069 243.836 138.982C243.82 138.894 243.83 138.804 243.866 138.722C243.901 138.641 243.96 138.571 244.034 138.523C244.109 138.475 244.197 138.45 244.285 138.452C244.344 138.452 244.402 138.464 244.455 138.486C244.509 138.509 244.558 138.542 244.599 138.584C244.64 138.626 244.672 138.675 244.693 138.729C244.715 138.783 244.725 138.842 244.724 138.9Z" fill="white"/>
<path d="M244.662 142.365C244.662 142.484 244.615 142.598 244.531 142.682C244.447 142.766 244.333 142.813 244.214 142.813C244.096 142.813 243.982 142.766 243.898 142.682C243.814 142.598 243.767 142.484 243.767 142.365C243.769 142.248 243.817 142.136 243.901 142.054C243.985 141.972 244.097 141.926 244.214 141.926C244.273 141.925 244.331 141.936 244.385 141.957C244.439 141.979 244.489 142.011 244.53 142.052C244.572 142.092 244.605 142.141 244.628 142.195C244.65 142.249 244.662 142.307 244.662 142.365Z" fill="white"/>
<path d="M242.587 137.065C242.584 137.183 242.536 137.294 242.453 137.376C242.369 137.458 242.256 137.504 242.139 137.504C242.02 137.504 241.907 137.457 241.823 137.373C241.739 137.289 241.692 137.175 241.692 137.056C241.692 136.938 241.739 136.824 241.823 136.74C241.907 136.656 242.02 136.609 242.139 136.609C242.199 136.606 242.26 136.616 242.316 136.638C242.372 136.661 242.423 136.694 242.465 136.737C242.507 136.78 242.54 136.832 242.561 136.888C242.582 136.945 242.591 137.005 242.587 137.065Z" fill="white"/>
<path d="M245.011 134.872C245.011 134.93 245 134.987 244.977 135.04C244.954 135.094 244.921 135.142 244.879 135.182C244.837 135.222 244.788 135.254 244.734 135.274C244.679 135.295 244.622 135.304 244.564 135.301C244.506 135.302 244.448 135.29 244.395 135.267C244.342 135.244 244.294 135.211 244.253 135.169C244.213 135.128 244.182 135.078 244.161 135.024C244.141 134.97 244.132 134.912 244.134 134.854C244.134 134.735 244.181 134.621 244.265 134.537C244.349 134.453 244.463 134.406 244.582 134.406C244.7 134.406 244.814 134.453 244.898 134.537C244.982 134.621 245.029 134.735 245.029 134.854L245.011 134.872Z" fill="white"/>
<path d="M232.728 149.222C235.262 152.741 245.655 152.159 246.318 150.78C246.595 150.198 246.318 135.794 246.318 135.794C246.318 135.794 237.365 136.626 232.522 134.899C232.486 134.863 231.94 148.121 232.728 149.222Z" fill="#455A64"/>
<path d="M278.824 84.4335H243.606C242.853 84.4347 242.107 84.2873 241.412 83.9998C240.716 83.7122 240.084 83.2902 239.551 82.758C239.019 82.2257 238.597 81.5936 238.31 80.8979C238.022 80.2023 237.875 79.4567 237.876 78.7039V77.567C237.875 76.8142 238.022 76.0686 238.31 75.373C238.597 74.6773 239.019 74.0452 239.551 73.5129C240.084 72.9807 240.716 72.5587 241.412 72.2711C242.107 71.9836 242.853 71.8362 243.606 71.8374H278.654C280.027 71.8354 281.355 72.3271 282.395 73.2228C283.436 74.1186 284.119 75.3586 284.321 76.7165L284.491 77.8534C284.614 78.6687 284.559 79.5008 284.33 80.2928C284.101 81.0848 283.705 81.8182 283.167 82.4429C282.629 83.0675 281.962 83.5687 281.213 83.9123C280.464 84.2558 279.649 84.4336 278.824 84.4335Z" fill="#FFC727"/>
<path opacity="0.1" d="M242.146 82.6697C243.891 82.6697 245.306 80.6055 245.306 78.0592C245.306 75.5129 243.891 73.4487 242.146 73.4487C240.401 73.4487 238.986 75.5129 238.986 78.0592C238.986 80.6055 240.401 82.6697 242.146 82.6697Z" fill="black"/>
<path d="M250.812 66.3416C254.223 67.3532 260.838 73.8527 261.214 79.3495C261.59 84.8463 257.732 91.301 256.031 91.1935C254.33 91.0861 248.815 87.3977 246.058 83.0021C243.301 78.6064 249.129 65.885 250.812 66.3416Z" fill="#263238"/>
<path d="M250.794 66.3936C250.705 66.313 250.794 66.134 250.902 66.1966C253.587 67.6022 255.951 70.082 258.064 72.2127C259.903 73.8503 261.377 75.8576 262.388 78.1034C262.818 79.2012 263.007 80.379 262.94 81.5563C262.874 82.7337 262.554 83.8828 262.003 84.9251C260.78 87.5146 258.915 89.7488 256.587 91.4157C256.515 91.4157 256.408 91.4157 256.47 91.3082C260.15 87.5482 264.223 82.7318 261.484 77.2708C259.21 72.6066 254.563 69.6881 250.794 66.3936Z" fill="#263238"/>
<path d="M256.229 89.8319C258.699 91.6224 262.809 100.53 261.17 106.224C259.532 111.918 251.323 117.128 249.693 116.967C248.064 116.806 244.895 108.686 244.948 104.066C244.948 100.987 247.536 98.7665 249.639 96.3314C252.746 92.7146 255.844 89.5544 256.229 89.8319Z" fill="#263238"/>
<path d="M243.713 102.536C245.772 96.9496 251.511 93.4581 255.844 89.7787C255.889 89.7339 255.951 89.7787 255.915 89.8503C252.469 93.7804 247.563 96.296 244.913 100.933C244.076 102.254 243.568 103.757 243.433 105.315C243.297 106.873 243.538 108.44 244.134 109.886C245.298 112.455 247.42 114.496 249.264 116.582C249.38 116.717 249.156 116.887 249.04 116.752C245.289 112.742 241.583 108.301 243.713 102.536Z" fill="#263238"/>
<path d="M256.523 90.6286C256.425 90.4853 256.631 90.3242 256.729 90.4674C259.522 94.3438 262.629 99.4736 262.539 104.424C262.432 109.796 257.83 112.911 253.811 115.579C253.806 115.583 253.8 115.585 253.795 115.587C253.789 115.588 253.783 115.588 253.777 115.588C253.771 115.587 253.766 115.585 253.761 115.582C253.756 115.579 253.751 115.575 253.748 115.57C253.744 115.565 253.742 115.56 253.74 115.554C253.739 115.549 253.739 115.543 253.739 115.537C253.74 115.531 253.742 115.525 253.745 115.52C253.748 115.515 253.752 115.511 253.757 115.507C257.776 112.768 262.423 109.178 262.163 103.753C261.957 99.0886 259.137 94.3439 256.523 90.6286Z" fill="#263238"/>
<path d="M249.47 116.645C247.187 116.77 243.069 118.739 240.795 122.186C236.892 128.086 235.057 125.767 227.366 124.353C220.849 123.162 216.624 129.178 218.351 133.824C218.351 133.824 218.351 128.963 223.186 128.739C228.978 128.48 237.59 138.274 245.97 133.994C256.793 128.462 249.47 116.645 249.47 116.645Z" fill="#263238"/>
<path d="M245.655 118.472C245.771 118.418 245.655 118.221 245.565 118.266C244.408 118.71 243.341 119.359 242.414 120.182C241.223 121.265 240.543 122.715 239.433 123.861C236.613 126.789 232.45 124.756 229.299 123.646C225.064 122.106 220.651 123.136 218.475 127.344C218.475 127.397 218.538 127.451 218.574 127.388C219.257 126.098 220.281 125.021 221.534 124.272C222.788 123.524 224.222 123.134 225.682 123.145C228.529 123.199 230.991 124.935 233.739 125.446C235.628 125.795 237.642 125.831 239.173 124.55C239.949 123.767 240.64 122.902 241.232 121.972C242.384 120.447 243.906 119.242 245.655 118.472Z" fill="#263238"/>
<path d="M250.203 117.898C250.203 117.853 250.096 117.898 250.114 117.898C251.412 121.228 252.844 124.621 252.02 128.274C251.125 132.195 247.661 134.979 243.856 135.892C239.594 136.922 236.694 134.236 233.471 131.962C231.134 130.315 228.655 128.847 225.745 128.605C225.656 128.605 225.638 128.739 225.745 128.757C230.221 129.652 233.39 132.49 237.088 134.907C240.105 136.886 243.166 136.895 246.389 135.301C253.471 131.828 253.48 124.2 250.203 117.898Z" fill="#263238"/>
<path d="M253.498 65.6965C253.719 65.6074 253.966 65.6098 254.185 65.703C254.404 65.7961 254.577 65.9725 254.666 66.1933C254.755 66.4142 254.753 66.6613 254.66 66.8804C254.566 67.0995 254.39 67.2726 254.169 67.3616C253.948 67.4507 253.701 67.4484 253.482 67.3552C253.263 67.262 253.09 67.0856 253.001 66.8648C252.912 66.644 252.914 66.3968 253.007 66.1777C253.101 65.9586 253.277 65.7855 253.498 65.6965Z" fill="#FFC727"/>
<path d="M252.147 66.6816C252.368 66.5913 252.615 66.5925 252.835 66.6849C253.055 66.7772 253.229 66.9531 253.32 67.174C253.41 67.3948 253.409 67.6424 253.316 67.8623C253.224 68.0822 253.048 68.2565 252.827 68.3467C252.718 68.3914 252.601 68.4141 252.483 68.4135C252.364 68.413 252.248 68.3891 252.139 68.3434C252.03 68.2977 251.931 68.231 251.848 68.1471C251.765 68.0631 251.699 67.9637 251.654 67.8543C251.61 67.745 251.587 67.6279 251.588 67.5098C251.588 67.3917 251.612 67.2749 251.658 67.166C251.703 67.0571 251.77 66.9582 251.854 66.8751C251.938 66.792 252.037 66.7262 252.147 66.6816Z" fill="#FFC727"/>
<path d="M250.643 67.4416C250.864 67.3526 251.111 67.3549 251.33 67.4481C251.549 67.5412 251.722 67.7176 251.811 67.9385C251.9 68.1593 251.898 68.4064 251.805 68.6255C251.711 68.8446 251.535 69.0177 251.314 69.1067C251.093 69.1958 250.846 69.1935 250.627 69.1003C250.408 69.0071 250.235 68.8307 250.146 68.6099C250.057 68.3891 250.059 68.1419 250.152 67.9228C250.246 67.7037 250.422 67.5306 250.643 67.4416Z" fill="#FFC727"/>
<path d="M249.084 67.9692C249.305 67.8789 249.552 67.8801 249.772 67.9725C249.992 68.0648 250.166 68.2407 250.257 68.4615C250.347 68.6824 250.346 68.93 250.253 69.1499C250.161 69.3698 249.985 69.5441 249.764 69.6343C249.655 69.679 249.538 69.7017 249.42 69.7011C249.302 69.7006 249.185 69.6767 249.076 69.631C248.967 69.5853 248.868 69.5186 248.785 69.4347C248.702 69.3507 248.636 69.2513 248.591 69.1419C248.547 69.0326 248.524 68.9155 248.525 68.7974C248.525 68.6793 248.549 68.5625 248.595 68.4536C248.64 68.3447 248.707 68.2458 248.791 68.1627C248.875 68.0796 248.975 68.0138 249.084 67.9692Z" fill="#FFC727"/>
<path d="M247.429 68.2382C247.649 68.148 247.897 68.1492 248.117 68.2415C248.337 68.3338 248.511 68.5098 248.601 68.7306C248.692 68.9514 248.69 69.199 248.598 69.419C248.506 69.6389 248.33 69.8131 248.109 69.9034C248 69.948 247.883 69.9707 247.764 69.9702C247.646 69.9696 247.53 69.9458 247.421 69.9001C247.312 69.8543 247.213 69.7876 247.13 69.7037C247.047 69.6198 246.981 69.5203 246.936 69.411C246.892 69.3016 246.869 69.1846 246.869 69.0665C246.87 68.9484 246.894 68.8315 246.94 68.7226C246.985 68.6137 247.052 68.5149 247.136 68.4318C247.22 68.3487 247.319 68.2829 247.429 68.2382Z" fill="#FFC727"/>
<path d="M245.781 68.1945C246.002 68.1055 246.249 68.1078 246.468 68.201C246.687 68.2942 246.86 68.4706 246.949 68.6914C247.038 68.9122 247.036 69.1593 246.943 69.3784C246.849 69.5975 246.673 69.7706 246.452 69.8597C246.231 69.9487 245.984 69.9464 245.765 69.8532C245.546 69.76 245.373 69.5836 245.284 69.3628C245.195 69.142 245.197 68.8949 245.29 68.6758C245.384 68.4567 245.56 68.2836 245.781 68.1945Z" fill="#FFC727"/>
</g>
</svg>
