<svg width="343" height="444" viewBox="0 0 343 444" fill="none" xmlns="http://www.w3.org/2000/svg">
<mask id="mask0_703_14320" style="mask-type:alpha" maskUnits="userSpaceOnUse" x="0" y="0" width="343" height="444">
<rect width="343" height="443.192" rx="21" fill="#F3F3F3"/>
</mask>
<g mask="url(#mask0_703_14320)">
<path d="M262.372 133.694V396.609C262.372 404.04 256.806 410.052 249.942 410.052H127.239C120.359 410.052 114.793 404.04 114.793 396.609V133.694C114.793 118.555 120.359 117.816 127.239 117.816H151.822C153.25 117.816 154.418 119.439 154.418 121.451V122.319C154.418 127.033 156.998 127.049 160.162 127.049H217.003C220.199 127.049 222.763 127.049 222.763 122.319V121.451C222.763 119.439 223.915 117.816 225.368 117.816H249.942C256.806 117.816 262.372 119.828 262.372 133.694Z" fill="white"/>
<rect x="153.736" y="215.985" width="95.7353" height="7.30184" rx="3.65092" fill="#CFDAD8"/>
<rect x="127.774" y="265.476" width="120.886" height="7.30184" rx="3.65092" fill="#CFDAD8"/>
<rect x="154.548" y="314.155" width="94.1126" height="7.30184" rx="3.65092" fill="#CFDAD8"/>
<rect x="153.736" y="227.344" width="95.7353" height="7.30184" rx="3.65092" fill="#CFDAD8"/>
<rect x="127.774" y="276.834" width="120.886" height="7.30184" rx="3.65092" fill="#CFDAD8"/>
<rect x="154.548" y="325.513" width="94.1126" height="7.30184" rx="3.65092" fill="#CFDAD8"/>
<rect x="152.925" y="238.702" width="95.7353" height="7.30184" rx="3.65092" fill="#CFDAD8"/>
<rect x="126.963" y="288.193" width="120.886" height="7.30184" rx="3.65092" fill="#CFDAD8"/>
<rect x="153.736" y="336.872" width="94.1126" height="7.30184" rx="3.65092" fill="#CFDAD8"/>
<rect x="166.718" y="366.079" width="81.9429" height="20.2829" rx="7" fill="#0064D2"/>
<path d="M33.832 305.14L23.1795 305.367L17.7761 305.457C15.975 305.497 14.1576 305.457 12.3484 305.505H11.9833V305.14L11.9427 296.062V295.656H12.3484L23.0902 295.705C26.6681 295.705 30.246 295.802 33.832 295.843H34.0511V296.062C34.0511 297.603 33.9781 299.137 33.9456 300.646L33.832 305.14ZM33.832 305.14L33.7185 300.556C33.7185 299.039 33.6211 297.546 33.6049 296.062L33.832 296.281C30.246 296.281 26.6681 296.411 23.0902 296.419L12.3484 296.467L12.7541 296.062L12.7054 305.14L12.3484 304.775C14.1171 304.775 15.8776 304.775 17.6544 304.824L22.9929 304.913L33.832 305.14Z" fill="#EBEBEB"/>
<path d="M21.8487 316.589L11.1962 316.816L5.7928 316.905C3.98356 316.946 2.17433 316.905 0.365093 316.954H0V316.589V307.51V307.105H0.397546L11.1394 307.153C14.7173 307.153 18.2952 307.251 21.8812 307.291H22.1002V307.51C22.1002 309.052 22.0272 310.585 21.9948 312.094L21.8487 316.589ZM21.8487 316.589L21.727 312.005C21.727 310.488 21.6378 308.995 21.6216 307.51L21.8487 307.729C18.2627 307.77 14.6848 307.859 11.1069 307.867L0.397546 307.916L0.795092 307.51L0.722074 316.589L0.365093 316.224C2.13376 316.224 3.89432 316.224 5.6711 316.273L11.0096 316.362L21.8487 316.589Z" fill="#EBEBEB"/>
<path d="M45.8311 316.589L35.1785 316.816L29.7752 316.905C27.974 316.946 26.1567 316.905 24.3475 316.954H23.9905V316.589V307.51V307.105H24.3961L35.138 307.153C38.7159 307.153 42.3019 307.251 45.8798 307.291H46.0988V307.51C46.0988 309.052 46.0339 310.585 45.9934 312.094L45.8311 316.589ZM45.8311 316.589L45.7175 312.005C45.7175 310.488 45.6202 308.995 45.612 307.51L45.8311 307.729C42.2532 307.77 38.6672 307.859 35.0893 307.867L24.3475 307.916L24.7531 307.51L24.6882 316.589L24.3312 316.224C26.0999 316.224 27.8686 316.224 29.6372 316.273L34.9757 316.362L45.8311 316.589Z" fill="#EBEBEB"/>
<path d="M330.822 316.589L320.178 316.816L314.774 316.905C312.965 316.946 311.148 316.905 309.338 316.954H308.981V316.589L308.933 307.51V307.105H309.338L320.08 307.153C323.666 307.153 327.244 307.251 330.822 307.291H331.049V307.51C331.049 309.052 330.976 310.585 330.944 312.094L330.822 316.589ZM330.822 316.589L330.708 312.005C330.708 310.488 330.619 308.995 330.603 307.51L330.822 307.729C327.244 307.77 323.666 307.859 320.08 307.867L309.338 307.916L309.744 307.51L309.703 316.589L309.338 316.224C311.107 316.224 312.876 316.224 314.652 316.273L319.991 316.362L330.822 316.589Z" fill="#EBEBEB"/>
<path d="M330.822 112.761L320.178 112.948L314.774 113.045C312.965 113.045 311.148 113.045 309.338 113.086H308.981V112.729L308.933 103.65V103.236H309.338L320.08 103.285C323.666 103.285 327.244 103.374 330.822 103.415H331.049V103.634C331.049 105.167 330.976 106.701 330.944 108.218L330.822 112.761ZM330.822 112.761L330.708 108.169C330.708 106.66 330.619 105.167 330.603 103.683L330.822 103.902C327.244 103.902 323.666 104.031 320.08 104.031L309.338 104.08L309.744 103.683L309.703 112.761L309.338 112.396C311.107 112.396 312.876 112.396 314.652 112.396L319.991 112.493L330.822 112.761Z" fill="#EBEBEB"/>
<path d="M342.773 124.21L332.128 124.429L326.725 124.527C324.916 124.527 323.106 124.527 321.289 124.527H320.932V124.17L320.883 115.091V114.677H321.289L332.031 114.726C335.617 114.726 339.195 114.815 342.773 114.856H343V115.075C343 116.608 342.927 118.142 342.894 119.659L342.773 124.21ZM342.773 124.21L342.659 119.618C342.659 118.109 342.57 116.616 342.554 115.132L342.773 115.383C339.195 115.383 335.617 115.513 332.031 115.513L321.289 115.562L321.695 115.164L321.678 124.21L321.313 123.845C323.09 123.845 324.851 123.845 326.627 123.845L331.966 123.942L342.773 124.21Z" fill="#EBEBEB"/>
<path d="M21.8487 112.769L11.1962 112.996L5.7928 113.086C3.98356 113.086 2.17433 113.086 0.365093 113.086H0V112.721V103.642V103.236H0.397546L11.1394 103.285C14.7173 103.285 18.2952 103.374 21.8812 103.415H22.1002V103.634C22.1002 105.175 22.0272 106.701 21.9948 108.218L21.8487 112.769ZM21.8487 112.769L21.727 108.177C21.727 106.668 21.6378 105.175 21.6216 103.691L21.8487 103.91C18.2627 103.91 14.6848 104.04 11.1069 104.04L0.397546 104.096L0.795092 103.691L0.722074 112.769L0.397546 112.404C2.16621 112.404 3.92677 112.404 5.70355 112.453L11.042 112.542L21.8487 112.769Z" fill="#EBEBEB"/>
<path d="M71.3717 183.711L82.0242 183.484L87.4276 183.395C89.2368 183.395 91.0461 183.395 92.8553 183.354H93.2204V183.719L93.261 192.798V193.203H92.8878L82.1459 193.155C78.568 193.155 74.9901 193.065 71.4041 193.025H71.1851V192.806C71.1851 191.264 71.2581 189.739 71.2905 188.222L71.3717 183.711ZM71.3717 183.711L71.4934 188.303C71.4934 189.812 71.5826 191.305 71.5988 192.79L71.3717 192.571C74.9577 192.571 78.5356 192.441 82.1135 192.441L92.8553 192.384L92.4497 192.79L92.4983 183.711L92.8553 184.076C91.0866 184.076 89.3261 184.076 87.5493 184.027L82.2108 183.938L71.3717 183.711Z" fill="#EBEBEB"/>
<path d="M270.915 222.087L281.559 221.868L286.962 221.771C288.772 221.771 290.589 221.771 292.398 221.771H292.755V222.136L292.804 231.215V231.628H292.398L281.657 231.58C278.07 231.58 274.493 231.491 270.915 231.45H270.688V231.231C270.688 229.698 270.761 228.164 270.793 226.647L270.915 222.087ZM270.915 222.087L271.028 226.679C271.028 228.188 271.118 229.681 271.134 231.166L270.915 230.947C274.493 230.906 278.07 230.817 281.657 230.817L292.398 230.76L291.993 231.166V222.087L292.358 222.452C290.589 222.452 288.82 222.453 287.044 222.404L281.705 222.315L270.915 222.087Z" fill="#EBEBEB"/>
<path d="M83.3629 172.264L94.0073 172.037L99.4107 171.947C101.22 171.947 103.029 171.947 104.847 171.907H105.203V172.272L105.252 181.35V181.756H104.847L94.1047 181.707C90.5187 181.707 86.9408 181.618 83.3629 181.578H83.1519V181.359C83.1519 179.817 83.2249 178.292 83.2574 176.775L83.3629 172.264ZM83.3629 172.264L83.4764 176.856C83.4764 178.365 83.5657 179.858 83.5819 181.342L83.3629 181.123C86.9408 181.083 90.5187 180.993 94.1047 180.993L104.847 180.937L104.441 181.342V172.264L104.806 172.629C103.029 172.629 101.269 172.629 99.4918 172.58L94.1534 172.491L83.3629 172.264Z" fill="#EBEBEB"/>
<path d="M32.3147 65.8921H31.5034V145.06H32.3147V65.8921Z" fill="#C7C7C7"/>
<path d="M59.3966 171.557L57.1898 176.417H6.62048L4.42181 171.557L25.946 156.653H37.8724L59.3966 171.557Z" fill="#EBEBEB"/>
<path d="M39.3651 142.302L37.8723 156.654H25.9459L24.4531 142.302H39.3651Z" fill="#DBDBDB"/>
<path d="M59.3965 171.558L57.1897 176.418H6.62035L4.41357 171.558H59.3965Z" fill="#DBDBDB"/>
<path d="M91.338 65.8921H90.5267V129.378H91.338V65.8921Z" fill="#C7C7C7"/>
<path d="M118.42 155.876L116.213 160.736H65.6518L63.4451 155.876L84.9693 140.98H96.8956L118.42 155.876Z" fill="#EBEBEB"/>
<path d="M98.3885 126.619L96.8957 140.979H84.9693L83.4765 126.619H98.3885Z" fill="#DBDBDB"/>
<path d="M118.42 155.875L116.213 160.735H65.6437L63.4451 155.875H118.42Z" fill="#DBDBDB"/>
<path d="M171.585 442.885C260.403 442.885 332.404 437.215 332.404 430.22C332.404 423.226 260.403 417.556 171.585 417.556C82.7671 417.556 10.766 423.226 10.766 430.22C10.766 437.215 82.7671 442.885 171.585 442.885Z" fill="#EBEBEB"/>
<path d="M267.32 385.795L276.736 385.6L286.154 385.527L304.986 385.389L323.818 385.527L333.235 385.6L342.651 385.795L333.235 385.998L323.818 386.063L304.986 386.201L286.154 386.063L276.736 385.998L267.32 385.795Z" fill="#263238"/>
<path d="M302.572 249.428C302.572 249.428 283.433 246.75 287.904 223.644C287.904 223.644 309.29 228.447 302.572 249.428Z" fill="#FFC727"/>
<path opacity="0.1" d="M302.572 249.428C302.572 249.428 283.433 246.75 287.904 223.644C287.904 223.644 309.29 228.447 302.572 249.428Z" fill="black"/>
<path d="M301.607 244.609C301.234 243.441 300.796 242.289 300.301 241.161C300.301 241.015 300.301 240.869 300.252 240.723C300.252 240.407 300.196 240.09 300.171 239.774C300.114 239.084 300.074 238.395 300.033 237.705C299.952 236.326 299.863 234.938 299.847 233.559C299.847 233.486 299.725 233.486 299.725 233.559C299.725 234.947 299.725 236.326 299.725 237.713C299.725 238.403 299.79 239.092 299.839 239.782C299.839 239.936 299.839 240.082 299.839 240.236C298.761 237.936 297.477 235.74 296.001 233.673C295.347 232.753 294.649 231.869 293.908 231.02C293.145 230.152 292.334 229.316 291.563 228.456C291.514 228.399 291.433 228.456 291.482 228.537C292.858 230.059 294.093 231.702 295.173 233.446C295.75 234.322 296.301 235.231 296.796 236.147L296.618 236.074L295.936 235.798L294.37 235.206L291.287 234.062C291.23 234.062 291.19 234.143 291.287 234.168C292.31 234.573 293.316 234.979 294.322 235.441L295.806 236.074L296.553 236.383C296.711 236.465 296.881 236.525 297.056 236.561C297.445 237.259 297.867 237.948 298.175 238.662C299.07 240.451 299.853 242.294 300.52 244.179C300.52 244.309 300.609 244.439 300.658 244.577C300.153 244.284 299.627 244.029 299.084 243.814L297.104 242.914C295.766 242.297 294.427 241.672 293.145 240.942C293.08 240.942 293.024 241.015 293.088 241.048C294.403 241.77 295.693 242.532 297.007 243.246C297.664 243.603 298.329 243.952 299.003 244.277C299.562 244.609 300.17 244.852 300.804 244.999C301.442 246.75 301.862 248.573 302.053 250.426C302.272 253.039 302.248 255.676 302.305 258.296C302.305 258.296 302.37 258.296 302.378 258.296C302.565 255.927 302.67 253.526 302.686 251.14C302.674 248.92 302.309 246.716 301.607 244.609Z" fill="#263238"/>
<path d="M298.654 231.019C298.471 232.363 298.409 233.721 298.467 235.076H298.524C298.605 233.721 298.613 232.374 298.767 231.019C298.775 230.971 298.662 230.946 298.654 231.019Z" fill="#263238"/>
<path d="M293.186 232.213C292.337 231.891 291.522 231.486 290.752 231.004C290.695 230.964 290.638 231.069 290.695 231.11C291.464 231.622 292.303 232.021 293.186 232.294C293.197 232.294 293.207 232.29 293.214 232.282C293.222 232.275 293.226 232.264 293.226 232.254C293.226 232.243 293.222 232.233 293.214 232.225C293.207 232.217 293.197 232.213 293.186 232.213Z" fill="#263238"/>
<path d="M303.181 286.117C303.181 283.999 303.124 281.882 303.1 279.772C303.059 272.746 303.002 265.72 302.881 258.678C302.778 253.107 302.648 247.533 302.491 241.957C302.49 241.941 302.485 241.927 302.477 241.914C302.468 241.901 302.456 241.891 302.443 241.884V237.316C302.443 237.275 302.394 237.259 302.353 237.259C302.313 237.259 302.256 237.259 302.256 237.316V241.892C302.256 241.892 302.207 241.932 302.207 241.957C301.931 251.879 301.68 261.81 301.615 271.732C301.615 273.752 301.615 275.789 301.615 277.793C301.55 284.283 301.526 290.755 301.542 297.207V300.299C301.542 306.221 301.607 312.144 301.607 318.058C301.607 318.383 301.956 318.537 302.337 318.553C302.718 318.569 303.221 318.399 303.221 318.034C303.221 311.503 303.27 304.98 303.27 298.449C303.197 294.343 303.213 290.23 303.181 286.117Z" fill="#263238"/>
<path d="M295.189 279.69C295.189 279.69 285.981 272.867 277.243 277.476C268.505 282.084 267.134 299.852 267.134 299.852C267.134 299.852 279.969 301.685 288.05 293.994C295.83 286.57 295.189 279.69 295.189 279.69Z" fill="#FFC727"/>
<path opacity="0.1" d="M295.189 279.69C295.189 279.69 285.981 272.867 277.243 277.476C268.505 282.084 267.134 299.852 267.134 299.852C267.134 299.852 279.969 301.685 288.05 293.994C295.83 286.57 295.189 279.69 295.189 279.69Z" fill="black"/>
<path d="M297.696 280.081C296.005 279.408 294.173 279.168 292.366 279.383C291.993 279.321 291.616 279.283 291.238 279.269L289.94 279.172L287.255 278.985C285.437 278.847 283.62 278.734 281.803 278.555C281.738 278.555 281.73 278.661 281.803 278.669C283.596 278.896 285.38 279.156 287.182 279.334C288.106 279.432 289.031 279.529 289.956 279.594L290.63 279.659C290.354 279.716 290.078 279.781 289.818 279.862C288.372 280.278 286.974 280.846 285.648 281.557C284.926 281.687 284.204 281.89 283.49 282.06C282.354 282.328 281.218 282.62 280.091 282.872C277.851 283.464 275.637 284.121 273.422 284.762C273.407 284.762 273.392 284.768 273.381 284.779C273.371 284.789 273.365 284.804 273.365 284.819C273.365 284.834 273.371 284.848 273.381 284.859C273.392 284.87 273.407 284.876 273.422 284.876C275.637 284.332 277.868 283.837 280.091 283.31L283.336 282.498C283.612 282.425 283.896 282.369 284.147 282.304C281.676 283.832 279.467 285.75 277.608 287.983C275.809 290.182 274.28 292.59 273.057 295.155C273.057 295.22 273.113 295.285 273.154 295.22C274.667 292.585 276.516 290.157 278.655 287.999C278.655 288.121 278.574 288.243 278.541 288.364L278.03 289.987C277.689 291.074 277.34 292.153 277.016 293.232C277.016 293.305 277.105 293.329 277.129 293.232C277.519 292.186 277.884 291.123 278.257 290.068C278.436 289.549 278.622 289.03 278.801 288.518C278.898 288.243 278.987 287.975 279.077 287.707C279.111 287.625 279.141 287.541 279.166 287.456C280.189 286.461 281.272 285.532 282.411 284.673C283.923 283.559 285.556 282.62 287.279 281.874C287.279 282.036 287.222 282.198 287.19 282.344C287.1 282.766 287.003 283.156 286.914 283.602C286.735 284.478 286.565 285.354 286.395 286.222C286.054 288.007 285.835 289.808 285.502 291.593C285.502 291.608 285.508 291.623 285.519 291.633C285.529 291.644 285.544 291.65 285.559 291.65C285.574 291.65 285.588 291.644 285.599 291.633C285.61 291.623 285.616 291.608 285.616 291.593C286.03 289.808 286.557 288.04 286.963 286.247C287.157 285.346 287.36 284.454 287.547 283.553C287.636 283.131 287.717 282.742 287.806 282.287C287.855 282.052 287.904 281.817 287.936 281.582C288.098 281.517 288.261 281.436 288.431 281.379C290.865 280.478 293.518 279.829 296.09 280.324C297.309 280.55 298.452 281.075 299.419 281.851C300.386 282.626 301.146 283.629 301.631 284.77C301.72 284.965 302.037 284.843 301.988 284.64C301.67 283.602 301.117 282.652 300.373 281.861C299.629 281.071 298.713 280.461 297.696 280.081Z" fill="#263238"/>
<path d="M283.604 287.698L282.793 291.195C282.502 292.315 282.288 293.453 282.152 294.602C282.152 294.643 282.217 294.643 282.225 294.602C282.573 293.478 282.844 292.331 283.036 291.17C283.263 290.018 283.482 288.866 283.71 287.714C283.707 287.703 283.702 287.692 283.693 287.684C283.685 287.676 283.674 287.671 283.663 287.669C283.651 287.667 283.639 287.669 283.629 287.674C283.618 287.679 283.61 287.688 283.604 287.698Z" fill="#263238"/>
<path d="M274.704 290.627C273.527 291.227 272.391 291.901 271.166 292.388C271.159 292.391 271.153 292.395 271.148 292.401C271.143 292.406 271.139 292.413 271.136 292.42C271.134 292.427 271.132 292.435 271.133 292.443C271.133 292.45 271.135 292.458 271.138 292.465C271.141 292.472 271.146 292.478 271.151 292.483C271.157 292.488 271.163 292.492 271.171 292.495C271.178 292.497 271.185 292.499 271.193 292.498C271.201 292.498 271.208 292.496 271.215 292.493C272.417 291.949 273.59 291.342 274.728 290.676C274.728 290.676 274.728 290.627 274.704 290.627Z" fill="#263238"/>
<path d="M297.258 267.163C297.258 267.163 286.005 267.877 280.772 260.462C275.539 253.046 276.716 242.442 276.716 242.442C276.716 242.442 288.529 243.878 293.226 249.209C297.924 254.539 297.258 267.163 297.258 267.163Z" fill="#FFC727"/>
<path d="M302.54 278.263C302.15 277.062 301.664 275.87 301.209 274.685C300.755 273.501 300.309 272.43 299.814 271.318C298.808 269.05 297.681 266.838 296.439 264.69C295.627 263.319 294.816 261.996 293.916 260.682C293.916 260.487 293.859 260.284 293.834 260.09C293.778 259.741 293.729 259.392 293.672 259.043C293.559 258.329 293.437 257.615 293.315 256.909C293.064 255.351 292.739 253.81 292.504 252.252C292.504 252.179 292.374 252.179 292.382 252.252C292.609 253.786 292.764 255.327 292.983 256.869C293.088 257.623 293.185 258.378 293.299 259.132C293.34 259.4 293.38 259.676 293.429 259.944C291.709 257.438 289.85 255.03 287.863 252.731C287.595 252.415 287.311 252.114 287.052 251.806C287.052 251.725 286.987 251.636 286.955 251.546C286.865 251.335 286.784 251.125 286.703 250.905L286.216 249.567C285.9 248.682 285.624 247.79 285.405 246.889C285.405 246.816 285.275 246.889 285.291 246.889C285.518 247.814 285.762 248.739 286.03 249.648C286.159 250.086 286.305 250.524 286.46 250.954L286.541 251.173C285.105 249.607 283.604 248.09 282.087 246.597C282.03 246.549 281.957 246.597 282.005 246.687C284.915 249.718 287.582 252.973 289.981 256.422C289.715 256.334 289.444 256.264 289.169 256.211C288.301 256.041 287.433 255.919 286.557 255.806C284.723 255.571 282.898 255.343 281.072 255.051C280.991 255.051 280.967 255.149 281.072 255.165C282.817 255.514 284.545 255.903 286.273 256.301C287.084 256.487 287.896 256.65 288.707 256.812C289.376 256.954 290.035 257.141 290.678 257.372L291.23 258.183C292.041 259.384 292.853 260.617 293.624 261.85L292.471 261.623C291.603 261.453 290.735 261.298 289.859 261.152C288.147 260.877 286.427 260.576 284.731 260.187C284.658 260.187 284.626 260.284 284.731 260.301C286.451 260.706 288.163 261.177 289.867 261.631C290.678 261.85 291.49 262.053 292.358 262.24L293.607 262.507C293.773 262.547 293.941 262.577 294.11 262.597C295.733 265.258 297.272 267.981 298.727 270.766C299.351 271.992 299.96 273.2 300.544 274.474C301.128 275.748 301.656 277.054 302.215 278.352C302.207 278.652 302.629 278.547 302.54 278.263Z" fill="#263238"/>
<path d="M291.019 252.405C290.808 251.326 290.581 250.255 290.346 249.16C290.346 249.087 290.216 249.12 290.232 249.16C290.443 250.215 290.646 251.27 290.841 252.332C290.997 253.392 291.211 254.443 291.482 255.48C291.401 254.446 291.247 253.418 291.019 252.405Z" fill="#263238"/>
<path d="M284.456 252.089C283.937 251.83 283.385 251.619 282.833 251.408L281.981 251.075L281.543 250.905C281.379 250.853 281.221 250.782 281.073 250.694C280.983 250.629 280.935 250.775 281.016 250.791C281.183 250.834 281.344 250.9 281.494 250.986L281.924 251.181L282.736 251.546C283.277 251.797 283.832 252.016 284.399 252.203C284.48 252.227 284.521 252.122 284.456 252.089Z" fill="#263238"/>
<path d="M308.779 258.312C308.779 258.312 315.586 245.59 325.947 243.619C336.307 241.647 342.652 252.316 342.652 252.316C342.652 252.316 335.09 261.963 325.614 263.675C316.138 265.386 308.779 258.312 308.779 258.312Z" fill="#FFC727"/>
<path d="M332.891 249.322C330.196 248.963 327.464 248.996 324.778 249.42L325.241 249.176L327.545 247.992C329.167 247.18 330.741 246.28 332.413 245.614C332.427 245.608 332.437 245.596 332.443 245.582C332.448 245.567 332.447 245.551 332.441 245.537C332.434 245.523 332.423 245.513 332.408 245.507C332.394 245.502 332.378 245.503 332.364 245.509C330.741 246.264 329.07 246.896 327.439 247.643C326.628 248.016 325.817 248.405 325.005 248.827C324.494 249.095 323.926 249.355 323.423 249.679C321.149 250.135 318.939 250.868 316.843 251.862L318.133 250.45C319.099 249.395 320.048 248.284 321.111 247.326C321.168 247.27 321.111 247.188 321.03 247.245C319.943 248.227 318.799 249.136 317.785 250.166C317.273 250.661 316.787 251.172 316.316 251.707C316.073 251.967 315.837 252.243 315.61 252.519C312.054 254.425 308.965 257.095 306.563 260.336C304.162 263.578 302.508 267.311 301.72 271.268C301.72 271.341 301.81 271.382 301.834 271.268C303.292 266.418 305.906 261.993 309.452 258.376C313.261 254.49 318.058 251.716 323.326 250.353C326.453 249.555 329.687 249.26 332.907 249.476C332.917 249.465 332.924 249.453 332.929 249.439C332.933 249.425 332.935 249.41 332.933 249.396C332.932 249.381 332.927 249.367 332.92 249.355C332.913 249.342 332.903 249.331 332.891 249.322Z" fill="#263238"/>
<path opacity="0.1" d="M342.652 252.317C342.652 252.317 335.09 261.963 325.614 263.675C318.361 264.957 312.398 261.176 309.972 259.31L309.453 258.458C309.453 258.458 314.32 254.321 323.634 251.968C332.948 249.615 342.652 252.317 342.652 252.317Z" fill="black"/>
<path d="M326.871 244.787C326.079 245.251 325.313 245.758 324.575 246.304C323.851 246.851 323.18 247.465 322.571 248.138C322.523 248.195 322.571 248.268 322.661 248.219C323.35 247.627 324.04 247.026 324.754 246.459C325.452 245.894 326.18 245.369 326.936 244.885C327.001 244.852 326.936 244.747 326.871 244.787Z" fill="#263238"/>
<path d="M332.559 246.945C332.177 247.099 331.747 247.237 331.399 247.4L330.246 247.878C330.165 247.878 330.206 248.049 330.287 248.016L331.439 247.546L332.591 247.051C332.664 247.026 332.632 246.913 332.559 246.945Z" fill="#263238"/>
<path d="M307.416 274.32C307.416 274.32 309.241 286.944 318.726 291.357C328.21 295.771 339.779 291.357 339.779 291.357C339.779 291.357 335.236 264.057 307.416 274.32Z" fill="#FFC727"/>
<path opacity="0.1" d="M307.416 274.32C307.416 274.32 309.241 286.944 318.726 291.357C328.21 295.771 339.779 291.357 339.779 291.357C339.779 291.357 335.236 264.057 307.416 274.32Z" fill="black"/>
<path d="M333.248 283.147C332.372 283.05 331.496 282.896 330.636 282.742L329.362 282.498L328.689 282.368C328.437 282.125 328.186 281.882 327.926 281.654C326.123 280.075 324.179 278.666 322.117 277.444C320.994 276.783 319.835 276.187 318.644 275.659H318.823L321.946 275.797C324.023 275.894 326.109 275.943 328.194 276.073C328.267 276.073 328.259 275.959 328.194 275.959C326.109 275.813 324.032 275.586 321.938 275.407L318.904 275.14L317.346 275.002L316.941 274.961C316.405 274.758 315.862 274.564 315.318 274.393C312.731 273.505 309.948 273.351 307.278 273.947C304.893 274.564 302.507 276.129 301.891 278.644C301.891 278.726 302.004 278.79 302.037 278.701C302.929 276.6 305.282 275.537 307.375 275.099C308.791 274.829 310.242 274.801 311.667 275.018C311.766 275.667 311.926 276.305 312.146 276.924C312.414 277.817 312.673 278.701 312.957 279.586C313.493 281.362 314.085 283.115 314.58 284.892C314.576 284.9 314.575 284.91 314.576 284.919C314.577 284.928 314.58 284.937 314.585 284.945C314.591 284.952 314.598 284.958 314.606 284.963C314.614 284.967 314.623 284.969 314.632 284.969C314.642 284.969 314.651 284.967 314.659 284.963C314.667 284.958 314.674 284.952 314.679 284.945C314.685 284.937 314.688 284.928 314.689 284.919C314.69 284.91 314.689 284.9 314.685 284.892C314.247 283.123 313.874 281.33 313.452 279.561C313.241 278.685 313.022 277.817 312.803 276.949C312.683 276.341 312.523 275.742 312.324 275.156C313.146 275.303 313.958 275.495 314.758 275.732C316.224 276.167 317.66 276.696 319.058 277.314C319.196 278.214 319.399 279.099 319.602 279.991C319.861 281.103 320.153 282.206 320.502 283.293C320.499 283.302 320.498 283.311 320.499 283.32C320.5 283.33 320.503 283.339 320.508 283.346C320.513 283.354 320.52 283.36 320.528 283.365C320.537 283.369 320.546 283.371 320.555 283.371C320.564 283.371 320.573 283.369 320.582 283.365C320.59 283.36 320.597 283.354 320.602 283.346C320.607 283.339 320.611 283.33 320.612 283.32C320.613 283.311 320.611 283.302 320.608 283.293C320.598 283.225 320.585 283.157 320.567 283.09C320.356 282.06 320.129 281.038 319.91 279.999C319.732 279.188 319.569 278.336 319.391 277.509C320.572 278.032 321.726 278.617 322.847 279.261C322.847 279.513 322.936 279.78 322.977 280.016C323.042 280.446 323.123 280.876 323.196 281.306C323.374 282.279 323.569 283.253 323.804 284.218C324.232 286.078 324.774 287.91 325.427 289.703C325.42 289.713 325.416 289.726 325.416 289.739C325.416 289.752 325.42 289.765 325.427 289.776L325.484 289.841C325.524 289.889 325.589 289.841 325.581 289.776C325.143 287.91 324.64 286.052 324.226 284.178C324.023 283.245 323.821 282.303 323.626 281.362L323.358 279.951C323.358 279.821 323.318 279.675 323.293 279.529C324.571 280.266 325.804 281.079 326.985 281.963C329.04 283.495 330.942 285.223 332.664 287.123C332.729 287.196 332.859 287.123 332.802 287.009C332.095 286.052 331.339 285.131 330.538 284.251C330.06 283.74 329.565 283.245 329.062 282.758H329.216L330.555 282.961C331.431 283.074 332.315 283.163 333.191 283.261C333.289 283.269 333.321 283.155 333.248 283.147Z" fill="#263238"/>
<path d="M326.547 287.422C326.547 287.317 326.547 287.203 326.49 287.098C326.433 286.992 326.393 286.822 326.376 286.684C326.182 285.873 326.019 284.988 325.865 284.137C325.865 284.08 325.76 284.096 325.768 284.137C325.824 285.267 326.068 286.38 326.49 287.431H326.555L326.547 287.422Z" fill="#263238"/>
<path d="M318.636 287.219C318.635 287.205 318.628 287.193 318.617 287.184C318.607 287.175 318.593 287.17 318.58 287.17C318.312 286.051 318.052 284.931 317.825 283.811C317.703 283.219 317.582 282.627 317.468 282.035C317.403 281.71 317.346 281.394 317.29 281.077C317.264 280.798 317.195 280.525 317.087 280.266C317.083 280.255 317.075 280.246 317.066 280.24C317.057 280.234 317.045 280.23 317.034 280.23C317.023 280.23 317.012 280.234 317.002 280.24C316.993 280.246 316.986 280.255 316.981 280.266C316.971 280.837 317.051 281.407 317.217 281.953C317.33 282.57 317.452 283.187 317.59 283.795C317.866 285.045 318.174 286.286 318.531 287.511C318.536 287.523 318.544 287.534 318.555 287.542C318.566 287.549 318.579 287.553 318.592 287.553C318.605 287.553 318.618 287.549 318.629 287.542C318.64 287.534 318.648 287.523 318.653 287.511C318.645 287.381 318.645 287.316 318.636 287.219Z" fill="#263238"/>
<path d="M332.38 279.511C330.644 279.276 328.916 279.025 327.18 278.814C327.107 278.814 327.074 278.919 327.18 278.927C328.916 279.179 330.652 279.398 332.38 279.625C332.429 279.633 332.453 279.52 332.38 279.511Z" fill="#263238"/>
<path d="M302.556 244.731C302.556 244.731 296.747 219.231 324.113 208.944C324.113 208.944 331.699 242.476 302.556 244.731Z" fill="#FFC727"/>
<path d="M308.463 230.281L308.755 230.103L310.304 229.235L313.477 227.466C315.57 226.298 317.631 225.081 319.732 223.937C319.739 223.934 319.746 223.929 319.751 223.923C319.757 223.917 319.761 223.91 319.764 223.903C319.766 223.895 319.767 223.887 319.766 223.879C319.765 223.871 319.763 223.863 319.759 223.856C319.755 223.849 319.749 223.843 319.743 223.838C319.736 223.834 319.729 223.831 319.721 223.829C319.713 223.827 319.705 223.828 319.697 223.829C319.689 223.831 319.682 223.835 319.675 223.84C317.566 224.984 315.424 226.055 313.298 227.174L310.167 228.797L308.885 229.478C309.793 227.75 310.775 226.046 311.846 224.416C313.274 222.233 314.84 220.156 316.47 218.12C316.543 218.031 316.422 217.909 316.341 217.99C313.937 220.321 311.813 222.924 310.012 225.746C310.012 225.657 310.012 225.568 310.012 225.487C310.012 224.854 310.053 224.221 310.069 223.58C310.069 222.339 310.029 221.097 310.069 219.856C310.069 219.849 310.068 219.841 310.065 219.834C310.062 219.827 310.058 219.821 310.053 219.816C310.047 219.811 310.041 219.806 310.034 219.804C310.027 219.801 310.02 219.799 310.012 219.799C310.005 219.799 309.998 219.801 309.991 219.804C309.984 219.806 309.977 219.811 309.972 219.816C309.967 219.821 309.963 219.827 309.96 219.834C309.957 219.841 309.956 219.849 309.956 219.856C309.899 221.081 309.753 222.29 309.688 223.523C309.647 224.132 309.623 224.74 309.607 225.357C309.607 225.681 309.566 226.063 309.607 226.42C309.047 227.32 308.503 228.229 307.984 229.154C307.069 230.812 306.256 232.524 305.55 234.281C305.55 233.648 305.477 233.016 305.445 232.375C305.364 230.987 305.193 229.592 305.136 228.196C305.132 228.184 305.123 228.173 305.113 228.166C305.102 228.158 305.089 228.154 305.076 228.154C305.062 228.154 305.049 228.158 305.038 228.166C305.028 228.173 305.019 228.184 305.015 228.196C305.015 229.592 305.015 230.987 305.015 232.383C305.015 233.081 305.055 233.778 305.104 234.468L305.153 235.279C304.279 237.555 303.587 239.896 303.084 242.281C302.613 244.825 302.274 247.393 302.07 249.972C302.07 249.972 302.07 249.972 302.07 249.972C302.362 247.65 302.848 245.357 303.522 243.116C303.863 241.916 304.22 240.683 304.601 239.53C305.745 238.995 306.832 238.322 307.935 237.713C309.039 237.105 310.223 236.464 311.367 235.839C313.647 234.581 315.927 233.308 318.288 232.204C318.353 232.204 318.288 232.074 318.223 232.099C315.838 233.186 313.436 234.208 311.091 235.344C309.923 235.936 308.779 236.561 307.643 237.202C306.694 237.737 305.712 238.273 304.804 238.89C305.071 238.078 305.347 237.307 305.615 236.52C306.483 234.435 307.416 232.334 308.463 230.281Z" fill="#263238"/>
<path d="M306.159 224.457C306.154 224.444 306.146 224.434 306.135 224.426C306.124 224.419 306.111 224.415 306.098 224.415C306.085 224.415 306.072 224.419 306.061 224.426C306.05 224.434 306.042 224.444 306.037 224.457C306.142 225.909 306.191 227.361 306.345 228.806C306.345 228.887 306.475 228.887 306.467 228.806C306.418 227.345 306.264 225.909 306.159 224.457Z" fill="#263238"/>
<path d="M319.245 229.325C317.533 230.014 315.805 230.671 314.101 231.377C314.053 231.377 314.101 231.475 314.101 231.458C315.829 230.809 317.533 230.103 319.253 229.438C319.383 229.406 319.35 229.292 319.245 229.325Z" fill="#263238"/>
<path d="M321.882 217.609C320.204 218.373 318.578 219.246 317.014 220.222C317.003 220.225 316.994 220.231 316.986 220.238C316.978 220.246 316.971 220.255 316.968 220.265C316.964 220.276 316.962 220.287 316.963 220.298C316.964 220.309 316.967 220.319 316.973 220.329C316.979 220.338 316.987 220.346 316.996 220.352C317.005 220.358 317.016 220.362 317.027 220.364C317.038 220.365 317.049 220.364 317.059 220.36C317.07 220.357 317.079 220.351 317.087 220.343C318.71 219.41 320.332 218.526 321.955 217.706C322.012 217.609 321.947 217.544 321.882 217.609Z" fill="#263238"/>
<path d="M321.468 299.811H281.997V341.416H321.468V299.811Z" fill="#455A64"/>
<path d="M281.3 314.537H279.28V385.803H281.3V314.537Z" fill="#263238"/>
<path d="M323.975 314.537H321.955V385.803H323.975V314.537Z" fill="#263238"/>
<path d="M303.708 314.537H301.688V385.803H303.708V314.537Z" fill="#263238"/>
<path d="M322.961 338.747H280.294V344.507H322.961V338.747Z" fill="#263238"/>
<path d="M257.025 108.64H119.864C118.025 108.657 116.208 109.036 114.515 109.755C112.823 110.475 111.288 111.52 110 112.833C108.712 114.145 107.695 115.698 107.007 117.404C106.319 119.109 105.973 120.934 105.991 122.773V405.111C105.958 408.824 107.401 412.398 110.003 415.048C112.604 417.698 116.151 419.207 119.864 419.244H257.025C260.74 419.207 264.289 417.699 266.892 415.049C269.496 412.4 270.943 408.826 270.915 405.111V122.773C270.945 119.057 269.499 115.482 266.895 112.832C264.29 110.182 260.741 108.674 257.025 108.64ZM262.234 396.389C262.234 403.821 256.668 409.833 249.804 409.833H127.101C120.221 409.833 114.655 403.821 114.655 396.389V133.474C114.655 118.335 120.221 117.597 127.101 117.597H151.684C153.112 117.597 154.28 119.219 154.28 121.231V122.099C154.28 126.813 156.86 126.829 160.024 126.829H216.865C220.062 126.829 222.625 126.829 222.625 122.099V121.231C222.625 119.219 223.777 117.597 225.23 117.597H249.804C256.668 117.597 262.234 119.609 262.234 133.474V396.389Z" fill="#263238"/>
<path d="M262.234 133.473V187.418H114.655V133.473C114.655 118.334 120.221 117.596 127.101 117.596H151.684C153.112 117.596 154.28 119.218 154.28 121.23V122.099C154.28 126.812 156.86 126.828 160.024 126.828H216.865C220.062 126.828 222.625 126.828 222.625 122.099V121.23C222.625 119.218 223.777 117.596 225.23 117.596H249.804C256.668 117.596 262.234 119.608 262.234 133.473Z" fill="#0064D2"/>
<path d="M147.433 123.495L147.198 123.73L147.068 123.868C146.46 123.261 145.635 122.92 144.776 122.92C143.917 122.92 143.092 123.261 142.484 123.868L142.378 123.738L142.151 123.503C142.249 123.414 142.346 123.324 142.451 123.243C142.92 122.858 143.478 122.598 144.074 122.489C144.228 122.489 144.382 122.489 144.537 122.424C144.691 122.359 144.926 122.424 144.934 122.424H145.251C145.528 122.461 145.8 122.529 146.062 122.627C146.259 122.699 146.449 122.789 146.63 122.894C146.823 123.007 147.007 123.135 147.181 123.276L147.425 123.503L147.433 123.495Z" fill="white"/>
<path d="M143.238 124.623L142.865 124.249C143.269 123.816 143.806 123.531 144.39 123.438C144.806 123.377 145.23 123.414 145.629 123.546C146.028 123.679 146.39 123.903 146.686 124.201L146.313 124.574C145.906 124.166 145.352 123.937 144.776 123.937C144.199 123.937 143.646 124.166 143.238 124.574V124.623Z" fill="white"/>
<path d="M145.932 124.996L145.559 125.369C145.453 125.262 145.327 125.178 145.187 125.122C145.048 125.066 144.898 125.04 144.748 125.045C144.597 125.041 144.448 125.068 144.309 125.124C144.169 125.18 144.042 125.263 143.936 125.369L143.571 124.996C143.723 124.835 143.906 124.707 144.109 124.62C144.312 124.532 144.53 124.487 144.752 124.487C144.973 124.487 145.191 124.532 145.394 124.62C145.597 124.707 145.78 124.835 145.932 124.996Z" fill="white"/>
<path d="M145.113 125.71C145.113 125.777 145.093 125.843 145.055 125.899C145.018 125.955 144.965 125.999 144.902 126.025C144.84 126.05 144.771 126.057 144.705 126.044C144.639 126.031 144.579 125.998 144.531 125.951C144.483 125.903 144.451 125.842 144.438 125.776C144.424 125.71 144.431 125.642 144.457 125.579C144.483 125.517 144.526 125.464 144.583 125.427C144.639 125.389 144.704 125.369 144.772 125.369C144.862 125.369 144.949 125.405 145.013 125.469C145.077 125.533 145.113 125.62 145.113 125.71Z" fill="white"/>
<path d="M124.277 124.217C124.277 124.023 124.335 123.833 124.443 123.672C124.551 123.51 124.704 123.384 124.883 123.31C125.063 123.236 125.26 123.216 125.451 123.254C125.641 123.292 125.816 123.386 125.953 123.523C126.091 123.66 126.184 123.835 126.222 124.026C126.26 124.216 126.24 124.413 126.166 124.593C126.092 124.772 125.966 124.925 125.804 125.033C125.643 125.141 125.453 125.199 125.259 125.199C124.999 125.199 124.749 125.095 124.565 124.911C124.381 124.727 124.277 124.477 124.277 124.217Z" fill="white"/>
<path d="M127.361 124.217C127.361 124.023 127.419 123.832 127.527 123.671C127.635 123.509 127.789 123.383 127.969 123.309C128.149 123.235 128.346 123.216 128.537 123.255C128.728 123.293 128.903 123.388 129.039 123.526C129.176 123.664 129.269 123.84 129.306 124.031C129.343 124.221 129.323 124.419 129.247 124.598C129.172 124.778 129.044 124.93 128.882 125.037C128.719 125.144 128.529 125.2 128.334 125.199C128.206 125.199 128.079 125.173 127.96 125.124C127.841 125.074 127.734 125.002 127.643 124.911C127.553 124.819 127.481 124.711 127.433 124.592C127.384 124.473 127.36 124.346 127.361 124.217Z" fill="white"/>
<path d="M130.436 124.217C130.436 124.023 130.493 123.833 130.601 123.672C130.709 123.51 130.862 123.384 131.042 123.31C131.221 123.236 131.419 123.216 131.609 123.254C131.799 123.292 131.974 123.386 132.112 123.523C132.249 123.66 132.342 123.835 132.38 124.026C132.418 124.216 132.399 124.413 132.324 124.593C132.25 124.772 132.124 124.925 131.963 125.033C131.801 125.141 131.612 125.199 131.417 125.199C131.157 125.199 130.907 125.095 130.723 124.911C130.539 124.727 130.436 124.477 130.436 124.217Z" fill="white"/>
<path d="M133.518 124.217C133.518 124.023 133.576 123.833 133.684 123.672C133.792 123.51 133.945 123.384 134.125 123.31C134.304 123.236 134.501 123.216 134.692 123.254C134.882 123.292 135.057 123.386 135.194 123.523C135.332 123.66 135.425 123.835 135.463 124.026C135.501 124.216 135.481 124.413 135.407 124.593C135.333 124.772 135.207 124.925 135.046 125.033C134.884 125.141 134.694 125.199 134.5 125.199C134.24 125.199 133.99 125.095 133.806 124.911C133.622 124.727 133.518 124.477 133.518 124.217Z" fill="white"/>
<path d="M136.601 124.217C136.601 124.023 136.659 123.832 136.767 123.671C136.876 123.509 137.029 123.383 137.209 123.309C137.389 123.235 137.587 123.216 137.778 123.255C137.968 123.293 138.143 123.388 138.28 123.526C138.417 123.664 138.51 123.84 138.547 124.031C138.584 124.221 138.563 124.419 138.488 124.598C138.412 124.778 138.285 124.93 138.123 125.037C137.96 125.144 137.769 125.2 137.575 125.199C137.446 125.199 137.319 125.173 137.201 125.124C137.082 125.074 136.974 125.002 136.884 124.911C136.793 124.819 136.722 124.711 136.673 124.592C136.625 124.473 136.6 124.346 136.601 124.217Z" fill="white"/>
<path d="M251.159 126.351H243.2V122.684H251.159V126.351ZM243.606 125.946H250.754V123.074H243.606V125.946Z" fill="white"/>
<path d="M248.993 123.292H243.858V125.726H248.993V123.292Z" fill="white"/>
<path d="M251.873 123.527H251.168V125.498H251.873V123.527Z" fill="white"/>
<path d="M196.201 120.94H180.697C180.571 120.94 180.447 120.915 180.33 120.867C180.214 120.819 180.109 120.748 180.02 120.659C179.931 120.57 179.86 120.465 179.812 120.349C179.764 120.232 179.739 120.108 179.739 119.982C179.739 119.857 179.764 119.732 179.812 119.616C179.86 119.5 179.931 119.394 180.02 119.305C180.109 119.216 180.214 119.146 180.33 119.098C180.447 119.05 180.571 119.025 180.697 119.025H196.201C196.327 119.025 196.451 119.05 196.567 119.098C196.684 119.146 196.789 119.216 196.878 119.305C196.967 119.394 197.037 119.5 197.085 119.616C197.134 119.732 197.158 119.857 197.158 119.982C197.158 120.108 197.134 120.232 197.085 120.349C197.037 120.465 196.967 120.57 196.878 120.659C196.789 120.748 196.684 120.819 196.567 120.867C196.451 120.915 196.327 120.94 196.201 120.94Z" fill="white"/>
<path d="M121.933 189.123C121.475 193.388 119.347 197.298 116.014 199.998C112.682 202.698 108.416 203.969 104.149 203.532C100.692 203.18 97.4428 201.714 94.8918 199.354L86.7787 200.547L90.8353 193.545C89.8779 191.258 89.4576 188.781 89.6065 186.306C89.7555 183.831 90.4698 181.422 91.6945 179.266C92.9193 177.11 94.6219 175.263 96.6717 173.868C98.7214 172.472 101.064 171.565 103.519 171.216C105.974 170.867 108.476 171.085 110.834 171.854C113.191 172.622 115.341 173.921 117.119 175.65C118.896 177.38 120.253 179.493 121.087 181.829C121.92 184.164 122.207 186.66 121.925 189.123H121.933Z" fill="white"/>
<path d="M121.933 189.124C121.625 192.104 120.502 194.942 118.688 197.327C117.795 198.525 116.725 199.581 115.515 200.458C114.325 201.365 113.011 202.097 111.613 202.633C110.213 203.18 108.744 203.529 107.248 203.671C106.501 203.74 105.75 203.756 105.001 203.72C104.249 203.698 103.501 203.619 102.761 203.484C99.7772 202.936 97.0044 201.568 94.7538 199.533L94.9485 199.59L86.8354 200.831L86.2431 200.921L86.5433 200.401L90.5999 193.392V193.667C89.6501 191.347 89.2461 188.84 89.4191 186.339C89.5922 183.838 90.3376 181.41 91.5978 179.242C92.8584 177.081 94.592 175.234 96.6685 173.839C98.7415 172.468 101.098 171.584 103.56 171.253C106.023 170.921 108.529 171.151 110.891 171.924C113.233 172.718 115.368 174.027 117.138 175.754C118.895 177.476 120.239 179.573 121.069 181.889C121.9 184.204 122.195 186.678 121.933 189.124ZM121.933 189.124C122.191 186.686 121.886 184.221 121.041 181.919C120.197 179.618 118.835 177.54 117.062 175.848C115.288 174.155 113.15 172.891 110.811 172.155C108.473 171.419 105.996 171.229 103.573 171.6C101.175 171.961 98.8906 172.865 96.8957 174.245C94.9063 175.628 93.2447 177.431 92.0278 179.526C90.831 181.623 90.1263 183.965 89.967 186.374C89.82 188.78 90.2108 191.188 91.111 193.424L91.1678 193.57L91.0867 193.7L87.0301 200.693L86.738 200.263L94.8512 199.128H94.9647L95.0459 199.201C97.2069 201.226 99.8902 202.609 102.794 203.192C103.518 203.342 104.254 203.431 104.993 203.46C105.73 203.513 106.47 203.513 107.208 203.46C108.686 203.344 110.141 203.025 111.532 202.511C112.931 202.006 114.246 201.295 115.434 200.401C116.035 199.954 116.606 199.469 117.146 198.949C117.672 198.425 118.162 197.867 118.615 197.278C120.451 194.918 121.599 192.096 121.933 189.124Z" fill="#263238"/>
<path d="M103.938 196.669L97.0255 189.667L99.3459 187.371L103.386 191.46L111.775 178.309L114.534 180.061L103.938 196.669Z" fill="#FFC727"/>
<path d="M54.9669 323.672H58.1067L58.1067 276.786H54.9669L54.9669 323.672Z" fill="#DBDBDB"/>
<path d="M23.7312 323.672H26.871L26.871 276.786H23.7312L23.7312 323.672Z" fill="#DBDBDB"/>
<path d="M53.7338 280.478H59.1858V273.249H53.7338V280.478Z" fill="#263238"/>
<path d="M22.571 280.478H28.023V273.249H22.571V280.478Z" fill="#263238"/>
<path d="M22.5712 271.415V276.867H30.3841L31.9175 277.954H49.8395L51.3729 276.867H59.1777V271.415H51.3729L49.8395 272.502H31.9175L30.3841 271.415H22.5712Z" fill="#263238"/>
<path d="M6.49909 421.379H75.3392L75.3392 323.672H6.49909L6.49909 421.379Z" fill="#FFC727"/>
<path opacity="0.1" d="M6.49909 421.379H75.3392L75.3392 323.672H6.49909L6.49909 421.379Z" fill="black"/>
<path d="M14.0524 413.817H67.7859L67.7859 331.225H14.0524L14.0524 413.817Z" fill="#FFC727"/>
<g opacity="0.1">
<path opacity="0.1" d="M61.8958 334.745C61.7498 341.04 61.6849 347.336 61.6281 353.632L61.5469 372.519L61.6281 391.407L61.7254 400.851L61.8958 410.302L62.0743 400.851L62.1716 391.407L62.2528 372.519L62.1716 353.632C62.1149 347.336 62.0581 341.04 61.8958 334.745Z" fill="black"/>
<path opacity="0.1" d="M54.9426 334.745C54.7966 341.04 54.7317 347.336 54.6749 353.632L54.5938 372.519L54.6749 391.407L54.7722 400.851L54.9426 410.302L55.1211 400.851L55.2185 391.407L55.2996 372.519L55.2185 353.632C55.1617 347.336 55.0887 341.04 54.9426 334.745Z" fill="black"/>
<path opacity="0.1" d="M47.9895 334.745C47.8435 341.04 47.7786 347.336 47.7218 353.632L47.6326 372.519L47.7137 391.407L47.8192 400.851L47.9895 410.302L48.1599 400.851L48.2654 391.407L48.3465 372.519L48.2654 353.632C48.2005 347.336 48.1356 341.04 47.9895 334.745Z" fill="black"/>
<path opacity="0.1" d="M41.0367 334.745C40.8907 341.04 40.8177 347.336 40.7609 353.632L40.6797 372.519L40.7609 391.407L40.8582 400.851L41.0367 410.302L41.2071 400.851L41.3045 391.407L41.3856 372.519L41.3045 353.632C41.2477 347.336 41.1828 341.04 41.0367 334.745Z" fill="black"/>
<path opacity="0.1" d="M34.0838 334.745C33.9377 341.04 33.8647 347.336 33.8079 353.632L33.7268 372.519L33.8079 391.407L33.9053 400.851L34.0838 410.302L34.2542 400.851L34.3515 391.407L34.4326 372.519L34.3515 353.632C34.2947 347.336 34.2298 341.04 34.0838 334.745Z" fill="black"/>
<path opacity="0.1" d="M27.1225 334.745C26.9764 341.04 26.9115 347.336 26.8548 353.632L26.7736 372.519L26.8548 391.407L26.9521 400.851L27.1225 410.302L27.301 400.851L27.3983 391.407L27.4795 372.519L27.3983 353.632C27.3415 347.336 27.2685 341.04 27.1225 334.745Z" fill="black"/>
<path opacity="0.1" d="M20.1697 334.745C20.0237 341.04 19.9588 347.336 19.902 353.632L19.8209 372.519L19.902 391.407L19.9994 400.851L20.1697 410.302L20.3482 400.851L20.4456 391.407L20.5267 372.519L20.4456 353.632C20.3888 347.336 20.3158 341.04 20.1697 334.745Z" fill="black"/>
</g>
<path d="M75.3389 413.858H62.3741L57.1817 421.379H75.3389V413.858Z" fill="#263238"/>
<path d="M6.49902 413.858H19.4638L24.6482 421.379H6.49902V413.858Z" fill="#263238"/>
<path d="M75.3392 346.283L78.9577 345.569V337.464L75.3392 336.758V346.283Z" fill="#263238"/>
<path d="M75.3392 408.283L78.9577 407.578V399.473L75.3392 398.759V408.283Z" fill="#263238"/>
<path d="M0.519531 372.521C0.519531 387.376 4.138 396.487 4.138 396.487H6.49893V382.695H3.50517V362.307H6.49893V348.514H4.138C4.138 348.514 0.519531 357.666 0.519531 372.521Z" fill="#263238"/>
<path d="M2.67767 391.563C3.05994 393.234 3.5477 394.879 4.13804 396.488H6.49897V391.563H2.67767Z" fill="#DBDBDB"/>
<path d="M2.67767 353.48H6.49897V348.555H4.13804C3.5477 350.164 3.05994 351.809 2.67767 353.48Z" fill="#DBDBDB"/>
<path d="M40.566 318.399C25.7108 318.399 22.2627 322.017 22.2627 322.017V323.64H31.0574V321.36H50.0665V323.64H59.567V322.017C59.567 322.017 55.4131 318.399 40.566 318.399Z" fill="#263238"/>
<path d="M67.1772 427.407H70.3819L72.5075 421.379H65.5789L67.5666 424.397L67.1772 427.407Z" fill="#263238"/>
<path d="M64.1995 429.241C64.1995 430.115 64.4589 430.97 64.9447 431.697C65.4306 432.424 66.1211 432.991 66.9291 433.326C67.7371 433.661 68.6261 433.748 69.4838 433.577C70.3416 433.407 71.1294 432.986 71.7478 432.367C72.3662 431.749 72.7873 430.961 72.9579 430.103C73.1285 429.246 73.041 428.357 72.7063 427.549C72.3716 426.741 71.8049 426.05 71.0778 425.564C70.3506 425.078 69.4957 424.819 68.6212 424.819C68.0402 424.818 67.4648 424.932 66.9278 425.153C66.3909 425.375 65.903 425.701 65.4922 426.112C65.0814 426.523 64.7558 427.01 64.5339 427.547C64.3121 428.084 64.1985 428.66 64.1995 429.241Z" fill="#263238"/>
<path d="M68.6213 431.657C69.9566 431.657 71.0391 430.575 71.0391 429.24C71.0391 427.904 69.9566 426.822 68.6213 426.822C67.2861 426.822 66.2036 427.904 66.2036 429.24C66.2036 430.575 67.2861 431.657 68.6213 431.657Z" fill="#DBDBDB"/>
<path d="M68.5485 427.74C68.5485 428.089 68.5485 428.373 68.6377 428.373C68.727 428.373 68.7351 428.089 68.7351 427.74C68.7351 427.391 68.6864 427.115 68.6377 427.115C68.589 427.115 68.5485 427.423 68.5485 427.74Z" fill="#263238"/>
<path d="M69.6195 428.169C69.3761 428.413 69.2057 428.64 69.2382 428.68C69.2706 428.721 69.5059 428.543 69.7493 428.299C69.9927 428.056 70.1631 427.829 70.1306 427.788C70.0981 427.747 69.8629 427.926 69.6195 428.169Z" fill="#263238"/>
<path d="M70.082 429.369C70.427 429.369 70.7067 429.329 70.7067 429.28C70.7067 429.231 70.427 429.191 70.082 429.191C69.737 429.191 69.4573 429.231 69.4573 429.28C69.4573 429.329 69.737 429.369 70.082 429.369Z" fill="#263238"/>
<path d="M69.6843 430.239C69.4409 429.995 69.2137 429.825 69.1812 429.857C69.1488 429.89 69.3111 430.125 69.5545 430.368C69.7978 430.612 70.0331 430.782 70.0656 430.75C70.098 430.717 69.9358 430.482 69.6843 430.239Z" fill="#263238"/>
<path d="M68.5727 431.325C68.622 431.325 68.6619 431.045 68.6619 430.7C68.6619 430.355 68.622 430.075 68.5727 430.075C68.5234 430.075 68.4835 430.355 68.4835 430.7C68.4835 431.045 68.5234 431.325 68.5727 431.325Z" fill="#263238"/>
<path d="M67.6151 430.303C67.8666 430.06 68.0289 429.833 67.9964 429.8C67.964 429.768 67.7287 429.93 67.4853 430.173C67.2419 430.417 67.0715 430.652 67.104 430.685C67.1365 430.717 67.3717 430.555 67.6151 430.303Z" fill="#263238"/>
<path d="M67.1528 429.289C67.5017 429.289 67.7856 429.248 67.7856 429.191C67.7856 429.135 67.5017 429.102 67.1528 429.102C66.8039 429.102 66.5281 429.143 66.5281 429.191C66.5281 429.24 66.8039 429.289 67.1528 429.289Z" fill="#263238"/>
<path d="M67.5507 428.234C67.794 428.485 68.0212 428.648 68.0618 428.615C68.1023 428.583 67.9239 428.347 67.6805 428.104C67.4371 427.861 67.2099 427.69 67.1693 427.723C67.1288 427.755 67.3073 427.99 67.5507 428.234Z" fill="#263238"/>
<path d="M14.6606 427.407H11.4559L9.33026 421.379H16.2508L14.2712 424.397L14.6606 427.407Z" fill="#263238"/>
<path d="M17.6384 429.241C17.6384 430.115 17.3791 430.97 16.8933 431.697C16.4074 432.424 15.7168 432.991 14.9089 433.326C14.1009 433.661 13.2119 433.748 12.3542 433.577C11.4964 433.407 10.7086 432.986 10.0902 432.367C9.4718 431.749 9.05068 430.961 8.88007 430.103C8.70946 429.246 8.79702 428.357 9.13169 427.549C9.46635 426.741 10.0331 426.05 10.7602 425.564C11.4874 425.078 12.3423 424.819 13.2168 424.819C13.7977 424.818 14.3732 424.932 14.9101 425.153C15.4471 425.375 15.935 425.701 16.3458 426.112C16.7566 426.523 17.0822 427.01 17.304 427.547C17.5259 428.084 17.6395 428.66 17.6384 429.241Z" fill="#263238"/>
<path d="M15.6343 429.24C15.6343 429.721 15.4915 430.192 15.2241 430.592C14.9566 430.993 14.5765 431.305 14.1317 431.489C13.687 431.673 13.1976 431.721 12.7255 431.627C12.2533 431.533 11.8196 431.302 11.4792 430.961C11.1389 430.621 10.907 430.187 10.8131 429.715C10.7192 429.243 10.7674 428.753 10.9516 428.309C11.1359 427.864 11.4478 427.484 11.8481 427.216C12.2483 426.949 12.7189 426.806 13.2003 426.806C13.8458 426.806 14.4649 427.063 14.9214 427.519C15.3778 427.975 15.6343 428.595 15.6343 429.24Z" fill="#DBDBDB"/>
<path d="M13.168 428.396C13.2173 428.396 13.2572 428.116 13.2572 427.771C13.2572 427.426 13.2173 427.147 13.168 427.147C13.1187 427.147 13.0787 427.426 13.0787 427.771C13.0787 428.116 13.1187 428.396 13.168 428.396Z" fill="#263238"/>
<path d="M12.2186 428.169C12.462 428.413 12.6323 428.64 12.5918 428.68C12.5512 428.721 12.3322 428.543 12.0806 428.299C11.8291 428.056 11.6669 427.829 11.7074 427.788C11.748 427.747 11.9671 427.926 12.2186 428.169Z" fill="#263238"/>
<path d="M11.7561 429.191C12.0968 429.191 12.3808 429.191 12.3808 429.28C12.3808 429.369 12.0968 429.378 11.7561 429.378C11.4153 429.378 11.1232 429.329 11.1232 429.28C11.1232 429.231 11.4072 429.191 11.7561 429.191Z" fill="#263238"/>
<path d="M12.1458 430.239C12.3892 429.995 12.6245 429.825 12.6569 429.857C12.6894 429.89 12.5271 430.125 12.2756 430.368C12.0241 430.612 11.8051 430.782 11.7645 430.75C11.7239 430.717 11.9024 430.482 12.1458 430.239Z" fill="#263238"/>
<path d="M13.168 430.7C13.168 430.351 13.168 430.075 13.2573 430.075C13.3465 430.075 13.3546 430.351 13.3546 430.7C13.3546 431.049 13.3546 431.333 13.2573 431.333C13.1599 431.333 13.168 431.049 13.168 430.7Z" fill="#263238"/>
<path d="M14.1903 430.303C13.9469 430.06 13.7766 429.833 13.8171 429.8C13.8577 429.768 14.0768 429.93 14.3202 430.173C14.5635 430.417 14.742 430.652 14.7015 430.685C14.6609 430.717 14.4581 430.555 14.1903 430.303Z" fill="#263238"/>
<path d="M14.6771 429.289C15.0222 429.289 15.3019 429.245 15.3019 429.192C15.3019 429.138 15.0222 429.094 14.6771 429.094C14.3321 429.094 14.0524 429.138 14.0524 429.192C14.0524 429.245 14.3321 429.289 14.6771 429.289Z" fill="#263238"/>
<path d="M14.2875 428.234C14.0441 428.485 13.8088 428.648 13.7763 428.615C13.7439 428.583 13.9061 428.347 14.1577 428.104C14.4092 427.861 14.6282 427.69 14.6607 427.723C14.6931 427.755 14.5309 427.99 14.2875 428.234Z" fill="#263238"/>
<path d="M116.481 439.162C114.599 439.397 63.2829 427.422 61.6116 425.808C61.4088 425.629 63.8346 415.78 63.8346 415.78C64.6459 411.723 76.4668 378.622 76.4668 378.622L110.015 386.905L97.342 417.581C97.342 417.581 103.735 421.905 109.236 426.035C111.668 427.742 113.991 429.601 116.189 431.601C117.828 433.564 118.355 438.943 116.481 439.162Z" fill="#AD6359"/>
<path d="M116.481 439.162C114.598 439.398 63.2827 427.423 61.6195 425.808C61.4166 425.63 63.8425 415.772 63.8425 415.772C64.1102 414.45 65.7247 409.971 67.7936 404.56L99.9055 412.04L97.3417 417.581C97.3417 417.581 103.735 421.906 109.236 426.035C111.665 427.747 113.987 429.606 116.189 431.601C117.836 433.572 118.355 438.943 116.481 439.162Z" fill="#EBEBEB"/>
<path d="M116.627 439.308C114.68 439.511 62.9502 427.95 61.2627 426.222C60.6136 425.597 65.2057 408.933 65.2219 408.835L98.3317 416.137L98.1938 416.697C98.1938 416.697 114.834 429.459 116.497 431.511C118.16 433.564 118.566 439.097 116.627 439.308Z" fill="#FFC727"/>
<path d="M116.489 437.175C107.816 435.041 72.6051 427.074 63.8996 425.589C63.8266 425.589 63.8185 425.589 63.8996 425.646C72.4509 427.982 107.711 435.625 116.473 437.321C116.643 437.353 116.676 437.223 116.489 437.175Z" fill="#263238"/>
<path d="M100.855 416.543C97.6098 415.14 93.253 414.726 90.0808 416.543C89.9591 416.616 90.0808 416.786 90.1781 416.778C93.6896 416.457 97.2254 416.511 100.725 416.941C100.77 416.937 100.812 416.92 100.847 416.892C100.882 416.865 100.908 416.827 100.922 416.785C100.936 416.742 100.937 416.697 100.925 416.654C100.913 416.611 100.889 416.572 100.855 416.543Z" fill="#263238"/>
<path d="M102.997 418.595C99.7111 417.183 95.3949 416.77 92.2227 418.595C92.101 418.668 92.2227 418.847 92.32 418.83C95.8316 418.507 99.3679 418.564 102.867 419.001C102.913 418.999 102.958 418.982 102.995 418.954C103.032 418.926 103.059 418.887 103.073 418.843C103.087 418.799 103.088 418.751 103.074 418.707C103.06 418.663 103.033 418.624 102.997 418.595Z" fill="#263238"/>
<path d="M105.139 420.641C101.893 419.229 97.5365 418.815 94.3643 420.641C94.2426 420.714 94.3643 420.892 94.4616 420.876C97.9735 420.561 101.509 420.618 105.009 421.046C105.055 421.044 105.1 421.028 105.136 421C105.173 420.972 105.201 420.933 105.215 420.889C105.229 420.845 105.229 420.797 105.215 420.753C105.202 420.708 105.175 420.669 105.139 420.641Z" fill="#263238"/>
<path d="M106.996 410.069C106.063 407.919 103.362 408.187 101.666 409.071C98.7699 410.631 96.3376 412.929 94.6157 415.732C94.6074 415.744 94.6021 415.758 94.6001 415.773C94.5981 415.788 94.5995 415.803 94.6042 415.817C94.6089 415.831 94.6168 415.844 94.6272 415.854C94.6377 415.865 94.6504 415.873 94.6644 415.878C94.646 415.944 94.6438 416.014 94.6581 416.082C94.6724 416.149 94.7027 416.212 94.7464 416.266C94.7902 416.319 94.8461 416.361 94.9095 416.388C94.9729 416.415 95.0418 416.427 95.1106 416.422C98.1774 416.008 101.512 415.951 104.36 414.604C106.023 413.825 107.873 412.114 106.996 410.069ZM99.6296 414.848C98.1287 415.083 96.6196 415.253 95.1268 415.545C96.4633 414.208 97.8659 412.938 99.3294 411.74C100.045 411.173 100.799 410.656 101.585 410.191C102.818 409.493 107.305 408.422 105.852 412.049C105.057 414.044 101.423 414.564 99.6296 414.848Z" fill="#263238"/>
<path d="M86.0892 412.884C88.653 414.718 91.9145 415.391 94.8595 416.357C95.1597 416.454 95.395 416.162 95.395 415.894C95.4097 415.893 95.424 415.888 95.4364 415.881C95.4489 415.873 95.4592 415.862 95.4664 415.849C95.4737 415.836 95.4776 415.822 95.4779 415.807C95.4782 415.792 95.4748 415.778 95.468 415.764C94.2948 412.699 92.3363 409.996 89.7888 407.927C88.2798 406.751 85.6755 405.996 84.3611 407.927C83.0468 409.858 84.5964 411.813 86.0892 412.884ZM85.0913 410.093C84.3287 406.264 88.5475 408.13 89.6266 409.047C90.3148 409.65 90.9626 410.298 91.5656 410.986C92.785 412.428 93.9304 413.931 94.9975 415.489C93.5858 414.929 92.1335 414.491 90.6975 413.98C88.9856 413.371 85.5132 412.203 85.0913 410.093Z" fill="#263238"/>
<path d="M99.9622 416.429L64.1751 408.413C64.1751 408.413 93.6989 326.122 91.0783 322.657C89.7721 320.921 56.6136 320.41 46.0665 311.477C32.3715 299.876 41.5637 282.14 41.5637 282.14L78.5922 281.045C78.5922 281.045 78.1459 288.777 79.5901 289.969C80.5393 290.781 124.659 294.456 129.51 309.319C135.449 327.533 99.9622 416.429 99.9622 416.429Z" fill="#0064D2"/>
<path d="M101.001 409.956C100.06 409.558 90.8189 406.938 88.75 406.402C84.5799 405.339 80.4016 404.293 76.2152 403.311C74.0328 402.792 69.3515 401.688 69.0756 401.688C69.0455 401.688 69.0166 401.7 68.9953 401.722C68.974 401.743 68.962 401.772 68.962 401.802C68.962 401.832 68.974 401.861 68.9953 401.882C69.0166 401.904 69.0455 401.916 69.0756 401.916C73.1322 403.189 77.2861 404.301 81.4157 405.429C85.5453 406.556 99.719 410.013 100.944 410.15C101.001 410.183 101.123 410.013 101.001 409.956Z" fill="#263238"/>
<path d="M97.407 319.591C96.6687 318.95 95.549 318.877 94.616 318.723L78.5844 316.029C73.5786 315.218 68.5485 314.447 63.5751 313.49C59.4536 312.678 55.2591 311.624 51.6893 309.384C48.1907 307.189 45.5988 303.808 44.3875 299.86C43.2571 295.908 42.937 291.768 43.4463 287.69C43.5356 286.7 43.7222 285.702 43.9088 284.72C43.9088 284.647 43.8033 284.623 43.7871 284.72C42.4322 292.306 42.3105 301.109 47.9978 307.153C50.7725 310.098 54.5776 311.827 58.4638 312.954C62.853 314.22 67.4369 314.812 71.9316 315.567L88.02 318.212C90.5919 318.633 93.2043 318.974 95.7519 319.502C96.2671 319.567 96.7521 319.781 97.1473 320.118C97.3349 320.385 97.4537 320.695 97.4933 321.019C97.5329 321.343 97.4921 321.672 97.3745 321.976C97.1149 323.234 96.7741 324.475 96.4172 325.708C93.4964 335.663 73.8058 396.982 73.2297 398.078C73.1648 398.191 73.3514 398.28 73.4082 398.167C78.2761 389.437 92.5877 338.941 95.8249 329.513C96.6816 327.127 97.3835 324.688 97.9262 322.211C98.0885 321.262 98.1939 320.256 97.407 319.591Z" fill="#263238"/>
<path d="M187.139 439.715C185.346 440.315 133.981 439.593 132.026 438.343C131.263 437.621 130.663 431.042 130.2 422.88L121.365 387.847L154.402 387.579L164.081 422.369C164.081 422.369 171.212 425.338 177.419 428.291C180.141 429.481 182.788 430.836 185.346 432.348C187.341 433.962 188.932 439.098 187.139 439.715Z" fill="#AD6359"/>
<path d="M188.193 439.747C186.335 440.363 133.316 440.112 131.304 438.822C130.533 438.343 130.119 430.628 129.892 421.289C129.892 421.184 129.892 421.087 129.892 420.989L164.097 420.778V421.354C164.097 421.354 184.38 430.514 186.416 432.169C188.453 433.824 190.043 439.146 188.193 439.747Z" fill="#FFC727"/>
<path d="M187.601 437.694C178.676 437.435 142.597 437.216 133.746 437.638C133.673 437.638 133.673 437.686 133.746 437.694C142.597 438.149 178.66 438.068 187.601 437.841C187.812 437.832 187.812 437.703 187.601 437.694Z" fill="#263238"/>
<path d="M167.902 420.891C164.389 420.218 160.081 420.737 157.355 423.228C157.249 423.325 157.355 423.471 157.509 423.43C160.875 422.364 164.346 421.663 167.861 421.337C167.915 421.333 167.965 421.31 168.004 421.273C168.042 421.235 168.066 421.185 168.07 421.131C168.075 421.078 168.061 421.024 168.03 420.98C167.999 420.936 167.954 420.905 167.902 420.891Z" fill="#263238"/>
<path d="M170.433 422.433C166.92 421.759 162.612 422.279 159.886 424.769C159.781 424.859 159.886 425.013 160.04 424.972C163.415 423.906 166.894 423.201 170.417 422.871C170.446 422.872 170.475 422.867 170.502 422.857C170.529 422.847 170.553 422.832 170.574 422.812C170.596 422.793 170.613 422.769 170.625 422.743C170.637 422.717 170.643 422.689 170.644 422.66C170.645 422.631 170.641 422.602 170.631 422.576C170.621 422.549 170.606 422.524 170.586 422.503C170.566 422.482 170.543 422.465 170.517 422.453C170.49 422.441 170.462 422.434 170.433 422.433Z" fill="#263238"/>
<path d="M172.965 423.975C169.444 423.302 165.144 423.821 162.418 426.303C162.312 426.401 162.418 426.547 162.572 426.514C165.939 425.449 169.409 424.745 172.924 424.413C172.953 424.416 172.982 424.413 173.01 424.404C173.037 424.396 173.063 424.382 173.085 424.363C173.107 424.345 173.126 424.322 173.139 424.297C173.153 424.271 173.161 424.243 173.164 424.214C173.166 424.185 173.163 424.156 173.155 424.129C173.146 424.101 173.132 424.076 173.114 424.053C173.095 424.031 173.073 424.013 173.047 423.999C173.022 423.986 172.994 423.978 172.965 423.975Z" fill="#263238"/>
<path d="M172.51 413.257C171.139 411.342 168.559 412.186 167.083 413.411C164.595 415.563 162.715 418.33 161.631 421.435C161.625 421.448 161.623 421.463 161.625 421.477C161.626 421.491 161.631 421.505 161.639 421.517C161.647 421.529 161.658 421.539 161.671 421.546C161.683 421.553 161.697 421.556 161.712 421.557C161.71 421.625 161.724 421.693 161.752 421.756C161.781 421.818 161.824 421.873 161.877 421.916C161.93 421.959 161.993 421.99 162.06 422.005C162.127 422.02 162.197 422.019 162.263 422.003C165.168 420.94 168.413 420.169 170.912 418.247C172.397 417.127 173.808 415.058 172.51 413.257ZM166.344 419.496C164.924 420.048 163.488 420.534 162.093 421.119C163.094 419.524 164.177 417.983 165.338 416.502C165.918 415.794 166.544 415.124 167.212 414.498C168.267 413.557 172.413 411.553 171.78 415.399C171.464 417.549 168.032 418.814 166.344 419.496Z" fill="#263238"/>
<path d="M152.698 420.438C155.586 421.687 158.921 421.639 162.004 421.955C162.072 421.955 162.139 421.939 162.2 421.909C162.261 421.879 162.314 421.835 162.355 421.781C162.396 421.726 162.424 421.663 162.436 421.596C162.448 421.529 162.445 421.461 162.426 421.395C162.44 421.39 162.453 421.382 162.463 421.372C162.473 421.361 162.481 421.348 162.486 421.334C162.491 421.32 162.492 421.305 162.49 421.29C162.488 421.276 162.483 421.262 162.475 421.249C160.649 418.5 158.13 416.281 155.173 414.815C153.445 414.004 150.735 413.809 149.875 415.992C149.015 418.174 151.011 419.748 152.698 420.438ZM151.116 418.004C149.55 414.426 154.069 415.351 155.319 416.008C156.123 416.446 156.896 416.939 157.631 417.485C159.133 418.634 160.576 419.858 161.955 421.152C160.454 420.908 158.937 420.787 157.428 420.6C155.627 420.332 151.984 419.935 151.116 418.004Z" fill="#263238"/>
<path d="M166.555 421.143H127.994C127.994 421.143 111.491 341.861 108.571 338.129C104.676 333.156 50.1559 333.261 38.5055 317.035C28.007 302.472 36.8828 281.856 36.8828 281.856L78.1463 280.631C77.2178 285.053 75.94 289.393 74.325 293.612C74.325 293.612 124.026 302.772 137.948 317.952C147.335 328.256 166.555 421.143 166.555 421.143Z" fill="#0064D2"/>
<path d="M81.5294 290.772C80.3305 291.032 79.1595 291.407 78.0326 291.892C76.8481 292.338 75.6798 292.849 74.5439 293.409C72.3025 294.519 70.1223 295.749 68.0128 297.092C67.9479 297.092 68.0128 297.23 68.0778 297.19C70.3089 296.038 72.613 294.991 74.9253 294.001L78.2598 292.565C79.4069 292.129 80.5307 291.633 81.6267 291.081C81.7484 290.999 81.6673 290.74 81.5294 290.772Z" fill="#263238"/>
<path d="M79.0305 280.599C78.56 282.481 78.1462 284.371 77.6026 286.237C77.3592 287.097 77.1158 287.966 76.7913 288.793C76.5155 289.491 76.1017 290.294 75.2904 290.416C74.3574 290.594 74.0896 289.799 74.1626 289.028C74.2357 288.258 74.4709 287.3 74.6413 286.457C74.836 285.483 75.0389 284.501 75.2174 283.52C75.2985 283.033 75.3958 282.546 75.477 282.051C75.477 281.929 75.5906 280.988 75.6555 280.721C75.6555 280.721 75.6555 280.769 75.7123 280.761C75.726 280.761 75.7394 280.756 75.7498 280.747C75.7602 280.738 75.7671 280.726 75.769 280.712C75.769 280.639 75.769 280.623 75.7204 280.575C75.7076 280.565 75.6919 280.559 75.6758 280.559C75.6596 280.559 75.6439 280.565 75.6311 280.575C75.4526 280.672 75.4445 280.923 75.3877 281.102C75.2336 281.572 75.0794 282.051 74.9415 282.53C74.6819 283.43 74.4223 284.331 74.1951 285.24C73.9679 286.148 73.7489 287.049 73.5217 287.957C73.2849 288.626 73.2234 289.344 73.3432 290.043C73.4301 290.374 73.6197 290.67 73.885 290.887C74.1503 291.104 74.4775 291.232 74.8198 291.251C74.7826 291.308 74.75 291.368 74.7225 291.43C74.6413 291.617 74.5764 291.811 74.5034 292.006C74.4304 292.201 74.3736 292.395 74.3168 292.59C74.2862 292.685 74.2672 292.783 74.26 292.882C74.26 292.988 74.26 293.101 74.26 293.207C74.246 293.245 74.248 293.288 74.2655 293.325C74.283 293.363 74.3146 293.391 74.3533 293.405C74.392 293.419 74.4347 293.417 74.472 293.4C74.5093 293.382 74.5381 293.351 74.5521 293.312C74.6041 293.223 74.661 293.136 74.7225 293.053C74.7766 292.951 74.8228 292.845 74.8604 292.736C74.9253 292.55 74.974 292.355 75.0226 292.168C75.0713 291.982 75.1281 291.787 75.1687 291.592C75.2092 291.397 75.1687 291.357 75.1687 291.243C75.5617 291.206 75.9374 291.063 76.2558 290.83C76.7875 290.378 77.1789 289.784 77.3836 289.118C77.6675 288.306 77.8866 287.495 78.1056 286.684C78.6792 284.702 79.0809 282.674 79.3064 280.623C79.2926 280.6 79.2735 280.58 79.2506 280.566C79.2277 280.551 79.2017 280.543 79.1747 280.54C79.1478 280.538 79.1206 280.542 79.0955 280.552C79.0705 280.562 79.0482 280.578 79.0305 280.599Z" fill="#263238"/>
<path d="M162.564 414.239C161.538 414.121 160.506 414.056 159.473 414.044L156.228 413.923C154.064 413.858 151.928 413.82 149.818 413.809C145.51 413.809 141.21 413.809 136.91 413.866C134.663 413.866 129.852 413.963 129.608 414.052C129.584 414.059 129.563 414.073 129.548 414.093C129.533 414.113 129.525 414.137 129.525 414.162C129.525 414.187 129.533 414.211 129.548 414.231C129.563 414.251 129.584 414.265 129.608 414.272C133.876 414.499 138.151 414.564 142.427 414.645C146.703 414.726 150.97 414.791 155.238 414.718C156.422 414.718 157.607 414.653 158.783 414.62C160.035 414.631 161.286 414.577 162.531 414.458C162.661 414.442 162.702 414.255 162.564 414.239Z" fill="#263238"/>
<path d="M113.065 338.64C112.704 337.455 112.157 336.335 111.442 335.322C110.577 334.472 109.473 333.906 108.278 333.699C97.999 330.884 87.3951 329.643 76.9454 327.647C71.7898 326.722 66.6959 325.481 61.6926 323.931C56.6128 322.423 51.7584 320.24 47.2593 317.441C45.0642 316.027 43.2437 314.104 41.9533 311.834C40.7676 309.642 39.9248 307.281 39.4544 304.833C38.3307 299.245 38.3307 293.489 39.4544 287.901C39.7334 286.509 40.0854 285.133 40.5092 283.779C40.5092 283.698 40.4118 283.666 40.3793 283.779C38.4459 289.166 37.6557 294.897 38.059 300.606C38.4322 305.563 39.6329 310.78 42.8376 314.715C44.5008 316.629 46.5136 318.21 48.7684 319.372C51.1269 320.667 53.5658 321.811 56.0702 322.795C60.934 324.686 65.9426 326.181 71.0471 327.266C81.4725 329.57 92.1413 330.746 102.534 333.058C103.824 333.35 105.106 333.651 106.38 333.975C107.696 334.192 108.973 334.602 110.169 335.192C111.402 335.963 111.791 337.504 112.302 338.786C112.838 340.198 129.6 410.734 129.973 412.154C129.99 412.198 130.022 412.234 130.064 412.255C130.107 412.276 130.155 412.28 130.201 412.267C130.246 412.254 130.284 412.224 130.308 412.183C130.332 412.142 130.34 412.094 130.33 412.048C128.894 406.223 114.152 341.423 113.065 338.64Z" fill="#263238"/>
<path d="M110.023 340.117C109.633 338.876 109.293 337.546 108.132 336.799C106.972 336.053 90.4863 333.838 88.6609 333.554C88.5716 333.554 88.5392 333.676 88.6609 333.692C90.2835 333.96 105.488 336.686 106.851 337.14C107.43 337.304 107.947 337.638 108.335 338.097C108.743 338.731 109.036 339.431 109.203 340.166C109.674 341.643 115.751 367.167 116.627 370.582C116.692 370.842 117.065 370.72 117.016 370.469C115.791 364.084 110.51 341.691 110.023 340.117Z" fill="#263238"/>
<path d="M74.5034 293.694C82.1223 294.611 89.6526 296.155 97.0174 298.311C104.439 300.394 111.698 303.019 118.736 306.164C122.679 307.941 126.501 309.921 130.289 311.998C130.371 312.038 130.289 312.152 130.225 312.111C123.401 308.587 116.354 305.511 109.13 302.903C101.951 300.284 94.6025 298.153 87.1356 296.526C82.933 295.609 78.6979 294.903 74.4547 294.197C74.1464 294.149 74.2275 293.67 74.5034 293.694Z" fill="#263238"/>
<path d="M111.735 210.648L104.246 234.646C104.162 234.778 104.114 234.929 104.108 235.085C104.102 235.241 104.139 235.396 104.214 235.533C104.288 235.67 104.399 235.784 104.533 235.864C104.667 235.943 104.82 235.985 104.976 235.985L117.519 236.691C117.903 236.684 118.276 236.568 118.597 236.356C118.917 236.145 119.171 235.848 119.329 235.498L126.825 211.524C127.125 210.826 126.825 210.226 126.095 210.193L113.552 209.496C113.172 209.498 112.799 209.607 112.478 209.811C112.157 210.015 111.899 210.305 111.735 210.648Z" fill="#37474F"/>
<path d="M113.227 210.721L105.739 234.687C105.439 235.385 105.739 235.985 106.461 236.026L119.004 236.731C119.389 236.724 119.765 236.607 120.087 236.395C120.408 236.182 120.663 235.882 120.821 235.531L128.31 211.564C128.61 210.867 128.31 210.266 127.588 210.226L115.037 209.496C114.65 209.507 114.274 209.628 113.954 209.845C113.633 210.062 113.381 210.366 113.227 210.721Z" fill="#455A64"/>
<path d="M116.603 212.018C116.586 212.227 116.509 212.426 116.38 212.591C116.25 212.756 116.076 212.879 115.877 212.944C115.678 213.01 115.464 213.016 115.263 212.961C115.061 212.905 114.88 212.792 114.742 212.634C114.604 212.476 114.516 212.281 114.489 212.074C114.462 211.866 114.496 211.656 114.589 211.468C114.681 211.28 114.826 211.123 115.007 211.018C115.188 210.912 115.396 210.862 115.605 210.874C115.746 210.883 115.884 210.919 116.011 210.981C116.138 211.043 116.251 211.13 116.344 211.237C116.437 211.343 116.508 211.467 116.552 211.601C116.596 211.736 116.614 211.877 116.603 212.018Z" fill="#263238"/>
<path d="M69.23 245.193C75.3393 260.762 89.9997 281.418 96.5795 281.937C99.7193 282.18 105.269 283.292 109.617 279.957C119.11 272.656 127.596 258.133 129.681 249.622C130.428 246.596 115.962 238.986 113.601 241.339C108.068 246.848 101.334 257.914 100.425 257.784C97.0744 257.305 84.5964 245.468 75.891 237.128C65.3033 227.011 66.7961 238.986 69.23 245.193Z" fill="#F7A9A0"/>
<path d="M131.085 233.834C129.908 227.514 128.651 226.07 130.484 220.212C131.693 216.366 129.754 213.949 126.785 216.902C121.917 221.77 121.722 230.208 122.493 233.128L131.085 233.834Z" fill="#F7A9A0"/>
<path d="M128.78 252.243C128.78 252.243 132.123 243.757 131.539 236.901C131.133 232.155 129.105 221.941 116.302 215.807C113.268 214.347 107.905 214.42 112.002 218.606C114.907 221.576 117.682 222.582 119.028 224.618C119.028 224.618 112.213 225.527 110.875 228.626C109.695 231.334 108.714 234.124 107.938 236.974C108.425 237.236 108.929 237.466 109.447 237.664C109.447 237.664 108.278 240.601 110.258 245.006L128.78 252.243Z" fill="#F7A9A0"/>
<path d="M130.436 232.431C128.635 230.703 124.757 227.093 120.586 225.235C115.938 223.174 106.421 220.464 104.936 223.912C103.849 226.443 107.37 227.798 107.37 227.798C107.37 227.798 103.2 227.506 102.721 230.005C102.275 232.277 105.082 233.169 105.082 233.169C105.082 233.169 102.518 233.421 102.518 235.701C102.518 238.435 107.881 237.445 110.275 240.22C110.826 240.844 130.436 232.431 130.436 232.431Z" fill="#F7A9A0"/>
<path d="M119.231 230.516C115.692 228.416 111.597 227.445 107.492 227.733C107.386 227.733 107.338 227.831 107.435 227.839C111.458 228.278 115.414 229.201 119.215 230.589L119.231 230.516Z" fill="#263238"/>
<path d="M117.016 235.149C115.207 234.152 109.715 232.399 105.114 233.072C105.009 233.072 104.968 233.178 105.066 233.178C109.106 233.402 113.109 234.077 117 235.19C117 235.19 117.041 235.158 117.016 235.149Z" fill="#263238"/>
<path d="M129.681 257.598C129.681 257.598 115.605 279.269 108.344 281.565C101.082 283.861 96.8554 282.993 94.2429 282.425C93.2417 282.116 92.3197 281.593 91.5412 280.891C84.7262 275.318 73.1 256.414 68.5729 245.924C65.1735 238.038 66.0578 231.158 71.8181 233.754C73.7562 234.745 75.5208 236.043 77.043 237.599C87.3143 247.424 99.3623 256.933 99.987 256.657C100.612 256.381 107.508 246.921 107.508 246.921L129.681 257.598Z" fill="#FFC727"/>
<path opacity="0.1" d="M91.5412 280.891C84.7262 275.318 73.1 256.414 68.5729 245.924C65.1735 238.038 66.0578 231.158 71.8181 233.754C74.4549 239.96 85.9188 267.099 91.5412 280.891Z" fill="black"/>
<path d="M125.811 260.608C125 260.105 117.576 256.624 115.937 255.902C114.298 255.18 107.637 252.17 105.885 251.57C105.877 251.563 105.868 251.558 105.858 251.556C105.848 251.553 105.838 251.553 105.828 251.556C105.818 251.558 105.809 251.562 105.801 251.569C105.793 251.576 105.787 251.584 105.783 251.593C105.779 251.603 105.777 251.613 105.778 251.623C105.778 251.633 105.781 251.643 105.787 251.652C105.792 251.661 105.799 251.668 105.808 251.674C105.816 251.679 105.826 251.683 105.836 251.683C107.459 252.6 114.152 255.659 115.799 256.43C117.446 257.2 124.91 260.486 125.77 260.73C125.843 260.738 125.868 260.608 125.811 260.608Z" fill="#263238"/>
<path d="M99.9951 256.666C99.3785 257.615 98.7376 258.507 98.0886 259.4C97.4414 260.306 96.7481 261.178 96.0116 262.012C96.3961 260.942 96.9434 259.938 97.6342 259.035C98.2817 258.117 99.08 257.316 99.9951 256.666Z" fill="#263238"/>
<path d="M82.5842 289.815C81.4159 290.951 31.4307 296.152 31.1873 295.819C30.5221 294.91 39.8603 248.008 59.8755 231.847C63.4047 228.999 69.2867 230.224 71.9478 231.903C73.2865 232.755 76.9699 239.489 78.0246 245.485C79.0793 251.481 83.3225 289.126 82.5842 289.815Z" fill="#EBEBEB"/>
<path d="M61.1897 230.704C61.1897 230.704 66.6418 259.043 66.8202 260.203C66.9987 261.363 66.2036 292.915 66.2036 292.915L29.0859 297.499C29.0859 297.499 33.2804 281.825 33.4995 281.078C33.7186 280.332 41.6127 254.305 50.0341 242.662C57.8065 231.953 61.1897 230.704 61.1897 230.704Z" fill="#FFC727"/>
<path d="M72.7188 232.35C72.7188 232.35 76.467 257.501 76.5725 259.124C76.678 260.746 79.5095 291.284 79.5095 291.284L84.0934 289.572C84.0934 289.572 81.5296 269.622 81.2376 267.91C80.9455 266.198 78.8036 247.627 77.9923 244.203C76.7348 238.703 72.7188 232.35 72.7188 232.35Z" fill="#FFC727"/>
<path d="M59.4534 231.928C39.5113 239.562 15.4964 258.985 16.0156 266.352C16.5916 274.546 45.223 263.796 45.0769 262.563C44.9471 261.509 51.5675 253.468 61.0436 241.94C70.6739 230.224 64.3862 230.046 59.4534 231.928Z" fill="#FFC727"/>
<path d="M16.0156 266.352C17.0865 272.144 25.0698 276.785 44.079 290.358C46.7076 292.233 64.9541 277.239 62.2525 275.089C58.8449 272.38 45.0282 262.611 43.9329 262.027C34.6515 257.07 15.2854 262.417 16.0156 266.352Z" fill="#AD6359"/>
<path d="M58.5124 272.242C58.5124 272.242 66.7392 277.597 70.1954 281.751C74.8199 287.309 76.5236 294.01 77.0672 296.866C78.2031 302.821 76.84 318.001 72.394 318.366C68.3375 318.706 70.5605 303.251 70.5605 303.251C70.5605 303.251 70.9337 319.372 66.0171 318.885C61.1005 318.398 64.6541 300.606 64.6541 300.606C64.6541 300.606 64.6541 317.173 59.6807 315.875C55.9081 314.885 58.2203 298.594 58.2203 298.594C58.2203 298.594 58.1311 312.833 54.2124 311.989C49.88 311.048 51.0645 295.876 51.0645 295.876C41.4667 292.047 38.4567 286.294 36.8097 281.946C36.4041 280.891 58.5124 272.242 58.5124 272.242Z" fill="#F7A9A0"/>
<path d="M70.7875 297.669C70.893 299.559 71.0228 301.474 70.966 303.348C70.9092 305.222 70.7875 307.137 70.5604 309.027C70.2959 311.493 69.7515 313.921 68.9377 316.264C70.0736 311.997 70.3738 305.214 70.4306 303.324C70.4874 301.433 70.6415 299.543 70.6983 297.645C70.7145 297.62 70.7794 297.628 70.7875 297.669Z" fill="#263238"/>
<path d="M63.9482 297.344C63.9482 299.778 64.1105 302.212 64.0456 304.589C63.9807 306.966 63.6805 309.287 63.4695 311.721C63.4695 311.907 63.3559 311.834 63.3641 311.648C63.502 309.214 63.4452 307.007 63.5507 304.589C63.6561 302.172 63.8671 299.778 63.8833 297.369L63.9482 297.344Z" fill="#263238"/>
<path d="M58.1228 296.006C58.272 299.719 58.0381 303.439 57.4251 307.104C57.4251 307.283 57.2872 307.177 57.3034 306.991C57.6036 303.307 57.8713 300.419 57.993 296.014C58.0011 295.949 58.1228 295.933 58.1228 296.006Z" fill="#263238"/>
<path d="M62.7963 273.176C62.7963 273.176 37.6455 288.461 37.4345 288.348C37.2236 288.234 15.7481 272.413 16.0158 266.353C16.2835 260.292 35.674 257.753 43.9169 261.98C52.1599 266.207 62.7963 273.176 62.7963 273.176Z" fill="#FFC727"/>
<path d="M55.1778 269.784C54.2124 270.239 46.2534 275.382 44.5415 276.543C42.8296 277.703 35.8117 282.352 34.1566 283.69C34.1394 283.701 34.1272 283.718 34.1226 283.738C34.1181 283.758 34.1215 283.778 34.1323 283.796C34.1431 283.813 34.1602 283.825 34.18 283.83C34.1998 283.834 34.2206 283.831 34.2378 283.82C36.1119 282.814 43.2109 278.141 44.9715 276.997C46.732 275.853 54.4963 270.587 55.2752 269.89C55.3401 269.833 55.2509 269.752 55.1778 269.784Z" fill="#263238"/>
<path d="M33.6616 260C35.6899 259.894 41.2312 260 45.45 262.71C45.4987 262.71 45.45 262.799 45.45 262.775C41.7585 261.006 35.7142 260.114 33.7022 260.073C33.6616 260.073 33.6129 260 33.6616 260Z" fill="#263238"/>
<path d="M61.2465 274.116L62.7556 273.11V273.24L58.3745 270.482C56.9141 269.565 55.4375 268.664 53.9609 267.788C51.0158 265.987 48.0302 264.259 44.9878 262.66L44.5821 262.45L44.8417 262.076C46.9511 259.034 49.1173 256.04 51.4215 253.152C52.5736 251.697 53.75 250.269 54.9507 248.868C56.1758 247.481 57.3847 246.11 58.7152 244.812C56.3624 247.657 54.0934 250.566 51.9083 253.541C49.7258 256.511 47.5515 259.488 45.507 262.555L45.361 261.971C48.4196 263.593 51.389 265.386 54.2854 267.236C55.7404 268.188 57.1791 269.148 58.6016 270.116C60.0377 271.09 61.425 272.112 62.8205 273.135L62.9178 273.208L62.8205 273.264L61.2465 274.116Z" fill="#263238"/>
<path d="M53.32 251.181C53.6526 250.857 53.9772 250.532 54.3179 250.224C54.6587 249.915 54.9994 249.615 55.3483 249.331C56.0571 248.748 56.8113 248.221 57.6038 247.757C56.9949 248.442 56.3271 249.072 55.6079 249.64C55.2509 249.924 54.8858 250.207 54.5045 250.451C54.1311 250.727 53.7348 250.972 53.32 251.181Z" fill="#263238"/>
<path d="M30.5869 283.034C31.8249 283.78 33.022 284.593 34.1729 285.468C34.7408 285.906 35.3169 286.344 35.8767 286.806L37.5642 288.194H37.3289C38.0348 287.861 38.7488 287.536 39.4871 287.253C38.8461 287.715 38.1971 288.153 37.5399 288.575L37.4344 288.64L37.3046 288.559C36.7042 288.161 36.0958 287.747 35.5278 287.326C34.9599 286.904 34.3839 286.441 33.816 285.987C32.6873 285.061 31.6093 284.075 30.5869 283.034Z" fill="#263238"/>
<path d="M70.7147 239.814C67.8102 240.317 63.1451 235.652 61.4089 231.993C61.2953 231.742 62.8774 222.079 63.0315 220.132C63.0315 219.734 75.0796 223.823 75.0796 223.823C74.2383 226.217 73.6934 228.704 73.457 231.231C73.4164 231.514 73.5219 239.319 70.7147 239.814Z" fill="#F7A9A0"/>
<path d="M75.039 223.822C75.039 223.879 74.9336 224.114 74.8119 224.496C74.609 225.137 74.2845 226.183 74.0006 227.384C73.6889 228.643 73.488 229.927 73.4002 231.221C73.4002 231.311 73.4002 231.408 73.4002 231.489V231.538C73.4002 231.692 73.4002 231.903 73.4002 232.163C73.0031 232.191 72.6046 232.191 72.2075 232.163C65.5629 231.619 63.8023 223.319 63.3723 220.147L63.5751 220.196C63.8997 220.269 64.3216 220.382 64.8246 220.528L65.2059 220.642C66.0172 220.877 66.9664 221.177 67.9644 221.453L68.9542 221.77L71.0555 222.451C71.3394 222.557 71.6315 222.654 71.8668 222.735L72.6781 223.019L73.0757 223.149L73.2541 223.214L74.2521 223.546L74.7307 223.709C74.8007 223.726 74.8687 223.75 74.9336 223.782H75.039V223.822Z" fill="#263238"/>
<path d="M62.1553 207.126C60.8086 211.459 63.064 224.002 66.1389 226.809C70.6011 230.866 77.9354 231.279 81.3997 225.917C84.7586 220.716 81.5377 204.425 78.0977 201.877C73.027 198.137 64.135 200.725 62.1553 207.126Z" fill="#F7A9A0"/>
<path d="M74.3819 214.509C74.3819 214.509 74.3251 214.566 74.3332 214.599C74.536 215.41 74.6172 216.424 73.9194 216.862C74.8362 216.586 74.7064 215.272 74.3819 214.509Z" fill="#263238"/>
<path d="M73.4569 213.787C72.0776 213.958 72.532 216.692 73.7976 216.53C75.0633 216.367 74.6089 213.641 73.4569 213.787Z" fill="#263238"/>
<path d="M79.3146 213.844C79.3146 213.844 79.3876 213.844 79.3876 213.909C79.5012 214.761 79.7771 215.718 80.5884 215.872V215.921C79.631 215.986 79.2822 214.671 79.3146 213.844Z" fill="#263238"/>
<path d="M79.9067 212.837C81.2535 212.513 81.8052 215.223 80.5639 215.531C79.3226 215.839 78.7952 213.113 79.9067 212.837Z" fill="#263238"/>
<path d="M72.264 212.676C72.6291 212.562 72.9537 212.392 73.3106 212.246C73.7018 212.142 74.0489 211.914 74.3004 211.597C74.359 211.481 74.3781 211.35 74.3546 211.222C74.3312 211.095 74.2665 210.978 74.1706 210.891C73.9536 210.748 73.7021 210.665 73.4423 210.653C73.1826 210.64 72.9242 210.697 72.694 210.818C72.1929 210.991 71.7738 211.344 71.5176 211.808C71.4649 211.917 71.4453 212.04 71.4611 212.16C71.477 212.281 71.5276 212.394 71.6068 212.486C71.686 212.578 71.7904 212.645 71.9071 212.679C72.0239 212.713 72.1479 212.712 72.264 212.676Z" fill="#263238"/>
<path d="M80.7748 211.167C80.3853 211.167 80.0284 211.102 79.6389 211.07C79.2343 211.085 78.8356 210.968 78.5031 210.737C78.4126 210.645 78.3555 210.526 78.3407 210.398C78.326 210.27 78.3546 210.141 78.422 210.031C78.5872 209.831 78.803 209.679 79.047 209.59C79.291 209.502 79.5542 209.48 79.8093 209.528C80.3401 209.541 80.8468 209.752 81.2291 210.121C81.3106 210.209 81.3646 210.32 81.3845 210.439C81.4045 210.558 81.3895 210.68 81.3414 210.791C81.2934 210.902 81.2143 210.996 81.1137 211.063C81.0132 211.13 80.8955 211.166 80.7748 211.167Z" fill="#263238"/>
<path d="M75.3631 219.823C75.6329 220.123 75.9618 220.363 76.329 220.529C76.6962 220.695 77.0938 220.784 77.4969 220.789C77.8499 220.801 78.2027 220.76 78.5435 220.667L78.7382 220.61L78.9248 220.553C78.9667 220.534 79.0021 220.503 79.0266 220.465C79.0511 220.426 79.0637 220.38 79.0627 220.334V220.253V220.18C78.9735 219.523 78.7463 218.558 78.7463 218.558C79.0059 218.639 80.3121 218.988 80.2391 218.647C79.6792 215.718 78.8257 212.853 77.6916 210.096C77.6838 210.077 77.6693 210.062 77.6509 210.053C77.6325 210.044 77.6116 210.043 77.5922 210.049C77.5728 210.055 77.5565 210.068 77.5463 210.086C77.5362 210.104 77.533 210.124 77.5374 210.144C78.0323 212.854 79.0059 215.458 79.5495 218.176C79.0858 218.041 78.6046 217.975 78.1216 217.981C78.0323 218.022 78.5921 219.872 78.6084 220.172C78.0824 220.314 77.5333 220.348 76.9939 220.272C76.4545 220.197 75.9357 220.014 75.4686 219.734C75.3631 219.693 75.2982 219.758 75.3631 219.823Z" fill="#263238"/>
<path d="M78.1056 220.399C77.8268 220.923 77.4156 221.365 76.913 221.681C76.6348 221.848 76.3116 221.924 75.9881 221.9C75.2822 221.827 75.1768 221.21 75.1768 220.658C75.2008 220.366 75.258 220.078 75.3471 219.798C76.1787 220.288 77.1456 220.499 78.1056 220.399Z" fill="#263238"/>
<path d="M76.913 221.665C76.6348 221.832 76.3116 221.909 75.9881 221.884C75.2822 221.811 75.1768 221.194 75.1768 220.643C75.539 220.593 75.9076 220.666 76.2228 220.852C76.5379 221.037 76.7811 221.324 76.913 221.665Z" fill="#FF9ABB"/>
<path d="M82.7868 218.282C82.7868 218.282 82.4623 224.496 79.3144 224.699C77.4321 224.821 76.1908 223.012 76.1908 223.012H75.1523C75.1523 223.012 73.5865 226.63 70.2844 225.145C66.6741 223.523 65.2056 213.828 65.2056 213.828C65.2056 213.828 64.3132 218.217 62.4228 218.379C62.6342 220.544 63.025 222.688 63.5911 224.789C64.3294 227.831 68.7673 232.658 75.7608 232.374C78.6816 232.253 82.584 228.034 82.8842 224.918C83.0731 222.708 83.0404 220.485 82.7868 218.282Z" fill="#263238"/>
<path d="M63.7696 216.538C65.7573 216.538 65.952 211.954 65.952 211.954C65.952 211.954 70.9416 213.203 70.8199 206.558C70.8199 206.558 76.702 208.319 80.2474 206.258C83.2736 204.498 84.7583 199.216 82.4055 196.174C81.0749 194.462 77.4565 192.928 72.2478 198.291C72.2478 198.291 65.1488 193.707 62.8041 202.177C62.8041 202.177 59.2181 202.721 58.8936 206.234C58.3906 211.775 62.0577 216.57 63.7696 216.538Z" fill="#263238"/>
<path d="M70.8119 206.096C70.8119 206.083 70.8068 206.071 70.7977 206.062C70.7885 206.052 70.7762 206.047 70.7633 206.047C70.7503 206.047 70.738 206.052 70.7288 206.062C70.7197 206.071 70.7146 206.083 70.7146 206.096C71.0716 207.719 71.4366 209.455 70.1953 210.802C69.6372 211.448 68.881 211.891 68.0446 212.063C67.2081 212.235 66.3384 212.125 65.5708 211.751C65.4816 211.71 65.4005 211.848 65.4897 211.897C66.2432 212.261 67.0877 212.394 67.9165 212.278C68.7454 212.163 69.5214 211.804 70.1467 211.248C71.68 209.909 71.5178 207.873 70.8119 206.096Z" fill="#263238"/>
<path d="M63.8832 215.507C61.1085 214.184 58.9585 211.929 58.6258 208.74C58.4008 207.219 58.7508 205.669 59.6075 204.392C60.4188 203.256 61.7413 202.769 62.8528 202.096C62.8528 202.096 62.8528 202.023 62.8528 202.039C55.6483 204.092 57.4332 213.779 63.729 215.831C63.7691 215.838 63.8103 215.832 63.8465 215.813C63.8826 215.794 63.9116 215.764 63.929 215.727C63.9465 215.691 63.9514 215.649 63.9432 215.609C63.9349 215.57 63.9138 215.534 63.8832 215.507Z" fill="#263238"/>
<path d="M83.3306 196.206C80.1664 191.995 74.2601 195.078 72.0614 198.64C74.0735 195.963 78.3491 193.269 81.6106 195.232C85.5536 197.61 84.1662 204.668 79.7283 205.479C79.5985 205.479 79.631 205.731 79.7283 205.715C83.8823 205.276 85.6834 199.329 83.3306 196.206Z" fill="#263238"/>
<path d="M64.9137 217.341C64.9137 217.341 62.0092 213.333 60.1918 214.379C58.3745 215.426 60.5975 221.251 62.7718 222.022C63.0437 222.14 63.3367 222.202 63.6331 222.203C63.9295 222.205 64.2231 222.146 64.4962 222.031C64.7692 221.915 65.0161 221.746 65.2217 221.532C65.4273 221.319 65.5875 221.066 65.6925 220.789L64.9137 217.341Z" fill="#F7A9A0"/>
<path d="M60.8651 216.035V216.092C62.3904 216.676 63.2098 218.072 63.794 219.516C63.7037 219.366 63.582 219.237 63.4371 219.138C63.2921 219.04 63.1275 218.974 62.9547 218.945C62.7818 218.917 62.6048 218.926 62.4359 218.973C62.2671 219.02 62.1103 219.102 61.9766 219.216C61.9766 219.216 61.9766 219.305 61.9766 219.297C62.2408 219.205 62.5272 219.198 62.7952 219.278C63.0632 219.359 63.2991 219.521 63.4694 219.743C63.7596 220.108 64.0073 220.506 64.2077 220.927C64.2808 221.065 64.5241 220.992 64.4674 220.83C64.4917 218.867 62.9502 216.189 60.8651 216.035Z" fill="#263238"/>
<path d="M73.4165 232.26L70.1712 239.408L61.5713 229.818L58.8777 232.666C58.8777 232.666 67.1044 247.667 67.1856 247.01L70.4308 240.868L74.5766 245.411L74.6902 234.442L73.4165 232.26Z" fill="#EBEBEB"/>
<path d="M74.9578 239.993C74.9173 238.184 74.9578 236.359 74.7956 234.55C74.7956 234.485 74.6982 234.452 74.6739 234.55C74.2358 236.278 74.4386 243.206 74.3575 244.861C74.1871 244.667 70.5037 240.853 70.4631 240.91C69.7735 241.876 67.3801 246.346 67.2179 246.76C65.9198 244.375 60.9221 235.702 59.3562 233.438C59.347 233.426 59.334 233.418 59.3194 233.415C59.3049 233.412 59.2897 233.414 59.2764 233.42C59.2631 233.427 59.2525 233.438 59.2463 233.452C59.2402 233.465 59.2389 233.48 59.2426 233.495C60.3785 236.002 66.9907 247.677 67.0962 247.644C68.3513 245.544 69.4915 243.377 70.5118 241.154C71.1284 241.965 74.8199 246.265 74.8442 246.022C74.9902 244.016 75.0281 242.003 74.9578 239.993Z" fill="#263238"/>
<rect x="124.529" y="151.08" width="127.377" height="15.415" rx="7.7075" fill="#0076F8"/>
</g>
</svg>
