<svg width="343" height="418" viewBox="0 0 343 397" fill="none" xmlns="http://www.w3.org/2000/svg">
<path d="M262.372 74.6373V364.059C262.372 372.239 256.806 378.857 249.942 378.857H127.239C120.359 378.857 114.793 372.239 114.793 364.059V74.6373C114.793 57.9719 120.359 57.1592 127.239 57.1592H151.822C153.25 57.1592 154.418 58.9454 154.418 61.1603V62.1159C154.418 67.3049 156.998 67.3228 160.162 67.3228H217.003C220.199 67.3228 222.763 67.3228 222.763 62.1159V61.1603C222.763 58.9454 223.915 57.1592 225.368 57.1592H249.942C256.806 57.1592 262.372 59.3741 262.372 74.6373Z" fill="white"/>
<rect x="153.736" y="165.225" width="95.7353" height="8.03799" rx="4.019" fill="#CFDAD8"/>
<rect x="127.774" y="219.705" width="120.886" height="8.03799" rx="4.019" fill="#CFDAD8"/>
<rect x="154.548" y="273.292" width="94.1126" height="8.03799" rx="4.019" fill="#CFDAD8"/>
<rect x="153.736" y="177.729" width="95.7353" height="8.03799" rx="4.019" fill="#CFDAD8"/>
<rect x="127.774" y="232.208" width="120.886" height="8.03799" rx="4.019" fill="#CFDAD8"/>
<rect x="154.548" y="285.795" width="94.1126" height="8.03799" rx="4.019" fill="#CFDAD8"/>
<rect x="152.925" y="190.232" width="95.7353" height="8.03799" rx="4.019" fill="#CFDAD8"/>
<rect x="126.963" y="244.712" width="120.886" height="8.03799" rx="4.019" fill="#CFDAD8"/>
<rect x="153.736" y="298.299" width="94.1126" height="8.03799" rx="4.019" fill="#CFDAD8"/>
<rect x="166.718" y="330.451" width="81.9429" height="22.3277" rx="7" fill="#0064D2"/>
<path d="M33.832 263.368L23.1795 263.619L17.7761 263.717C15.975 263.761 14.1576 263.717 12.3484 263.77H11.9833V263.368L11.9427 253.375V252.928H12.3484L23.0902 252.982C26.6681 252.982 30.246 253.089 33.832 253.133H34.0511V253.375C34.0511 255.071 33.9781 256.759 33.9456 258.421L33.832 263.368ZM33.832 263.368L33.7185 258.322C33.7185 256.652 33.6211 255.009 33.6049 253.375L33.832 253.616C30.246 253.616 26.6681 253.759 23.0902 253.768L12.3484 253.821L12.7541 253.375L12.7054 263.368L12.3484 262.967C14.1171 262.967 15.8776 262.967 17.6544 263.02L22.9929 263.118L33.832 263.368Z" fill="#EBEBEB"/>
<path d="M21.8487 275.971L11.1962 276.222L5.7928 276.32C3.98356 276.364 2.17433 276.32 0.365093 276.373H0V275.971V265.978V265.531H0.397546L11.1394 265.585C14.7173 265.585 18.2952 265.692 21.8812 265.736H22.1002V265.978C22.1002 267.674 22.0272 269.362 21.9948 271.024L21.8487 275.971ZM21.8487 275.971L21.727 270.925C21.727 269.255 21.6378 267.612 21.6216 265.978L21.8487 266.219C18.2627 266.263 14.6848 266.362 11.1069 266.371L0.397546 266.424L0.795092 265.978L0.722074 275.971L0.365093 275.57C2.13376 275.57 3.89432 275.57 5.6711 275.623L11.0096 275.721L21.8487 275.971Z" fill="#EBEBEB"/>
<path d="M45.8311 275.971L35.1785 276.222L29.7752 276.32C27.974 276.364 26.1567 276.32 24.3475 276.373H23.9905V275.971V265.978V265.531H24.3961L35.138 265.585C38.7159 265.585 42.3019 265.692 45.8798 265.736H46.0988V265.978C46.0988 267.674 46.0339 269.362 45.9934 271.024L45.8311 275.971ZM45.8311 275.971L45.7175 270.925C45.7175 269.255 45.6202 267.612 45.612 265.978L45.8311 266.219C42.2532 266.263 38.6672 266.362 35.0893 266.371L24.3475 266.424L24.7531 265.978L24.6882 275.971L24.3312 275.57C26.0999 275.57 27.8686 275.57 29.6372 275.623L34.9757 275.721L45.8311 275.971Z" fill="#EBEBEB"/>
<path d="M330.822 275.971L320.178 276.222L314.774 276.32C312.965 276.364 311.148 276.32 309.338 276.373H308.981V275.971L308.933 265.978V265.531H309.338L320.08 265.585C323.666 265.585 327.244 265.692 330.822 265.736H331.049V265.978C331.049 267.674 330.976 269.362 330.944 271.024L330.822 275.971ZM330.822 275.971L330.708 270.925C330.708 269.255 330.619 267.612 330.603 265.978L330.822 266.219C327.244 266.263 323.666 266.362 320.08 266.371L309.338 266.424L309.744 265.978L309.703 275.971L309.338 275.57C311.107 275.57 312.876 275.57 314.652 275.623L319.991 275.721L330.822 275.971Z" fill="#EBEBEB"/>
<path d="M330.822 51.5945L320.178 51.7999L314.774 51.9071C312.965 51.9071 311.148 51.9071 309.338 51.9517H308.981V51.5588L308.933 41.5649V41.1094H309.338L320.08 41.163C323.666 41.163 327.244 41.2612 330.822 41.3059H331.049V41.547C331.049 43.235 330.976 44.923 330.944 46.5931L330.822 51.5945ZM330.822 51.5945L330.708 46.5395C330.708 44.8783 330.619 43.235 330.603 41.6006L330.822 41.8417C327.244 41.8417 323.666 41.9846 320.08 41.9846L309.338 42.0382L309.744 41.6006L309.703 51.5945L309.338 51.1926C311.107 51.1926 312.876 51.1926 314.652 51.1926L319.991 51.2998L330.822 51.5945Z" fill="#EBEBEB"/>
<path d="M342.773 64.1977L332.128 64.4388L326.725 64.546C324.916 64.546 323.106 64.546 321.289 64.546H320.932V64.153L320.883 54.1591V53.7036H321.289L332.031 53.7572C335.617 53.7572 339.195 53.8554 342.773 53.9001H343V54.1412C343 55.8292 342.927 57.5172 342.894 59.1873L342.773 64.1977ZM342.773 64.1977L342.659 59.1427C342.659 57.4815 342.57 55.8381 342.554 54.2038L342.773 54.4806C339.195 54.4806 335.617 54.6235 332.031 54.6235L321.289 54.6771L321.695 54.2395L321.678 64.1977L321.313 63.7958C323.09 63.7958 324.851 63.7958 326.627 63.7958L331.966 63.9029L342.773 64.1977Z" fill="#EBEBEB"/>
<path d="M21.8487 51.6034L11.1962 51.8535L5.7928 51.9517C3.98356 51.9517 2.17433 51.9517 0.365093 51.9517H0V51.5498V41.5559V41.1094H0.397546L11.1394 41.163C14.7173 41.163 18.2952 41.2612 21.8812 41.3059H22.1002V41.547C22.1002 43.2439 22.0272 44.923 21.9948 46.5931L21.8487 51.6034ZM21.8487 51.6034L21.727 46.5484C21.727 44.8872 21.6378 43.2439 21.6216 41.6095L21.8487 41.8507C18.2627 41.8507 14.6848 41.9936 11.1069 41.9936L0.397546 42.0561L0.795092 41.6095L0.722074 51.6034L0.397546 51.2015C2.16621 51.2015 3.92677 51.2015 5.70355 51.2551L11.042 51.3533L21.8487 51.6034Z" fill="#EBEBEB"/>
<path d="M71.3717 129.697L82.0242 129.447L87.4276 129.348C89.2368 129.348 91.0461 129.348 92.8553 129.304H93.2204V129.706L93.261 139.7V140.146H92.8878L82.1459 140.092C78.568 140.092 74.9901 139.994 71.4041 139.95H71.1851V139.708C71.1851 138.012 71.2581 136.332 71.2905 134.662L71.3717 129.697ZM71.3717 129.697L71.4934 134.752C71.4934 136.413 71.5826 138.056 71.5988 139.691L71.3717 139.449C74.9577 139.449 78.5356 139.307 82.1135 139.307L92.8553 139.244L92.4497 139.691L92.4983 129.697L92.8553 130.099C91.0866 130.099 89.3261 130.099 87.5493 130.045L82.2108 129.947L71.3717 129.697Z" fill="#EBEBEB"/>
<path d="M270.915 171.943L281.559 171.701L286.962 171.594C288.772 171.594 290.589 171.594 292.398 171.594H292.755V171.996L292.804 181.99V182.446H292.398L281.657 182.392C278.07 182.392 274.493 182.294 270.915 182.249H270.688V182.008C270.688 180.32 270.761 178.632 270.793 176.962L270.915 171.943ZM270.915 171.943L271.028 176.998C271.028 178.659 271.118 180.302 271.134 181.936L270.915 181.695C274.493 181.651 278.07 181.552 281.657 181.552L292.398 181.49L291.993 181.936V171.943L292.358 172.344C290.589 172.344 288.82 172.344 287.044 172.291L281.705 172.193L270.915 171.943Z" fill="#EBEBEB"/>
<path d="M83.3629 117.096L94.0073 116.846L99.4107 116.747C101.22 116.747 103.029 116.747 104.847 116.703H105.203V117.105L105.252 127.098V127.545H104.847L94.1047 127.491C90.5187 127.491 86.9408 127.393 83.3629 127.349H83.1519V127.107C83.1519 125.41 83.2249 123.731 83.2574 122.061L83.3629 117.096ZM83.3629 117.096L83.4764 122.151C83.4764 123.812 83.5657 125.455 83.5819 127.09L83.3629 126.848C86.9408 126.804 90.5187 126.705 94.1047 126.705L104.847 126.643L104.441 127.09V117.096L104.806 117.498C103.029 117.498 101.269 117.498 99.4918 117.444L94.1534 117.346L83.3629 117.096Z" fill="#EBEBEB"/>
<path d="M32.3147 0H31.5034V87.1497H32.3147V0Z" fill="#C7C7C7"/>
<path d="M59.3966 116.318L57.1898 121.668H6.62048L4.42181 116.318L25.946 99.9116H37.8724L59.3966 116.318Z" fill="#EBEBEB"/>
<path d="M39.3651 84.1133L37.8723 99.9124H25.9459L24.4531 84.1133H39.3651Z" fill="#DBDBDB"/>
<path d="M59.3965 116.319L57.1897 121.669H6.62035L4.41357 116.319H59.3965Z" fill="#DBDBDB"/>
<path d="M91.338 0H90.5267V69.8859H91.338V0Z" fill="#C7C7C7"/>
<path d="M118.42 99.0552L116.213 104.405H65.6518L63.4451 99.0552L84.9693 82.6577H96.8956L118.42 99.0552Z" fill="#EBEBEB"/>
<path d="M98.3885 66.8486L96.8957 82.6567H84.9693L83.4765 66.8486H98.3885Z" fill="#DBDBDB"/>
<path d="M118.42 99.0552L116.213 104.405H65.6437L63.4451 99.0552H118.42Z" fill="#DBDBDB"/>
<path d="M171.585 415C260.403 415 332.404 408.758 332.404 401.059C332.404 393.359 260.403 387.117 171.585 387.117C82.7671 387.117 10.766 393.359 10.766 401.059C10.766 408.758 82.7671 415 171.585 415Z" fill="#EBEBEB"/>
<path d="M267.32 352.154L276.736 351.94L286.154 351.86L304.986 351.708L323.818 351.86L333.235 351.94L342.651 352.154L333.235 352.378L323.818 352.449L304.986 352.601L286.154 352.449L276.736 352.378L267.32 352.154Z" fill="#263238"/>
<path d="M302.572 202.039C302.572 202.039 283.433 199.092 287.904 173.656C287.904 173.656 309.29 178.943 302.572 202.039Z" fill="#FFC727"/>
<path opacity="0.1" d="M302.572 202.039C302.572 202.039 283.433 199.092 287.904 173.656C287.904 173.656 309.29 178.943 302.572 202.039Z" fill="black"/>
<path d="M301.607 196.735C301.234 195.449 300.796 194.181 300.301 192.939C300.301 192.778 300.301 192.618 300.252 192.457C300.252 192.109 300.196 191.76 300.171 191.412C300.114 190.653 300.074 189.894 300.033 189.134C299.952 187.616 299.863 186.089 299.847 184.571C299.847 184.49 299.725 184.49 299.725 184.571C299.725 186.098 299.725 187.616 299.725 189.143C299.725 189.903 299.79 190.662 299.839 191.421C299.839 191.591 299.839 191.751 299.839 191.921C298.761 189.389 297.477 186.971 296.001 184.696C295.347 183.684 294.649 182.71 293.908 181.775C293.145 180.82 292.334 179.9 291.563 178.953C291.514 178.89 291.433 178.953 291.482 179.042C292.858 180.717 294.093 182.526 295.173 184.446C295.75 185.41 296.301 186.41 296.796 187.42L296.618 187.339L295.936 187.036L294.37 186.384L291.287 185.124C291.23 185.124 291.19 185.214 291.287 185.24C292.31 185.687 293.316 186.134 294.322 186.643L295.806 187.339L296.553 187.679C296.711 187.769 296.881 187.835 297.056 187.875C297.445 188.643 297.867 189.402 298.175 190.188C299.07 192.158 299.853 194.186 300.52 196.261C300.52 196.404 300.609 196.547 300.658 196.699C300.153 196.376 299.627 196.096 299.084 195.86L297.104 194.868C295.766 194.189 294.427 193.502 293.145 192.698C293.08 192.698 293.024 192.778 293.088 192.814C294.403 193.609 295.693 194.448 297.007 195.234C297.664 195.627 298.329 196.011 299.003 196.369C299.562 196.734 300.17 197.002 300.804 197.164C301.442 199.091 301.862 201.098 302.053 203.138C302.272 206.014 302.248 208.917 302.305 211.802C302.305 211.802 302.37 211.802 302.378 211.802C302.565 209.194 302.67 206.55 302.686 203.924C302.674 201.48 302.309 199.054 301.607 196.735V196.735Z" fill="#263238"/>
<path d="M298.654 181.774C298.471 183.254 298.409 184.748 298.467 186.24H298.524C298.605 184.748 298.613 183.266 298.767 181.774C298.775 181.721 298.662 181.694 298.654 181.774Z" fill="#263238"/>
<path d="M293.186 183.089C292.337 182.734 291.522 182.288 290.752 181.758C290.695 181.713 290.638 181.83 290.695 181.874C291.464 182.438 292.303 182.878 293.186 183.178C293.197 183.178 293.207 183.173 293.214 183.165C293.222 183.157 293.226 183.145 293.226 183.133C293.226 183.122 293.222 183.11 293.214 183.102C293.207 183.094 293.197 183.089 293.186 183.089V183.089Z" fill="#263238"/>
<path d="M303.181 242.427C303.181 240.096 303.124 237.765 303.1 235.443C303.059 227.708 303.002 219.974 302.881 212.222C302.778 206.089 302.648 199.953 302.491 193.815C302.49 193.798 302.485 193.782 302.477 193.767C302.468 193.753 302.456 193.742 302.443 193.734V188.706C302.443 188.661 302.394 188.644 302.353 188.644C302.313 188.644 302.256 188.644 302.256 188.706V193.743C302.256 193.743 302.207 193.788 302.207 193.815C301.931 204.737 301.68 215.669 301.615 226.592C301.615 228.816 301.615 231.057 301.615 233.263C301.55 240.408 301.526 247.532 301.542 254.635V258.038C301.542 264.558 301.607 271.078 301.607 277.588C301.607 277.946 301.956 278.115 302.337 278.133C302.718 278.151 303.221 277.963 303.221 277.562C303.221 270.372 303.27 263.191 303.27 256.002C303.197 251.483 303.213 246.955 303.181 242.427Z" fill="#263238"/>
<path d="M295.189 235.352C295.189 235.352 285.981 227.841 277.243 232.914C268.505 237.987 267.134 257.546 267.134 257.546C267.134 257.546 279.969 259.565 288.05 251.098C295.83 242.926 295.189 235.352 295.189 235.352Z" fill="#FFC727"/>
<path opacity="0.1" d="M295.189 235.352C295.189 235.352 285.981 227.841 277.243 232.914C268.505 237.987 267.134 257.546 267.134 257.546C267.134 257.546 279.969 259.565 288.05 251.098C295.83 242.926 295.189 235.352 295.189 235.352Z" fill="black"/>
<path d="M297.696 235.782C296.005 235.041 294.173 234.777 292.366 235.014C291.993 234.946 291.616 234.904 291.238 234.889L289.94 234.782L287.255 234.577C285.437 234.425 283.62 234.3 281.803 234.103C281.738 234.103 281.73 234.219 281.803 234.228C283.596 234.478 285.38 234.764 287.182 234.961C288.106 235.068 289.031 235.175 289.956 235.246L290.63 235.318C290.354 235.38 290.078 235.452 289.818 235.541C288.372 236 286.974 236.625 285.648 237.408C284.926 237.551 284.204 237.774 283.49 237.962C282.354 238.256 281.218 238.578 280.091 238.855C277.851 239.507 275.637 240.23 273.422 240.936C273.407 240.936 273.392 240.942 273.381 240.954C273.371 240.966 273.365 240.982 273.365 240.998C273.365 241.015 273.371 241.031 273.381 241.042C273.392 241.054 273.407 241.061 273.422 241.061C275.637 240.462 277.868 239.917 280.091 239.337L283.336 238.444C283.612 238.363 283.896 238.301 284.147 238.229C281.676 239.912 279.467 242.023 277.608 244.481C275.809 246.902 274.28 249.553 273.057 252.376C273.057 252.448 273.113 252.519 273.154 252.448C274.667 249.547 276.516 246.875 278.655 244.499C278.655 244.633 278.574 244.767 278.541 244.901L278.03 246.687C277.689 247.884 277.34 249.072 277.016 250.26C277.016 250.34 277.105 250.367 277.129 250.26C277.519 249.108 277.884 247.938 278.257 246.777C278.436 246.205 278.622 245.633 278.801 245.071C278.898 244.767 278.987 244.472 279.077 244.178C279.111 244.087 279.141 243.995 279.166 243.901C280.189 242.806 281.272 241.783 282.411 240.837C283.923 239.611 285.556 238.578 287.279 237.756C287.279 237.935 287.222 238.113 287.19 238.274C287.1 238.739 287.003 239.167 286.914 239.658C286.735 240.623 286.565 241.588 286.395 242.543C286.054 244.508 285.835 246.491 285.502 248.456C285.502 248.472 285.508 248.488 285.519 248.5C285.529 248.511 285.544 248.518 285.559 248.518C285.574 248.518 285.588 248.511 285.599 248.5C285.61 248.488 285.616 248.472 285.616 248.456C286.03 246.491 286.557 244.544 286.963 242.57C287.157 241.579 287.36 240.596 287.547 239.605C287.636 239.14 287.717 238.712 287.806 238.212C287.855 237.953 287.904 237.694 287.936 237.435C288.098 237.363 288.261 237.274 288.431 237.211C290.865 236.22 293.518 235.505 296.09 236.05C297.309 236.299 298.452 236.877 299.419 237.731C300.386 238.585 301.146 239.689 301.631 240.944C301.72 241.159 302.037 241.025 301.988 240.802C301.67 239.659 301.117 238.612 300.373 237.742C299.629 236.872 298.713 236.201 297.696 235.782V235.782Z" fill="#263238"/>
<path d="M283.604 244.167L282.793 248.016C282.502 249.249 282.288 250.503 282.152 251.768C282.152 251.812 282.217 251.812 282.225 251.768C282.573 250.53 282.844 249.268 283.036 247.99C283.263 246.721 283.482 245.453 283.71 244.185C283.707 244.172 283.702 244.161 283.693 244.152C283.685 244.143 283.674 244.137 283.663 244.135C283.651 244.134 283.639 244.136 283.629 244.141C283.618 244.147 283.61 244.156 283.604 244.167V244.167Z" fill="#263238"/>
<path d="M274.704 247.392C273.527 248.053 272.391 248.794 271.166 249.33C271.159 249.333 271.153 249.338 271.148 249.344C271.143 249.35 271.139 249.358 271.136 249.366C271.134 249.373 271.132 249.382 271.133 249.39C271.133 249.399 271.135 249.407 271.138 249.415C271.141 249.422 271.146 249.429 271.151 249.435C271.157 249.44 271.163 249.445 271.171 249.448C271.178 249.451 271.185 249.452 271.193 249.452C271.201 249.451 271.208 249.449 271.215 249.446C272.417 248.847 273.59 248.179 274.728 247.445C274.728 247.445 274.728 247.392 274.704 247.392Z" fill="#263238"/>
<path d="M297.258 221.562C297.258 221.562 286.005 222.348 280.772 214.185C275.539 206.022 276.716 194.349 276.716 194.349C276.716 194.349 288.529 195.93 293.226 201.798C297.924 207.666 297.258 221.562 297.258 221.562Z" fill="#FFC727"/>
<path d="M302.54 233.781C302.15 232.459 301.664 231.146 301.209 229.842C300.755 228.538 300.309 227.359 299.814 226.136C298.808 223.639 297.681 221.204 296.439 218.839C295.627 217.33 294.816 215.874 293.916 214.427C293.916 214.213 293.859 213.99 293.834 213.775C293.778 213.391 293.729 213.007 293.672 212.623C293.559 211.837 293.437 211.051 293.315 210.274C293.064 208.559 292.739 206.863 292.504 205.148C292.504 205.067 292.374 205.067 292.382 205.148C292.609 206.836 292.764 208.533 292.983 210.23C293.088 211.06 293.185 211.891 293.299 212.721C293.34 213.016 293.38 213.32 293.429 213.614C291.709 210.856 289.85 208.206 287.863 205.675C287.595 205.326 287.311 204.996 287.052 204.657C287.052 204.567 286.987 204.469 286.955 204.371C286.865 204.139 286.784 203.906 286.703 203.665L286.216 202.192C285.9 201.218 285.624 200.236 285.405 199.244C285.405 199.164 285.275 199.244 285.291 199.244C285.518 200.262 285.762 201.281 286.03 202.281C286.159 202.763 286.305 203.245 286.46 203.719L286.541 203.96C285.105 202.236 283.604 200.566 282.087 198.923C282.03 198.869 281.957 198.923 282.005 199.021C284.915 202.358 287.582 205.941 289.981 209.738C289.715 209.641 289.444 209.564 289.169 209.506C288.301 209.319 287.433 209.185 286.557 209.06C284.723 208.801 282.898 208.551 281.072 208.229C280.991 208.229 280.967 208.336 281.072 208.354C282.817 208.738 284.545 209.167 286.273 209.604C287.084 209.81 287.896 209.988 288.707 210.167C289.376 210.323 290.035 210.529 290.678 210.783L291.23 211.676C292.041 212.998 292.853 214.356 293.624 215.713L292.471 215.463C291.603 215.276 290.735 215.106 289.859 214.945C288.147 214.642 286.427 214.311 284.731 213.882C284.658 213.882 284.626 213.99 284.731 214.007C286.451 214.454 288.163 214.972 289.867 215.472C290.678 215.713 291.49 215.937 292.358 216.142L293.607 216.437C293.773 216.48 293.941 216.513 294.11 216.535C295.733 219.464 297.272 222.462 298.727 225.529C299.351 226.877 299.96 228.208 300.544 229.61C301.128 231.012 301.656 232.45 302.215 233.879C302.207 234.21 302.629 234.093 302.54 233.781Z" fill="#263238"/>
<path d="M291.019 205.317C290.808 204.129 290.581 202.95 290.346 201.744C290.346 201.664 290.216 201.7 290.232 201.744C290.443 202.905 290.646 204.066 290.841 205.236C290.997 206.403 291.211 207.56 291.482 208.702C291.482 208.702 291.482 208.702 291.482 208.702C291.401 207.563 291.247 206.431 291.019 205.317V205.317Z" fill="#263238"/>
<path d="M284.456 204.969C283.937 204.683 283.385 204.451 282.833 204.219L281.981 203.853L281.543 203.665C281.379 203.608 281.221 203.53 281.073 203.433C280.983 203.361 280.935 203.522 281.016 203.54C281.183 203.587 281.344 203.659 281.494 203.754L281.924 203.969L282.736 204.371C283.277 204.647 283.832 204.888 284.399 205.094C284.48 205.121 284.521 205.005 284.456 204.969Z" fill="#263238"/>
<path d="M308.779 211.818C308.779 211.818 315.586 197.814 325.947 195.644C336.307 193.474 342.652 205.218 342.652 205.218C342.652 205.218 335.09 215.837 325.614 217.722C316.138 219.606 308.779 211.818 308.779 211.818Z" fill="#FFC727"/>
<path d="M332.891 201.923C330.196 201.527 327.464 201.563 324.778 202.03L325.241 201.762L327.545 200.458C329.167 199.565 330.741 198.574 332.413 197.841C332.427 197.834 332.437 197.821 332.443 197.805C332.448 197.789 332.447 197.772 332.441 197.756C332.434 197.741 332.423 197.729 332.408 197.723C332.394 197.717 332.378 197.718 332.364 197.725C330.741 198.556 329.07 199.252 327.439 200.074C326.628 200.485 325.817 200.914 325.005 201.378C324.494 201.673 323.926 201.958 323.423 202.316C321.149 202.818 318.939 203.625 316.843 204.718L318.133 203.164C319.099 202.003 320.048 200.78 321.111 199.726C321.168 199.663 321.111 199.574 321.03 199.636C319.943 200.717 318.799 201.717 317.785 202.852C317.273 203.396 316.787 203.959 316.316 204.548C316.073 204.834 315.837 205.138 315.61 205.442C312.054 207.54 308.965 210.479 306.563 214.047C304.162 217.616 302.508 221.726 301.72 226.081C301.72 226.162 301.81 226.206 301.834 226.081C303.292 220.742 305.906 215.871 309.452 211.89C313.261 207.611 318.058 204.557 323.326 203.057C326.453 202.18 329.687 201.854 332.907 202.092C332.917 202.08 332.924 202.066 332.929 202.051C332.933 202.036 332.935 202.02 332.933 202.004C332.932 201.988 332.927 201.972 332.92 201.958C332.913 201.944 332.903 201.932 332.891 201.923V201.923Z" fill="#263238"/>
<path opacity="0.1" d="M342.652 205.219C342.652 205.219 335.09 215.838 325.614 217.723C318.361 219.134 312.398 214.972 309.972 212.918L309.453 211.98C309.453 211.98 314.32 207.425 323.634 204.835C332.948 202.245 342.652 205.219 342.652 205.219Z" fill="black"/>
<path d="M326.871 196.93C326.079 197.441 325.313 197.999 324.575 198.601C323.851 199.202 323.18 199.878 322.571 200.619C322.523 200.682 322.571 200.762 322.661 200.708C323.35 200.056 324.04 199.395 324.754 198.77C325.452 198.149 326.18 197.571 326.936 197.038C327.001 197.002 326.936 196.886 326.871 196.93Z" fill="#263238"/>
<path d="M332.559 199.306C332.177 199.476 331.747 199.628 331.399 199.807L330.246 200.333C330.165 200.333 330.206 200.521 330.287 200.485L331.439 199.967L332.591 199.423C332.664 199.396 332.632 199.271 332.559 199.306Z" fill="#263238"/>
<path d="M307.416 229.441C307.416 229.441 309.241 243.337 318.726 248.196C328.21 253.054 339.779 248.196 339.779 248.196C339.779 248.196 335.236 218.143 307.416 229.441Z" fill="#FFC727"/>
<path opacity="0.1" d="M307.416 229.441C307.416 229.441 309.241 243.337 318.726 248.196C328.21 253.054 339.779 248.196 339.779 248.196C339.779 248.196 335.236 218.143 307.416 229.441Z" fill="black"/>
<path d="M333.248 239.158C332.372 239.051 331.496 238.881 330.636 238.712L329.362 238.444L328.689 238.301C328.437 238.033 328.186 237.765 327.926 237.515C326.123 235.776 324.179 234.225 322.117 232.879C320.994 232.152 319.835 231.496 318.644 230.915H318.823L321.946 231.066C324.023 231.174 326.109 231.227 328.194 231.37C328.267 231.37 328.259 231.245 328.194 231.245C326.109 231.084 324.032 230.834 321.938 230.638L318.904 230.343L317.346 230.191L316.941 230.147C316.405 229.923 315.862 229.709 315.318 229.521C312.731 228.544 309.948 228.374 307.278 229.03C304.893 229.709 302.507 231.433 301.891 234.201C301.891 234.291 302.004 234.362 302.037 234.264C302.929 231.951 305.282 230.781 307.375 230.298C308.791 230.001 310.242 229.971 311.667 230.209C311.766 230.924 311.926 231.626 312.146 232.308C312.414 233.29 312.673 234.264 312.957 235.237C313.493 237.193 314.085 239.122 314.58 241.078C314.576 241.088 314.575 241.098 314.576 241.108C314.577 241.118 314.58 241.128 314.585 241.137C314.591 241.145 314.598 241.152 314.606 241.157C314.614 241.161 314.623 241.164 314.632 241.164C314.642 241.164 314.651 241.161 314.659 241.157C314.667 241.152 314.674 241.145 314.679 241.137C314.685 241.128 314.688 241.118 314.689 241.108C314.69 241.098 314.689 241.088 314.685 241.078C314.247 239.131 313.874 237.157 313.452 235.211C313.241 234.246 313.022 233.29 312.803 232.335C312.683 231.666 312.523 231.006 312.324 230.361C313.146 230.523 313.958 230.735 314.758 230.995C316.224 231.474 317.66 232.056 319.058 232.737C319.196 233.728 319.399 234.701 319.602 235.684C319.861 236.907 320.153 238.122 320.502 239.319C320.499 239.328 320.498 239.339 320.499 239.349C320.5 239.359 320.503 239.369 320.508 239.377C320.513 239.386 320.52 239.392 320.528 239.397C320.537 239.402 320.546 239.405 320.555 239.405C320.564 239.405 320.573 239.402 320.582 239.397C320.59 239.392 320.597 239.386 320.602 239.377C320.607 239.369 320.611 239.359 320.612 239.349C320.613 239.339 320.611 239.328 320.608 239.319C320.598 239.244 320.585 239.169 320.567 239.096V239.096C320.356 237.961 320.129 236.836 319.91 235.693C319.732 234.8 319.569 233.862 319.391 232.951C320.572 233.528 321.726 234.172 322.847 234.88C322.847 235.157 322.936 235.452 322.977 235.711C323.042 236.184 323.123 236.657 323.196 237.131C323.374 238.202 323.569 239.274 323.804 240.337C324.232 242.384 324.774 244.401 325.427 246.374C325.42 246.386 325.416 246.4 325.416 246.415C325.416 246.429 325.42 246.443 325.427 246.455L325.484 246.526C325.524 246.58 325.589 246.526 325.581 246.455C325.143 244.401 324.64 242.355 324.226 240.292C324.023 239.265 323.821 238.229 323.626 237.193L323.358 235.639C323.358 235.496 323.318 235.336 323.293 235.175C324.571 235.986 325.804 236.881 326.985 237.854C329.04 239.541 330.942 241.444 332.664 243.534C332.729 243.615 332.859 243.534 332.802 243.409C332.095 242.355 331.339 241.342 330.538 240.373C330.06 239.81 329.565 239.265 329.062 238.729H329.216L330.555 238.953C331.431 239.078 332.315 239.176 333.191 239.283C333.289 239.292 333.321 239.167 333.248 239.158Z" fill="#263238"/>
<path d="M326.547 243.864C326.547 243.748 326.547 243.623 326.49 243.507C326.433 243.391 326.393 243.203 326.376 243.051C326.182 242.158 326.019 241.185 325.865 240.247C325.865 240.184 325.76 240.202 325.768 240.247C325.824 241.491 326.068 242.717 326.49 243.873H326.555L326.547 243.864Z" fill="#263238"/>
<path d="M318.636 243.64C318.635 243.625 318.628 243.611 318.617 243.601C318.607 243.591 318.593 243.586 318.58 243.586C318.312 242.354 318.052 241.121 317.825 239.889C317.703 239.237 317.582 238.585 317.468 237.933C317.403 237.576 317.346 237.227 317.29 236.879C317.264 236.572 317.195 236.27 317.087 235.986C317.083 235.974 317.075 235.964 317.066 235.957C317.057 235.95 317.045 235.947 317.034 235.947C317.023 235.947 317.012 235.95 317.002 235.957C316.993 235.964 316.986 235.974 316.981 235.986C316.971 236.615 317.051 237.242 317.217 237.844C317.33 238.522 317.452 239.201 317.59 239.871C317.866 241.246 318.174 242.613 318.531 243.961C318.536 243.975 318.544 243.987 318.555 243.995C318.566 244.003 318.579 244.008 318.592 244.008C318.605 244.008 318.618 244.003 318.629 243.995C318.64 243.987 318.648 243.975 318.653 243.961C318.645 243.818 318.645 243.747 318.636 243.64Z" fill="#263238"/>
<path d="M332.38 235.156C330.644 234.897 328.916 234.62 327.18 234.387C327.107 234.387 327.074 234.504 327.18 234.512C328.916 234.789 330.652 235.03 332.38 235.281C332.429 235.289 332.453 235.164 332.38 235.156Z" fill="#263238"/>
<path d="M302.556 196.869C302.556 196.869 296.747 168.798 324.113 157.474C324.113 157.474 331.699 194.386 302.556 196.869Z" fill="#FFC727"/>
<path d="M308.463 180.962L308.755 180.766L310.304 179.81L313.477 177.863C315.57 176.577 317.631 175.237 319.732 173.978C319.739 173.975 319.746 173.97 319.751 173.963C319.757 173.956 319.761 173.949 319.764 173.94C319.766 173.932 319.767 173.923 319.766 173.914C319.765 173.905 319.763 173.897 319.759 173.889C319.755 173.882 319.749 173.875 319.743 173.87C319.736 173.865 319.729 173.861 319.721 173.859C319.713 173.858 319.705 173.858 319.697 173.86C319.689 173.862 319.682 173.866 319.675 173.871C317.566 175.13 315.424 176.309 313.298 177.542L310.167 179.328L308.885 180.078C309.793 178.176 310.775 176.3 311.846 174.505C313.274 172.103 314.84 169.816 316.47 167.575C316.543 167.476 316.422 167.342 316.341 167.432C313.937 169.997 311.813 172.863 310.012 175.97C310.012 175.872 310.012 175.773 310.012 175.684C310.012 174.987 310.053 174.291 310.069 173.585C310.069 172.219 310.029 170.852 310.069 169.486C310.069 169.478 310.068 169.469 310.065 169.462C310.062 169.454 310.058 169.447 310.053 169.442C310.047 169.436 310.041 169.431 310.034 169.428C310.027 169.425 310.02 169.423 310.012 169.423C310.005 169.423 309.998 169.425 309.991 169.428C309.984 169.431 309.977 169.436 309.972 169.442C309.967 169.447 309.963 169.454 309.96 169.462C309.957 169.469 309.956 169.478 309.956 169.486C309.899 170.834 309.753 172.165 309.688 173.523C309.647 174.193 309.623 174.862 309.607 175.541C309.607 175.898 309.566 176.318 309.607 176.711C309.047 177.702 308.503 178.703 307.984 179.721C307.069 181.546 306.256 183.431 305.55 185.365C305.55 184.669 305.477 183.972 305.445 183.267C305.364 181.739 305.193 180.203 305.136 178.667C305.132 178.653 305.123 178.642 305.113 178.633C305.102 178.625 305.089 178.62 305.076 178.62C305.062 178.62 305.049 178.625 305.038 178.633C305.028 178.642 305.019 178.653 305.015 178.667C305.015 180.203 305.015 181.739 305.015 183.275C305.015 184.044 305.055 184.812 305.104 185.571L305.153 186.464C304.279 188.969 303.587 191.546 303.084 194.171C302.613 196.972 302.274 199.798 302.07 202.638C302.07 202.638 302.07 202.638 302.07 202.638C302.362 200.082 302.848 197.558 303.522 195.091C303.863 193.769 304.22 192.412 304.601 191.144C305.745 190.554 306.832 189.813 307.935 189.143C309.039 188.473 310.223 187.768 311.367 187.08C313.647 185.696 315.927 184.294 318.288 183.079C318.353 183.079 318.288 182.936 318.223 182.963C315.838 184.16 313.436 185.285 311.091 186.535C309.923 187.187 308.779 187.875 307.643 188.581C306.694 189.17 305.712 189.759 304.804 190.438C305.071 189.545 305.347 188.697 305.615 187.83C306.483 185.535 307.416 183.222 308.463 180.962Z" fill="#263238"/>
<path d="M306.159 174.55C306.154 174.537 306.146 174.525 306.135 174.517C306.124 174.508 306.111 174.504 306.098 174.504C306.085 174.504 306.072 174.508 306.061 174.517C306.05 174.525 306.042 174.537 306.037 174.55C306.142 176.149 306.191 177.748 306.345 179.338C306.345 179.427 306.475 179.427 306.467 179.338C306.418 177.73 306.264 176.149 306.159 174.55Z" fill="#263238"/>
<path d="M319.245 179.909C317.533 180.668 315.805 181.392 314.101 182.169C314.053 182.169 314.101 182.276 314.101 182.258C315.829 181.544 317.533 180.767 319.253 180.034C319.383 179.998 319.35 179.873 319.245 179.909Z" fill="#263238"/>
<path d="M321.882 167.013C320.204 167.854 318.578 168.815 317.014 169.888C317.003 169.892 316.994 169.898 316.986 169.907C316.978 169.915 316.971 169.925 316.968 169.937C316.964 169.948 316.962 169.96 316.963 169.972C316.964 169.984 316.967 169.996 316.973 170.007C316.979 170.017 316.987 170.026 316.996 170.033C317.005 170.039 317.016 170.043 317.027 170.045C317.038 170.046 317.049 170.045 317.059 170.041C317.07 170.037 317.079 170.031 317.087 170.022C318.71 168.995 320.332 168.022 321.955 167.12C322.012 167.013 321.947 166.941 321.882 167.013Z" fill="#263238"/>
<path d="M321.468 257.502H281.997V303.301H321.468V257.502Z" fill="#455A64"/>
<path d="M281.3 273.712H279.28V352.163H281.3V273.712Z" fill="#263238"/>
<path d="M323.975 273.712H321.955V352.163H323.975V273.712Z" fill="#263238"/>
<path d="M303.708 273.712H301.688V352.163H303.708V273.712Z" fill="#263238"/>
<path d="M322.961 300.362H280.294V306.703H322.961V300.362Z" fill="#263238"/>
<path d="M257.025 47.0571H119.864C118.025 47.0758 116.208 47.4931 114.515 48.285C112.823 49.077 111.288 50.2282 110 51.673C108.712 53.1177 107.695 54.8276 107.007 56.705C106.319 58.5825 105.973 60.5907 105.991 62.6151V373.417C105.958 377.505 107.401 381.44 110.003 384.357C112.604 387.274 116.151 388.935 119.864 388.975H257.025C260.74 388.935 264.289 387.275 266.892 384.358C269.496 381.441 270.943 377.507 270.915 373.417V62.6151C270.945 58.5251 269.499 54.5891 266.895 51.6719C264.29 48.7547 260.741 47.0949 257.025 47.0571V47.0571ZM262.234 363.816C262.234 371.997 256.668 378.615 249.804 378.615H127.101C120.221 378.615 114.655 371.997 114.655 363.816V74.3952C114.655 57.7298 120.221 56.9171 127.101 56.9171H151.684C153.112 56.9171 154.28 58.7033 154.28 60.9182V61.8738C154.28 67.0628 156.86 67.0807 160.024 67.0807H216.865C220.062 67.0807 222.625 67.0807 222.625 61.8738V60.9182C222.625 58.7033 223.777 56.9171 225.23 56.9171H249.804C256.668 56.9171 262.234 59.132 262.234 74.3952V363.816Z" fill="#263238"/>
<path d="M262.234 74.3942V133.777H114.655V74.3942C114.655 57.7287 120.221 56.916 127.101 56.916H151.684C153.112 56.916 154.28 58.7022 154.28 60.9171V61.8728C154.28 67.0617 156.86 67.0796 160.024 67.0796H216.865C220.062 67.0796 222.625 67.0796 222.625 61.8728V60.9171C222.625 58.7022 223.777 56.916 225.23 56.916H249.804C256.668 56.916 262.234 59.1309 262.234 74.3942Z" fill="#0064D2"/>
<path d="M147.433 63.4099L147.198 63.6689L147.068 63.8207C146.46 63.1526 145.635 62.7774 144.776 62.7774C143.917 62.7774 143.092 63.1526 142.484 63.8207L142.378 63.6778L142.151 63.4188C142.249 63.3206 142.346 63.2223 142.451 63.133C142.92 62.709 143.478 62.4231 144.074 62.3024C144.228 62.3024 144.382 62.3024 144.537 62.231C144.691 62.1595 144.926 62.231 144.934 62.231H145.251C145.528 62.272 145.8 62.3469 146.062 62.4543C146.259 62.5342 146.449 62.6328 146.63 62.749C146.823 62.8734 147.007 63.0137 147.181 63.1687L147.425 63.4188L147.433 63.4099Z" fill="white"/>
<path d="M143.238 64.6516L142.865 64.2407C143.269 63.764 143.806 63.4497 144.39 63.3476C144.806 63.2801 145.23 63.3208 145.629 63.4666C146.028 63.6124 146.39 63.8592 146.686 64.1871L146.313 64.598C145.906 64.1491 145.352 63.897 144.776 63.897C144.199 63.897 143.646 64.1491 143.238 64.598V64.6516Z" fill="white"/>
<path d="M145.932 65.0631L145.559 65.474C145.453 65.3559 145.327 65.2631 145.187 65.2017C145.048 65.1402 144.898 65.1112 144.748 65.1167C144.597 65.1128 144.448 65.1425 144.309 65.2039C144.169 65.2653 144.042 65.3572 143.936 65.474L143.571 65.0631C143.723 64.8861 143.906 64.745 144.109 64.6486C144.312 64.5522 144.53 64.5024 144.752 64.5024C144.973 64.5024 145.191 64.5522 145.394 64.6486C145.597 64.745 145.78 64.8861 145.932 65.0631V65.0631Z" fill="white"/>
<path d="M145.113 65.8483C145.113 65.9224 145.093 65.995 145.055 66.0567C145.018 66.1183 144.965 66.1664 144.902 66.1948C144.84 66.2232 144.771 66.2306 144.705 66.2162C144.639 66.2017 144.579 66.166 144.531 66.1135C144.483 66.061 144.451 65.9942 144.438 65.9214C144.424 65.8487 144.431 65.7732 144.457 65.7047C144.483 65.6362 144.526 65.5776 144.583 65.5364C144.639 65.4951 144.704 65.4731 144.772 65.4731C144.862 65.4731 144.949 65.5127 145.013 65.583C145.077 65.6534 145.113 65.7488 145.113 65.8483Z" fill="white"/>
<path d="M124.277 64.2052C124.277 63.9914 124.335 63.7825 124.443 63.6048C124.551 63.4271 124.704 63.2886 124.883 63.2068C125.063 63.125 125.26 63.1036 125.451 63.1453C125.641 63.187 125.816 63.2899 125.953 63.441C126.091 63.5922 126.184 63.7847 126.222 63.9943C126.26 64.204 126.24 64.4213 126.166 64.6187C126.092 64.8162 125.966 64.985 125.804 65.1037C125.643 65.2225 125.453 65.2858 125.259 65.2858C124.999 65.2858 124.749 65.172 124.565 64.9693C124.381 64.7667 124.277 64.4918 124.277 64.2052Z" fill="white"/>
<path d="M127.361 64.2051C127.361 63.991 127.419 63.7817 127.527 63.6038C127.635 63.4259 127.789 63.2874 127.969 63.2059C128.149 63.1244 128.346 63.1035 128.537 63.1459C128.728 63.1884 128.903 63.2922 129.039 63.4442C129.176 63.5962 129.269 63.7896 129.306 63.9998C129.343 64.2101 129.323 64.4276 129.247 64.6249C129.172 64.8222 129.044 64.9904 128.882 65.108C128.719 65.2257 128.529 65.2876 128.334 65.2858C128.206 65.2858 128.079 65.2578 127.96 65.2034C127.841 65.149 127.734 65.0692 127.643 64.9688C127.553 64.8683 127.481 64.7491 127.433 64.618C127.384 64.487 127.36 64.3466 127.361 64.2051V64.2051Z" fill="white"/>
<path d="M130.436 64.2052C130.436 63.9914 130.493 63.7825 130.601 63.6048C130.709 63.4271 130.862 63.2886 131.042 63.2068C131.221 63.125 131.419 63.1036 131.609 63.1453C131.799 63.187 131.974 63.2899 132.112 63.441C132.249 63.5922 132.342 63.7847 132.38 63.9943C132.418 64.204 132.399 64.4213 132.324 64.6187C132.25 64.8162 132.124 64.985 131.963 65.1037C131.801 65.2225 131.612 65.2858 131.417 65.2858C131.157 65.2858 130.907 65.172 130.723 64.9693C130.539 64.7667 130.436 64.4918 130.436 64.2052Z" fill="white"/>
<path d="M133.518 64.2052C133.518 63.9914 133.576 63.7825 133.684 63.6048C133.792 63.4271 133.945 63.2886 134.125 63.2068C134.304 63.125 134.501 63.1036 134.692 63.1453C134.882 63.187 135.057 63.2899 135.194 63.441C135.332 63.5922 135.425 63.7847 135.463 63.9943C135.501 64.204 135.481 64.4213 135.407 64.6187C135.333 64.8162 135.207 64.985 135.046 65.1037C134.884 65.2225 134.694 65.2858 134.5 65.2858C134.24 65.2858 133.99 65.172 133.806 64.9693C133.622 64.7667 133.518 64.4918 133.518 64.2052Z" fill="white"/>
<path d="M136.601 64.2051C136.601 63.991 136.659 63.7817 136.767 63.6038C136.876 63.4259 137.029 63.2874 137.209 63.2059C137.389 63.1244 137.587 63.1035 137.778 63.1459C137.968 63.1884 138.143 63.2922 138.28 63.4442C138.417 63.5962 138.51 63.7896 138.547 63.9998C138.584 64.2101 138.563 64.4276 138.488 64.6249C138.412 64.8222 138.285 64.9904 138.123 65.108C137.96 65.2257 137.769 65.2876 137.575 65.2858C137.446 65.2858 137.319 65.2578 137.201 65.2034C137.082 65.149 136.974 65.0692 136.884 64.9688C136.793 64.8683 136.722 64.7491 136.673 64.618C136.625 64.487 136.6 64.3466 136.601 64.2051V64.2051Z" fill="white"/>
<path d="M251.159 66.5544H243.2V62.5176H251.159V66.5544ZM243.606 66.1079H250.754V62.9463H243.606V66.1079Z" fill="white"/>
<path d="M248.993 63.1875H243.858V65.8668H248.993V63.1875Z" fill="white"/>
<path d="M251.873 63.4453H251.168V65.6156H251.873V63.4453Z" fill="white"/>
<path d="M196.201 60.597H180.697C180.571 60.597 180.447 60.5697 180.33 60.5168C180.214 60.4638 180.109 60.3862 180.02 60.2883C179.931 60.1905 179.86 60.0743 179.812 59.9464C179.764 59.8186 179.739 59.6815 179.739 59.5431V59.5431C179.739 59.4047 179.764 59.2677 179.812 59.1398C179.86 59.012 179.931 58.8958 180.02 58.7979C180.109 58.7001 180.214 58.6224 180.33 58.5695C180.447 58.5165 180.571 58.4893 180.697 58.4893H196.201C196.327 58.4893 196.451 58.5165 196.567 58.5695C196.683 58.6224 196.789 58.7001 196.878 58.7979C196.967 58.8958 197.037 59.012 197.085 59.1398C197.134 59.2677 197.158 59.4047 197.158 59.5431V59.5431C197.158 59.6815 197.134 59.8186 197.085 59.9464C197.037 60.0743 196.967 60.1905 196.878 60.2883C196.789 60.3862 196.683 60.4638 196.567 60.5168C196.451 60.5697 196.327 60.597 196.201 60.597V60.597Z" fill="white"/>
<path d="M121.933 135.655C121.475 140.349 119.347 144.653 116.014 147.626C112.682 150.598 108.416 151.997 104.149 151.517C100.692 151.129 97.4428 149.515 94.8918 146.917L86.7787 148.23L90.8353 140.522C89.8779 138.004 89.4576 135.278 89.6065 132.553C89.7555 129.829 90.4698 127.178 91.6945 124.804C92.9193 122.431 94.6219 120.398 96.6717 118.861C98.7214 117.325 101.064 116.326 103.519 115.942C105.974 115.558 108.476 115.798 110.834 116.644C113.191 117.49 115.341 118.92 117.119 120.824C118.896 122.727 120.253 125.054 121.087 127.625C121.92 130.196 122.207 132.943 121.925 135.655H121.933Z" fill="white"/>
<path d="M121.933 135.656C121.625 138.937 120.502 142.061 118.688 144.685C117.795 146.005 116.725 147.167 115.515 148.133C114.325 149.131 113.011 149.937 111.613 150.526C110.213 151.129 108.744 151.514 107.248 151.67C106.501 151.745 105.75 151.763 105.001 151.723C104.249 151.699 103.501 151.613 102.761 151.464C99.7772 150.861 97.0044 149.355 94.7538 147.115L94.9485 147.177L86.8354 148.544L86.2431 148.642L86.5433 148.07L90.5999 140.354V140.657C89.6501 138.103 89.2461 135.343 89.4191 132.59C89.5922 129.837 90.3376 127.164 91.5978 124.778C92.8584 122.399 94.592 120.366 96.6685 118.83C98.7415 117.321 101.098 116.348 103.56 115.983C106.023 115.618 108.529 115.871 110.891 116.722C113.233 117.596 115.368 119.037 117.138 120.938C118.895 122.833 120.239 125.142 121.069 127.691C121.9 130.24 122.195 132.963 121.933 135.656ZM121.933 135.656C122.191 132.972 121.886 130.259 121.041 127.725C120.197 125.191 118.835 122.904 117.062 121.041C115.288 119.177 113.15 117.787 110.811 116.976C108.473 116.165 105.996 115.956 103.573 116.365C101.175 116.762 98.8906 117.758 96.8957 119.276C94.9063 120.799 93.2447 122.784 92.0278 125.091C90.831 127.399 90.1263 129.976 89.967 132.628C89.82 135.277 90.2108 137.928 91.111 140.39L91.1678 140.55L91.0867 140.693L87.0301 148.392L86.738 147.918L94.8512 146.668H94.9647L95.0459 146.748C97.2069 148.978 99.8902 150.5 102.794 151.143C103.518 151.307 104.254 151.406 104.993 151.437C105.73 151.495 106.47 151.495 107.207 151.437C108.686 151.31 110.141 150.958 111.532 150.392C112.931 149.837 114.246 149.054 115.434 148.07C116.035 147.577 116.606 147.043 117.146 146.472C117.672 145.894 118.162 145.28 118.615 144.632C120.451 142.034 121.599 138.927 121.933 135.656Z" fill="#263238"/>
<path d="M103.938 143.961L97.0255 136.254L99.3459 133.726L103.386 138.227L111.775 123.75L114.534 125.679L103.938 143.961Z" fill="#FFC727"/>
<path d="M54.9669 283.769H58.1067L58.1067 232.156H54.9669L54.9669 283.769Z" fill="#DBDBDB"/>
<path d="M23.7312 283.769H26.871L26.871 232.156H23.7312L23.7312 283.769Z" fill="#DBDBDB"/>
<path d="M53.7338 236.219H59.1858V228.262H53.7338V236.219Z" fill="#263238"/>
<path d="M22.571 236.219H28.023V228.262H22.571V236.219Z" fill="#263238"/>
<path d="M22.5712 226.243V232.245H30.3841L31.9175 233.442H49.8395L51.3729 232.245H59.1777V226.243H51.3729L49.8395 227.44H31.9175L30.3841 226.243H22.5712Z" fill="#263238"/>
<path d="M6.49909 391.326H75.3392L75.3392 283.769H6.49909L6.49909 391.326Z" fill="#FFC727"/>
<path opacity="0.1" d="M6.49909 391.326H75.3392L75.3392 283.769H6.49909L6.49909 391.326Z" fill="black"/>
<path d="M14.0524 383.001H67.7859L67.7859 292.083H14.0524L14.0524 383.001Z" fill="#FFC727"/>
<g opacity="0.1">
<path opacity="0.1" d="M61.8958 295.957C61.7498 302.888 61.6849 309.818 61.6281 316.749L61.5469 337.54L61.6281 358.332L61.7254 368.728L61.8958 379.133L62.0743 368.728L62.1716 358.332L62.2528 337.54L62.1716 316.749C62.1149 309.818 62.0581 302.888 61.8958 295.957Z" fill="black"/>
<path opacity="0.1" d="M54.9426 295.957C54.7966 302.888 54.7317 309.818 54.6749 316.749L54.5938 337.54L54.6749 358.332L54.7722 368.728L54.9426 379.133L55.1211 368.728L55.2185 358.332L55.2996 337.54L55.2185 316.749C55.1617 309.818 55.0887 302.888 54.9426 295.957Z" fill="black"/>
<path opacity="0.1" d="M47.9895 295.957C47.8435 302.888 47.7786 309.818 47.7218 316.749L47.6326 337.54L47.7137 358.332L47.8192 368.728L47.9895 379.133L48.1599 368.728L48.2654 358.332L48.3465 337.54L48.2654 316.749C48.2005 309.818 48.1356 302.888 47.9895 295.957Z" fill="black"/>
<path opacity="0.1" d="M41.0367 295.957C40.8907 302.888 40.8177 309.818 40.7609 316.749L40.6797 337.54L40.7609 358.332L40.8582 368.728L41.0367 379.133L41.2071 368.728L41.3045 358.332L41.3856 337.54L41.3045 316.749C41.2477 309.818 41.1828 302.888 41.0367 295.957Z" fill="black"/>
<path opacity="0.1" d="M34.0838 295.957C33.9377 302.888 33.8647 309.818 33.8079 316.749L33.7268 337.54L33.8079 358.332L33.9053 368.728L34.0838 379.133L34.2542 368.728L34.3515 358.332L34.4326 337.54L34.3515 316.749C34.2947 309.818 34.2298 302.888 34.0838 295.957Z" fill="black"/>
<path opacity="0.1" d="M27.1225 295.957C26.9764 302.888 26.9115 309.818 26.8548 316.749L26.7736 337.54L26.8548 358.332L26.9521 368.728L27.1225 379.133L27.301 368.728L27.3983 358.332L27.4795 337.54L27.3983 316.749C27.3415 309.818 27.2685 302.888 27.1225 295.957Z" fill="black"/>
<path opacity="0.1" d="M20.1697 295.957C20.0237 302.888 19.9588 309.818 19.902 316.749L19.8209 337.54L19.902 358.332L19.9994 368.728L20.1697 379.133L20.3482 368.728L20.4456 358.332L20.5267 337.54L20.4456 316.749C20.3888 309.818 20.3158 302.888 20.1697 295.957Z" fill="black"/>
</g>
<path d="M75.3389 383.047H62.3741L57.1817 391.326H75.3389V383.047Z" fill="#263238"/>
<path d="M6.49902 383.047H19.4638L24.6482 391.326H6.49902V383.047Z" fill="#263238"/>
<path d="M75.3392 308.658L78.9577 307.873V298.95L75.3392 298.173V308.658Z" fill="#263238"/>
<path d="M75.3392 376.91L78.9577 376.133V367.211L75.3392 366.425V376.91Z" fill="#263238"/>
<path d="M0.519531 337.542C0.519531 353.895 4.138 363.925 4.138 363.925H6.49893V348.742H3.50517V326.298H6.49893V311.115H4.138C4.138 311.115 0.519531 321.189 0.519531 337.542Z" fill="#263238"/>
<path d="M2.67767 358.504C3.05994 360.343 3.5477 362.154 4.13804 363.925H6.49897V358.504H2.67767Z" fill="#DBDBDB"/>
<path d="M2.67767 316.581H6.49897V311.16H4.13804C3.5477 312.931 3.05994 314.742 2.67767 316.581V316.581Z" fill="#DBDBDB"/>
<path d="M40.566 277.963C25.7108 277.963 22.2627 281.947 22.2627 281.947V283.733H31.0574V281.223H50.0665V283.733H59.567V281.947C59.567 281.947 55.4131 277.963 40.566 277.963Z" fill="#263238"/>
<path d="M67.1772 397.962H70.3819L72.5075 391.326H65.5789L67.5666 394.648L67.1772 397.962Z" fill="#263238"/>
<path d="M64.1995 399.98C64.1995 400.943 64.4589 401.884 64.9447 402.684C65.4306 403.485 66.1211 404.109 66.9291 404.477C67.7371 404.846 68.6261 404.942 69.4838 404.754C70.3416 404.566 71.1294 404.103 71.7478 403.422C72.3662 402.741 72.7873 401.874 72.9579 400.93C73.1285 399.986 73.041 399.007 72.7063 398.118C72.3716 397.228 71.8049 396.468 71.0778 395.933C70.3506 395.398 69.4957 395.113 68.6212 395.113C68.0402 395.112 67.4648 395.237 66.9278 395.481C66.3909 395.725 65.903 396.084 65.4922 396.536C65.0814 396.988 64.7558 397.525 64.5339 398.116C64.3121 398.707 64.1985 399.341 64.1995 399.98Z" fill="#263238"/>
<path d="M14.6606 397.962H11.4559L9.33026 391.326H16.2508L14.2712 394.648L14.6606 397.962Z" fill="#263238"/>
<path d="M17.6384 399.98C17.6384 400.943 17.3791 401.884 16.8933 402.684C16.4074 403.485 15.7168 404.109 14.9089 404.477C14.1009 404.846 13.2119 404.942 12.3542 404.754C11.4964 404.566 10.7086 404.103 10.0902 403.422C9.4718 402.741 9.05068 401.874 8.88007 400.93C8.70946 399.986 8.79702 399.007 9.13169 398.118C9.46635 397.228 10.0331 396.468 10.7602 395.933C11.4874 395.398 12.3423 395.113 13.2168 395.113C13.7977 395.112 14.3732 395.237 14.9101 395.481C15.4471 395.725 15.935 396.084 16.3458 396.536C16.7566 396.988 17.0822 397.525 17.304 398.116C17.5259 398.707 17.6395 399.341 17.6384 399.98V399.98Z" fill="#263238"/>
<path d="M116.481 410.902C114.599 411.161 63.2829 397.978 61.6116 396.201C61.4088 396.005 63.8346 385.162 63.8346 385.162C64.6459 380.697 76.4668 344.258 76.4668 344.258L110.015 353.376L97.342 387.145C97.342 387.145 103.735 391.905 109.236 396.451C111.668 398.33 113.991 400.376 116.189 402.578C117.828 404.739 118.355 410.661 116.481 410.902Z" fill="#AD6359"/>
<path d="M116.481 410.902C114.598 411.161 63.2827 397.979 61.6195 396.202C61.4166 396.005 63.8425 385.154 63.8425 385.154C64.1102 383.698 65.7247 378.768 67.7936 372.811L99.9055 381.046L97.3417 387.145C97.3417 387.145 103.735 391.906 109.236 396.452C111.665 398.336 113.987 400.382 116.189 402.578C117.836 404.749 118.355 410.661 116.481 410.902Z" fill="#EBEBEB"/>
<path d="M116.627 411.063C114.68 411.286 62.9502 398.559 61.2627 396.657C60.6136 395.969 65.2057 377.625 65.2219 377.518L98.3317 385.556L98.1938 386.172C98.1938 386.172 114.834 400.22 116.497 402.48C118.16 404.74 118.566 410.831 116.627 411.063Z" fill="#FFC727"/>
<path d="M116.489 408.714C107.816 406.365 72.6051 397.595 63.8996 395.96C63.8266 395.96 63.8185 395.96 63.8996 396.023C72.4509 398.595 107.711 407.008 116.473 408.875C116.643 408.911 116.676 408.768 116.489 408.714Z" fill="#263238"/>
<path d="M100.855 386.003C97.6098 384.457 93.253 384.002 90.0808 386.003C89.9591 386.083 90.0808 386.27 90.1781 386.262C93.6896 385.907 97.2254 385.967 100.725 386.44C100.77 386.436 100.812 386.417 100.847 386.387C100.882 386.356 100.908 386.315 100.922 386.269C100.936 386.222 100.937 386.172 100.925 386.125C100.913 386.077 100.889 386.035 100.855 386.003V386.003Z" fill="#263238"/>
<path d="M102.997 388.261C99.7111 386.707 95.3949 386.252 92.2227 388.261C92.101 388.342 92.2227 388.538 92.32 388.52C95.8316 388.164 99.3679 388.227 102.867 388.708C102.913 388.705 102.958 388.687 102.995 388.656C103.032 388.625 103.059 388.583 103.073 388.534C103.087 388.486 103.088 388.433 103.074 388.384C103.06 388.336 103.033 388.293 102.997 388.261Z" fill="#263238"/>
<path d="M105.139 390.513C101.893 388.959 97.5365 388.504 94.3643 390.513C94.2426 390.593 94.3643 390.79 94.4616 390.772C97.9735 390.425 101.509 390.488 105.009 390.96C105.055 390.957 105.1 390.939 105.136 390.908C105.173 390.877 105.201 390.835 105.215 390.786C105.229 390.737 105.229 390.685 105.215 390.636C105.202 390.588 105.175 390.545 105.139 390.513V390.513Z" fill="#263238"/>
<path d="M106.996 378.876C106.063 376.509 103.362 376.804 101.666 377.777C98.7699 379.494 96.3376 382.024 94.6157 385.11C94.6074 385.123 94.6021 385.139 94.6001 385.155C94.5981 385.171 94.5995 385.188 94.6042 385.203C94.6089 385.219 94.6168 385.233 94.6272 385.244C94.6377 385.256 94.6504 385.265 94.6644 385.27C94.646 385.343 94.6438 385.42 94.6581 385.495C94.6724 385.569 94.7027 385.638 94.7464 385.697C94.7902 385.756 94.8461 385.802 94.9095 385.832C94.9729 385.862 95.0418 385.874 95.1106 385.869C98.1774 385.413 101.512 385.351 104.36 383.868C106.023 383.011 107.873 381.126 106.996 378.876ZM99.6296 384.136C98.1287 384.395 96.6196 384.583 95.1268 384.904C96.4633 383.432 97.8659 382.034 99.3294 380.715C100.045 380.091 100.799 379.521 101.585 379.01C102.818 378.242 107.305 377.063 105.852 381.055C105.057 383.252 101.423 383.823 99.6296 384.136V384.136Z" fill="#263238"/>
<path d="M86.0892 381.975C88.653 383.993 91.9145 384.735 94.8595 385.797C95.1597 385.905 95.395 385.583 95.395 385.288C95.4097 385.287 95.424 385.282 95.4364 385.273C95.4489 385.265 95.4592 385.253 95.4664 385.238C95.4737 385.224 95.4776 385.208 95.4779 385.192C95.4782 385.176 95.4748 385.16 95.468 385.145C94.2948 381.771 92.3363 378.796 89.7888 376.518C88.2798 375.223 85.6755 374.392 84.3611 376.518C83.0468 378.644 84.5964 380.796 86.0892 381.975ZM85.0913 378.903C84.3287 374.687 88.5475 376.741 89.6266 377.75C90.3148 378.414 90.9626 379.127 91.5656 379.885C92.785 381.472 93.9304 383.127 94.9975 384.842C93.5858 384.225 92.1335 383.743 90.6975 383.181C88.9856 382.511 85.5132 381.225 85.0913 378.903V378.903Z" fill="#263238"/>
<path d="M99.9622 385.877L64.1751 377.053C64.1751 377.053 93.6989 286.465 91.0783 282.652C89.7721 280.74 56.6136 280.178 46.0665 270.345C32.3715 257.573 41.5637 238.05 41.5637 238.05L78.5922 236.844C78.5922 236.844 78.1459 245.355 79.5901 246.668C80.5393 247.561 124.659 251.607 129.51 267.969C135.449 288.019 99.9622 385.877 99.9622 385.877Z" fill="#0064D2"/>
<path d="M101.001 378.751C100.06 378.313 90.8189 375.429 88.75 374.839C84.5799 373.669 80.4016 372.517 76.2152 371.436C74.0328 370.865 69.3515 369.65 69.0756 369.65C69.0455 369.65 69.0166 369.663 68.9953 369.687C68.974 369.71 68.962 369.742 68.962 369.775C68.962 369.808 68.974 369.84 68.9953 369.864C69.0166 369.887 69.0455 369.9 69.0756 369.9C73.1322 371.302 77.2861 372.526 81.4157 373.767C85.5453 375.009 99.719 378.813 100.944 378.965C101.001 379.001 101.123 378.813 101.001 378.751Z" fill="#263238"/>
<path d="M97.407 279.276C96.6687 278.57 95.549 278.49 94.616 278.32L78.5844 275.355C73.5786 274.462 68.5485 273.614 63.5751 272.56C59.4536 271.667 55.2591 270.506 51.6893 268.041C48.1907 265.624 45.5988 261.902 44.3875 257.555C43.2571 253.205 42.937 248.649 43.4463 244.159C43.5356 243.069 43.7222 241.971 43.9088 240.89C43.9088 240.81 43.8033 240.783 43.7871 240.89C42.4322 249.241 42.3105 258.931 47.9978 265.585C50.7725 268.826 54.5776 270.729 58.4638 271.97C62.853 273.363 67.4369 274.015 71.9316 274.846L88.02 277.758C90.5919 278.222 93.2043 278.597 95.7519 279.178C96.2671 279.25 96.7521 279.486 97.1473 279.856C97.3349 280.151 97.4537 280.491 97.4933 280.848C97.5329 281.204 97.4921 281.566 97.3745 281.902C97.1149 283.286 96.7741 284.652 96.4172 286.01C93.4964 296.968 73.8058 364.47 73.2297 365.675C73.1648 365.8 73.3514 365.899 73.4082 365.774C78.2761 356.164 92.5877 300.577 95.8249 290.199C96.6816 287.572 97.3835 284.887 97.9262 282.161C98.0885 281.116 98.1939 280.008 97.407 279.276Z" fill="#263238"/>
<path d="M187.139 411.51C185.346 412.171 133.981 411.376 132.026 410.001C131.263 409.206 130.663 401.963 130.2 392.978L121.365 354.413L154.402 354.119L164.081 392.415C164.081 392.415 171.212 395.684 177.419 398.935C180.141 400.245 182.788 401.736 185.346 403.4C187.341 405.178 188.932 410.831 187.139 411.51Z" fill="#AD6359"/>
<path d="M188.193 411.545C186.335 412.224 133.316 411.947 131.304 410.527C130.533 410 130.119 401.507 129.892 391.227C129.892 391.111 129.892 391.004 129.892 390.897L164.097 390.665V391.299C164.097 391.299 184.38 401.382 186.416 403.204C188.453 405.026 190.043 410.885 188.193 411.545Z" fill="#FFC727"/>
<path d="M167.902 390.789C164.389 390.047 160.081 390.619 157.355 393.361C157.249 393.468 157.355 393.629 157.509 393.584C160.875 392.41 164.346 391.638 167.861 391.28C167.915 391.275 167.965 391.25 168.004 391.209C168.042 391.167 168.066 391.112 168.07 391.053C168.075 390.994 168.061 390.935 168.03 390.887C167.999 390.838 167.954 390.804 167.902 390.789Z" fill="#263238"/>
<path d="M170.433 392.486C166.92 391.745 162.612 392.316 159.886 395.058C159.781 395.156 159.886 395.326 160.04 395.282C163.415 394.107 166.894 393.332 170.417 392.968C170.446 392.97 170.475 392.964 170.502 392.953C170.529 392.942 170.553 392.926 170.574 392.904C170.596 392.882 170.613 392.857 170.625 392.828C170.637 392.799 170.643 392.768 170.644 392.736C170.645 392.704 170.641 392.673 170.631 392.643C170.621 392.614 170.606 392.586 170.586 392.563C170.566 392.54 170.543 392.521 170.517 392.508C170.49 392.495 170.462 392.487 170.433 392.486V392.486Z" fill="#263238"/>
<path d="M172.965 394.184C169.444 393.442 165.144 394.014 162.418 396.747C162.312 396.854 162.418 397.015 162.572 396.979C165.939 395.807 169.409 395.031 172.924 394.666C172.953 394.669 172.982 394.665 173.01 394.656C173.037 394.647 173.063 394.631 173.085 394.611C173.107 394.591 173.126 394.566 173.139 394.538C173.153 394.509 173.161 394.479 173.164 394.447C173.166 394.415 173.163 394.383 173.155 394.353C173.146 394.323 173.132 394.294 173.114 394.27C173.095 394.245 173.073 394.225 173.047 394.21C173.022 394.196 172.994 394.186 172.965 394.184V394.184Z" fill="#263238"/>
<path d="M172.51 382.385C171.139 380.277 168.559 381.206 167.083 382.555C164.595 384.923 162.715 387.969 161.631 391.387C161.625 391.402 161.623 391.418 161.625 391.434C161.626 391.449 161.631 391.465 161.639 391.478C161.647 391.491 161.658 391.502 161.671 391.509C161.683 391.517 161.697 391.521 161.712 391.521C161.71 391.597 161.724 391.672 161.752 391.741C161.781 391.809 161.824 391.87 161.877 391.917C161.93 391.965 161.993 391.998 162.06 392.015C162.127 392.031 162.197 392.031 162.263 392.013C165.168 390.843 168.413 389.994 170.912 387.878C172.397 386.645 173.808 384.368 172.51 382.385ZM166.344 389.253C164.924 389.86 163.488 390.396 162.093 391.039C163.094 389.284 164.177 387.588 165.338 385.957C165.918 385.177 166.544 384.441 167.212 383.751C168.267 382.715 172.413 380.509 171.78 384.743C171.464 387.109 168.032 388.503 166.344 389.253Z" fill="#263238"/>
<path d="M152.698 390.29C155.586 391.665 158.921 391.612 162.004 391.96C162.072 391.96 162.139 391.943 162.2 391.909C162.261 391.876 162.314 391.828 162.355 391.768C162.396 391.708 162.424 391.639 162.436 391.565C162.448 391.491 162.445 391.416 162.426 391.344C162.44 391.338 162.453 391.329 162.463 391.318C162.473 391.306 162.481 391.292 162.486 391.276C162.491 391.261 162.492 391.244 162.49 391.228C162.488 391.212 162.483 391.196 162.475 391.183C160.649 388.156 158.13 385.713 155.173 384.101C153.445 383.207 150.735 382.993 149.875 385.395C149.015 387.798 151.011 389.531 152.698 390.29ZM151.116 387.61C149.55 383.672 154.069 384.69 155.319 385.413C156.123 385.895 156.896 386.438 157.631 387.039C159.133 388.304 160.576 389.652 161.955 391.076C160.454 390.808 158.937 390.674 157.428 390.468C155.627 390.174 151.984 389.736 151.116 387.61Z" fill="#263238"/>
<path d="M166.555 391.066H127.994C127.994 391.066 111.491 303.792 108.571 299.683C104.676 294.209 50.1559 294.325 38.5055 276.463C28.007 260.431 36.8828 237.737 36.8828 237.737L78.1463 236.389C77.2178 241.256 75.94 246.034 74.325 250.678C74.325 250.678 124.026 260.762 137.948 277.472C147.335 288.814 166.555 391.066 166.555 391.066Z" fill="#0064D2"/>
<path d="M81.5294 247.552C80.3305 247.838 79.1595 248.251 78.0326 248.784C76.8481 249.276 75.6798 249.838 74.5439 250.455C72.3025 251.676 70.1223 253.03 68.0128 254.509C67.9479 254.509 68.0128 254.661 68.0778 254.616C70.3089 253.348 72.613 252.196 74.9253 251.106L78.2598 249.526C79.4069 249.045 80.5307 248.5 81.6267 247.891C81.7484 247.802 81.6673 247.516 81.5294 247.552Z" fill="#263238"/>
<path d="M79.0305 236.353C78.56 238.425 78.1462 240.506 77.6026 242.56C77.3592 243.507 77.1158 244.462 76.7913 245.373C76.5155 246.141 76.1017 247.026 75.2904 247.16C74.3574 247.356 74.0896 246.481 74.1626 245.632C74.2357 244.784 74.4709 243.73 74.6413 242.801C74.836 241.729 75.0389 240.649 75.2174 239.568C75.2985 239.032 75.3958 238.496 75.477 237.952C75.477 237.818 75.5906 236.782 75.6555 236.487C75.6555 236.487 75.6555 236.54 75.7123 236.531C75.726 236.532 75.7394 236.526 75.7498 236.516C75.7602 236.507 75.7671 236.493 75.769 236.478C75.769 236.398 75.769 236.38 75.7204 236.326C75.7076 236.315 75.6919 236.309 75.6758 236.309C75.6596 236.309 75.6439 236.315 75.6311 236.326C75.4526 236.433 75.4445 236.71 75.3877 236.907C75.2336 237.425 75.0794 237.952 74.9415 238.478C74.6819 239.47 74.4223 240.461 74.1951 241.461C73.9679 242.462 73.7489 243.453 73.5217 244.453C73.2849 245.189 73.2234 245.979 73.3432 246.749C73.4301 247.114 73.6197 247.439 73.885 247.678C74.1503 247.917 74.4775 248.058 74.8198 248.079C74.7826 248.142 74.75 248.208 74.7225 248.276C74.6413 248.481 74.5764 248.696 74.5034 248.91C74.4304 249.124 74.3736 249.339 74.3168 249.553C74.2862 249.657 74.2672 249.765 74.26 249.875C74.26 249.991 74.26 250.116 74.26 250.232C74.246 250.274 74.248 250.321 74.2655 250.362C74.283 250.404 74.3146 250.435 74.3533 250.451C74.392 250.466 74.4347 250.464 74.472 250.445C74.5093 250.425 74.5381 250.391 74.5521 250.348C74.6041 250.249 74.661 250.154 74.7225 250.062C74.7766 249.95 74.8228 249.834 74.8604 249.714C74.9253 249.508 74.974 249.294 75.0226 249.089C75.0713 248.883 75.1281 248.669 75.1687 248.455C75.2092 248.24 75.1687 248.196 75.1687 248.07C75.5617 248.029 75.9374 247.872 76.2558 247.615C76.7875 247.118 77.1789 246.464 77.3836 245.731C77.6675 244.837 77.8866 243.944 78.1056 243.051C78.6792 240.869 79.0809 238.637 79.3064 236.38C79.2926 236.354 79.2735 236.332 79.2506 236.316C79.2277 236.301 79.2017 236.291 79.1747 236.288C79.1478 236.286 79.1206 236.29 79.0955 236.301C79.0705 236.313 79.0482 236.33 79.0305 236.353V236.353Z" fill="#263238"/>
<path d="M162.564 383.466C161.538 383.337 160.506 383.265 159.473 383.252L156.228 383.118C154.064 383.047 151.928 383.005 149.818 382.993C145.51 382.993 141.21 382.993 136.91 383.055C134.663 383.055 129.852 383.163 129.608 383.261C129.584 383.268 129.563 383.284 129.548 383.306C129.533 383.327 129.525 383.354 129.525 383.381C129.525 383.409 129.533 383.435 129.548 383.457C129.563 383.479 129.584 383.495 129.608 383.502C133.876 383.752 138.151 383.824 142.427 383.913C146.703 384.002 150.97 384.074 155.238 383.993C156.422 383.993 157.607 383.922 158.783 383.886C160.035 383.898 161.286 383.838 162.531 383.707C162.661 383.69 162.702 383.484 162.564 383.466Z" fill="#263238"/>
<path d="M113.065 300.246C112.704 298.941 112.157 297.708 111.442 296.593C110.577 295.658 109.473 295.035 108.278 294.807C97.999 291.708 87.3951 290.341 76.9454 288.144C71.7898 287.126 66.6959 285.76 61.6926 284.054C56.6128 282.394 51.7584 279.99 47.2593 276.909C45.0642 275.353 43.2437 273.236 41.9533 270.737C40.7676 268.324 39.9248 265.724 39.4544 263.03C38.3307 256.878 38.3307 250.542 39.4544 244.391C39.7334 242.859 40.0854 241.345 40.5092 239.854C40.5092 239.764 40.4118 239.729 40.3793 239.854C38.4459 245.784 37.6557 252.092 38.059 258.377C38.4322 263.834 39.6329 269.576 42.8376 273.908C44.5008 276.016 46.5136 277.756 48.7684 279.034C51.1269 280.461 53.5658 281.72 56.0702 282.803C60.934 284.885 65.9426 286.531 71.0471 287.724C81.4725 290.261 92.1413 291.556 102.534 294.101C103.824 294.423 105.106 294.753 106.38 295.11C107.696 295.349 108.973 295.8 110.169 296.45C111.402 297.298 111.791 298.995 112.302 300.406C112.838 301.96 129.6 379.607 129.973 381.17C129.99 381.219 130.022 381.259 130.064 381.282C130.107 381.305 130.155 381.31 130.201 381.295C130.246 381.28 130.284 381.247 130.308 381.203C130.332 381.158 130.34 381.105 130.33 381.054C128.894 374.642 114.152 303.309 113.065 300.246Z" fill="#263238"/>
<path d="M110.023 301.872C109.633 300.506 109.293 299.041 108.132 298.219C106.972 297.398 90.4863 294.959 88.6609 294.647C88.5716 294.647 88.5392 294.781 88.6609 294.799C90.2835 295.093 105.488 298.094 106.851 298.594C107.43 298.775 107.947 299.142 108.335 299.648C108.743 300.346 109.036 301.117 109.203 301.926C109.674 303.551 115.751 331.648 116.627 335.408C116.692 335.694 117.065 335.56 117.016 335.283C115.791 328.254 110.51 303.605 110.023 301.872Z" fill="#263238"/>
<path d="M74.5034 250.769C82.1223 251.778 89.6526 253.477 97.0174 255.85C104.439 258.144 111.698 261.033 118.736 264.496C122.679 266.452 126.501 268.631 130.289 270.917C130.371 270.962 130.289 271.087 130.225 271.042C123.401 267.162 116.354 263.776 109.13 260.905C101.951 258.022 94.6025 255.677 87.1356 253.886C82.933 252.876 78.6979 252.099 74.4547 251.322C74.1464 251.269 74.2275 250.742 74.5034 250.769Z" fill="#263238"/>
<path d="M111.735 159.349L104.246 185.767C104.162 185.912 104.114 186.079 104.108 186.25C104.102 186.422 104.139 186.592 104.214 186.743C104.288 186.894 104.399 187.02 104.533 187.107C104.667 187.195 104.82 187.241 104.976 187.241L117.519 188.018C117.903 188.01 118.276 187.882 118.597 187.65C118.917 187.418 119.171 187.09 119.329 186.705L126.825 160.314C127.125 159.546 126.825 158.885 126.095 158.849L113.552 158.081C113.172 158.084 112.799 158.204 112.478 158.428C112.157 158.652 111.899 158.972 111.735 159.349V159.349Z" fill="#37474F"/>
<path d="M113.227 159.43L105.739 185.812C105.439 186.58 105.739 187.241 106.461 187.286L119.004 188.063C119.389 188.054 119.765 187.926 120.087 187.692C120.408 187.458 120.663 187.128 120.821 186.741L128.31 160.358C128.61 159.59 128.31 158.93 127.588 158.885L115.037 158.081C114.65 158.093 114.274 158.227 113.954 158.466C113.633 158.704 113.381 159.039 113.227 159.43V159.43Z" fill="#455A64"/>
<path d="M116.603 160.858C116.586 161.088 116.509 161.307 116.38 161.488C116.25 161.67 116.076 161.805 115.877 161.877C115.678 161.95 115.464 161.956 115.263 161.895C115.061 161.834 114.88 161.709 114.742 161.536C114.604 161.362 114.516 161.148 114.489 160.919C114.462 160.691 114.496 160.459 114.589 160.252C114.681 160.045 114.826 159.872 115.007 159.756C115.188 159.64 115.396 159.585 115.605 159.599C115.746 159.608 115.884 159.648 116.011 159.716C116.138 159.785 116.251 159.88 116.344 159.998C116.437 160.115 116.508 160.251 116.552 160.399C116.596 160.547 116.614 160.703 116.603 160.858V160.858Z" fill="#263238"/>
<path d="M69.23 197.377C75.3393 214.515 89.9997 237.254 96.5795 237.826C99.7193 238.094 105.269 239.317 109.617 235.646C119.11 227.608 127.596 211.622 129.681 202.253C130.428 198.922 115.962 190.544 113.601 193.134C108.068 199.199 101.334 211.381 100.425 211.238C97.0744 210.711 84.5964 197.68 75.891 188.499C65.3033 177.362 66.7961 190.544 69.23 197.377Z" fill="#F7A9A0"/>
<path d="M131.085 184.873C129.908 177.916 128.651 176.326 130.484 169.878C131.693 165.645 129.754 162.983 126.785 166.234C121.917 171.593 121.722 180.881 122.493 184.096L131.085 184.873Z" fill="#F7A9A0"/>
<path d="M128.78 205.139C128.78 205.139 132.123 195.797 131.539 188.25C131.133 183.025 129.105 171.781 116.302 165.029C113.268 163.422 107.905 163.502 112.002 168.11C114.907 171.379 117.682 172.487 119.028 174.728C119.028 174.728 112.213 175.729 110.875 179.14C109.695 182.121 108.714 185.193 107.938 188.33C108.425 188.619 108.929 188.872 109.447 189.09C109.447 189.09 108.278 192.323 110.258 197.172L128.78 205.139Z" fill="#F7A9A0"/>
<path d="M130.436 183.329C128.635 181.426 124.757 177.452 120.586 175.407C115.938 173.138 106.421 170.155 104.936 173.951C103.849 176.738 107.37 178.229 107.37 178.229C107.37 178.229 103.2 177.908 102.721 180.658C102.275 183.159 105.082 184.141 105.082 184.141C105.082 184.141 102.518 184.418 102.518 186.928C102.518 189.938 107.881 188.848 110.275 191.903C110.826 192.59 130.436 183.329 130.436 183.329Z" fill="#F7A9A0"/>
<path d="M119.231 181.221C115.692 178.909 111.597 177.84 107.492 178.158C107.386 178.158 107.338 178.265 107.435 178.274C111.458 178.757 115.414 179.774 119.215 181.302L119.231 181.221Z" fill="#263238"/>
<path d="M117.016 186.321C115.207 185.223 109.715 183.294 105.114 184.035C105.009 184.035 104.968 184.151 105.066 184.151C109.106 184.398 113.109 185.14 117 186.366C117 186.366 117.041 186.33 117.016 186.321Z" fill="#263238"/>
<path d="M129.681 211.034C129.681 211.034 115.605 234.889 108.344 237.416C101.082 239.944 96.8554 238.988 94.2429 238.363C93.2417 238.023 92.3197 237.447 91.5412 236.675C84.7262 230.539 73.1 209.73 68.5729 198.182C65.1735 189.501 66.0578 181.927 71.8181 184.785C73.7562 185.876 75.5208 187.306 77.043 189.018C87.3143 199.834 99.3623 210.301 99.987 209.998C100.612 209.694 107.508 199.28 107.508 199.28L129.681 211.034Z" fill="#FFC727"/>
<path opacity="0.1" d="M91.5412 236.675C84.7262 230.539 73.1 209.73 68.5729 198.182C65.1735 189.501 66.0578 181.927 71.8181 184.785C74.4549 191.617 85.9188 221.492 91.5412 236.675Z" fill="black"/>
<path d="M125.811 214.346C125 213.793 117.576 209.961 115.937 209.166C114.298 208.372 107.637 205.058 105.885 204.397C105.877 204.39 105.868 204.385 105.858 204.382C105.848 204.379 105.838 204.379 105.828 204.381C105.818 204.384 105.809 204.389 105.801 204.396C105.793 204.403 105.787 204.413 105.783 204.423C105.779 204.433 105.777 204.445 105.778 204.456C105.778 204.467 105.781 204.478 105.787 204.488C105.792 204.497 105.799 204.505 105.808 204.511C105.816 204.517 105.826 204.521 105.836 204.522C107.459 205.531 114.152 208.898 115.799 209.747C117.446 210.595 124.91 214.212 125.77 214.48C125.843 214.489 125.868 214.346 125.811 214.346Z" fill="#263238"/>
<path d="M99.9951 210.007C99.3785 211.052 98.7376 212.034 98.0886 213.017C97.4414 214.014 96.7481 214.974 96.0116 215.892C96.3961 214.714 96.9434 213.609 97.6342 212.615C98.2817 211.605 99.08 210.723 99.9951 210.007V210.007Z" fill="#263238"/>
<path d="M82.5842 246.498C81.4159 247.748 31.4307 253.473 31.1873 253.107C30.5221 252.107 39.8603 200.476 59.8755 182.685C63.4047 179.55 69.2867 180.899 71.9478 182.748C73.2865 183.686 76.9699 191.098 78.0246 197.698C79.0793 204.299 83.3225 245.739 82.5842 246.498Z" fill="#EBEBEB"/>
<path d="M61.1897 181.427C61.1897 181.427 66.6417 212.624 66.8202 213.901C66.9987 215.178 66.2036 249.911 66.2036 249.911L29.0859 254.957C29.0859 254.957 33.2804 237.702 33.4995 236.88C33.7186 236.059 41.6127 207.408 50.0341 194.592C57.8065 182.803 61.1897 181.427 61.1897 181.427Z" fill="#FFC727"/>
<path d="M72.7188 183.24C72.7188 183.24 76.467 210.926 76.5725 212.712C76.678 214.499 79.5095 248.115 79.5095 248.115L84.0934 246.231C84.0934 246.231 81.5296 224.269 81.2376 222.385C80.9455 220.5 78.8036 200.057 77.9923 196.288C76.7348 190.233 72.7188 183.24 72.7188 183.24Z" fill="#FFC727"/>
<path d="M59.4535 182.775C39.5113 191.179 15.4964 212.56 16.0156 220.67C16.5916 229.69 45.223 217.856 45.0769 216.499C44.9471 215.338 51.5675 206.487 61.0436 193.796C70.6739 180.899 64.3863 180.703 59.4535 182.775Z" fill="#FFC727"/>
<path d="M16.0156 220.669C17.0865 227.046 25.0698 232.155 44.079 247.096C46.7076 249.159 64.9541 232.655 62.2525 230.288C58.8449 227.305 45.0282 216.552 43.9329 215.909C34.6515 210.452 15.2854 216.338 16.0156 220.669Z" fill="#AD6359"/>
<path d="M58.5124 227.154C58.5124 227.154 66.7392 233.049 70.1954 237.621C74.8199 243.739 76.5236 251.116 77.0672 254.26C78.2031 260.815 76.84 277.525 72.394 277.927C68.3375 278.302 70.5605 261.289 70.5605 261.289C70.5605 261.289 70.9337 279.035 66.0171 278.499C61.1005 277.963 64.6541 258.377 64.6541 258.377C64.6541 258.377 64.6541 276.614 59.6807 275.186C55.9081 274.096 58.2203 256.162 58.2203 256.162C58.2203 256.162 58.1311 271.836 54.2124 270.908C49.88 269.871 51.0645 253.17 51.0645 253.17C41.4667 248.955 38.4567 242.623 36.8097 237.836C36.4041 236.675 58.5124 227.154 58.5124 227.154Z" fill="#F7A9A0"/>
<path d="M70.7875 255.144C70.893 257.225 71.0228 259.332 70.966 261.395C70.9092 263.459 70.7875 265.566 70.5604 267.647C70.2959 270.362 69.7515 273.035 68.9377 275.614C70.0736 270.916 70.3738 263.45 70.4306 261.369C70.4874 259.288 70.6415 257.207 70.6983 255.117C70.7145 255.09 70.7794 255.099 70.7875 255.144Z" fill="#263238"/>
<path d="M63.9482 254.786C63.9482 257.466 64.1105 260.145 64.0456 262.762C63.9807 265.379 63.6805 267.933 63.4695 270.612C63.4695 270.818 63.3559 270.737 63.3641 270.532C63.502 267.853 63.4452 265.423 63.5507 262.762C63.6561 260.1 63.8671 257.466 63.8833 254.813L63.9482 254.786Z" fill="#263238"/>
<path d="M58.1228 253.313C58.272 257.401 58.0381 261.495 57.4251 265.531C57.4251 265.727 57.2872 265.611 57.3034 265.406C57.6036 261.351 57.8713 258.171 57.993 253.322C58.0011 253.25 58.1228 253.233 58.1228 253.313Z" fill="#263238"/>
<path d="M62.7963 228.182C62.7963 228.182 37.6455 245.008 37.4345 244.883C37.2236 244.758 15.7481 227.342 16.0158 220.671C16.2835 213.999 35.674 211.204 43.9169 215.857C52.1599 220.51 62.7963 228.182 62.7963 228.182Z" fill="#FFC727"/>
<path d="M55.1778 224.448C54.2124 224.948 46.2534 230.611 44.5415 231.888C42.8296 233.165 35.8117 238.282 34.1566 239.756C34.1394 239.768 34.1272 239.787 34.1226 239.809C34.1181 239.83 34.1215 239.853 34.1323 239.872C34.1431 239.891 34.1602 239.905 34.18 239.91C34.1998 239.915 34.2206 239.911 34.2378 239.899C36.1119 238.791 43.2109 233.647 44.9715 232.388C46.732 231.129 54.4963 225.332 55.2752 224.564C55.3401 224.502 55.2509 224.412 55.1778 224.448Z" fill="#263238"/>
<path d="M33.6616 213.677C35.6899 213.561 41.2312 213.677 45.45 216.66C45.4987 216.66 45.45 216.759 45.45 216.732C41.7585 214.785 35.7142 213.802 33.7022 213.758C33.6616 213.758 33.6129 213.677 33.6616 213.677Z" fill="#263238"/>
<path d="M61.2465 229.217L62.7556 228.109V228.252L58.3745 225.216C56.9141 224.207 55.4375 223.215 53.9609 222.251C51.0158 220.268 48.0302 218.366 44.9878 216.606L44.5821 216.374L44.8417 215.963C46.9511 212.614 49.1173 209.318 51.4215 206.139C52.5736 204.537 53.75 202.965 54.9507 201.423C56.1758 199.896 57.3847 198.387 58.7152 196.958C56.3624 200.09 54.0934 203.293 51.9083 206.568C49.7258 209.836 47.5515 213.114 45.507 216.49L45.361 215.847C48.4196 217.633 51.389 219.607 54.2854 221.643C55.7404 222.691 57.1791 223.748 58.6016 224.814C60.0377 225.886 61.425 227.011 62.8205 228.136L62.9178 228.217L62.8205 228.279L61.2465 229.217Z" fill="#263238"/>
<path d="M53.32 203.969C53.6526 203.612 53.9772 203.255 54.3179 202.915C54.6587 202.576 54.9994 202.245 55.3483 201.933C56.0571 201.29 56.8113 200.711 57.6038 200.2C56.9949 200.954 56.3271 201.647 55.6079 202.272C55.2509 202.585 54.8858 202.897 54.5045 203.165C54.1311 203.47 53.7348 203.739 53.32 203.969Z" fill="#263238"/>
<path d="M30.5869 239.033C31.8249 239.855 33.022 240.749 34.1729 241.713C34.7408 242.195 35.3169 242.677 35.8767 243.186L37.5642 244.713H37.3289C38.0348 244.347 38.7488 243.99 39.487 243.677C38.8461 244.186 38.1971 244.669 37.5399 245.133L37.4344 245.205L37.3046 245.115C36.7042 244.678 36.0958 244.222 35.5278 243.758C34.9599 243.293 34.3839 242.784 33.816 242.284C32.6873 241.265 31.6093 240.18 30.5869 239.033Z" fill="#263238"/>
<path d="M70.7147 191.457C67.8102 192.01 63.1451 186.875 61.4089 182.847C61.2953 182.57 62.8774 171.933 63.0315 169.79C63.0315 169.352 75.0796 173.853 75.0796 173.853C74.2383 176.488 73.6934 179.227 73.457 182.007C73.4164 182.32 73.5219 190.912 70.7147 191.457Z" fill="#F7A9A0"/>
<path d="M75.039 173.852C75.039 173.914 74.9336 174.173 74.8119 174.593C74.609 175.299 74.2845 176.451 74.0006 177.773C73.6889 179.159 73.488 180.572 73.4002 181.997C73.4002 182.095 73.4002 182.203 73.4002 182.292V182.345C73.4002 182.515 73.4002 182.747 73.4002 183.033C73.0031 183.064 72.6046 183.064 72.2075 183.033C65.5629 182.435 63.8023 173.298 63.3723 169.806L63.5751 169.86C63.8997 169.94 64.3216 170.065 64.8246 170.226L65.2059 170.351C66.0172 170.61 66.9664 170.94 67.9644 171.244L68.9542 171.592L71.0555 172.343C71.3394 172.459 71.6315 172.566 71.8668 172.655L72.6781 172.968L73.0757 173.111L73.2541 173.182L74.2521 173.548L74.7307 173.727C74.8007 173.746 74.8687 173.773 74.9336 173.807H75.039V173.852Z" fill="#263238"/>
<path d="M62.1553 155.473C60.8086 160.242 63.064 174.05 66.1389 177.14C70.6011 181.605 77.9354 182.061 81.3997 176.158C84.7586 170.433 81.5377 152.499 78.0977 149.695C73.027 145.577 64.135 148.426 62.1553 155.473Z" fill="#F7A9A0"/>
<path d="M74.3819 163.601C74.3819 163.601 74.3251 163.663 74.3332 163.699C74.536 164.592 74.6172 165.708 73.9194 166.191C74.8362 165.887 74.7064 164.44 74.3819 163.601Z" fill="#263238"/>
<path d="M73.4569 162.806C72.0776 162.993 72.532 166.003 73.7976 165.824C75.0633 165.646 74.6089 162.645 73.4569 162.806Z" fill="#263238"/>
<path d="M79.3146 162.868C79.3146 162.868 79.3876 162.868 79.3876 162.939C79.5012 163.877 79.7771 164.931 80.5884 165.1V165.154C79.631 165.225 79.2822 163.779 79.3146 162.868Z" fill="#263238"/>
<path d="M79.9067 161.76C81.2535 161.402 81.8052 164.385 80.5639 164.725C79.3226 165.064 78.7952 162.063 79.9067 161.76Z" fill="#263238"/>
<path d="M72.264 161.582C72.6291 161.457 72.9537 161.27 73.3106 161.109C73.7018 160.994 74.0489 160.744 74.3004 160.394C74.359 160.267 74.3781 160.122 74.3546 159.982C74.3312 159.842 74.2665 159.714 74.1706 159.617C73.9536 159.46 73.7021 159.369 73.4423 159.355C73.1826 159.341 72.9242 159.404 72.694 159.537C72.1929 159.728 71.7738 160.116 71.5176 160.627C71.4649 160.747 71.4453 160.882 71.4611 161.015C71.477 161.147 71.5276 161.272 71.6068 161.373C71.686 161.475 71.7904 161.549 71.9071 161.586C72.0239 161.623 72.1479 161.622 72.264 161.582V161.582Z" fill="#263238"/>
<path d="M80.7748 159.921C80.3853 159.921 80.0284 159.85 79.6389 159.814C79.2343 159.831 78.8356 159.702 78.5031 159.448C78.4126 159.347 78.3555 159.216 78.3407 159.075C78.326 158.934 78.3546 158.792 78.422 158.671C78.5872 158.451 78.803 158.283 79.047 158.186C79.291 158.088 79.5542 158.065 79.8093 158.117C80.3401 158.131 80.8468 158.364 81.2291 158.769C81.3106 158.867 81.3646 158.989 81.3845 159.12C81.4045 159.251 81.3895 159.386 81.3414 159.507C81.2934 159.629 81.2143 159.733 81.1137 159.807C81.0132 159.88 80.8955 159.92 80.7748 159.921V159.921Z" fill="#263238"/>
<path d="M75.3631 169.45C75.6329 169.78 75.9618 170.044 76.329 170.227C76.6962 170.41 77.0938 170.507 77.4969 170.513C77.8499 170.526 78.2027 170.481 78.5435 170.379L78.7382 170.316L78.9248 170.254C78.9667 170.233 79.0021 170.199 79.0266 170.156C79.0511 170.113 79.0637 170.063 79.0627 170.013V169.923V169.843C78.9735 169.12 78.7463 168.057 78.7463 168.057C79.0059 168.146 80.3121 168.53 80.2391 168.155C79.6792 164.931 78.8257 161.777 77.6916 158.742C77.6838 158.721 77.6693 158.704 77.6509 158.695C77.6325 158.685 77.6116 158.684 77.5922 158.691C77.5728 158.697 77.5565 158.712 77.5463 158.731C77.5362 158.751 77.533 158.773 77.5374 158.795C78.0323 161.778 79.0059 164.645 79.5495 167.637C79.0858 167.488 78.6046 167.416 78.1216 167.423C78.0323 167.467 78.5921 169.504 78.6084 169.834C78.0824 169.99 77.5333 170.027 76.9939 169.945C76.4545 169.862 75.9357 169.66 75.4686 169.352C75.3631 169.307 75.2982 169.379 75.3631 169.45Z" fill="#263238"/>
<path d="M78.1056 170.083C77.8268 170.66 77.4156 171.147 76.913 171.494C76.6348 171.678 76.3116 171.763 75.9881 171.736C75.2822 171.655 75.1768 170.976 75.1768 170.369C75.2008 170.047 75.258 169.73 75.3471 169.422C76.1787 169.962 77.1456 170.194 78.1056 170.083Z" fill="#263238"/>
<path d="M76.913 171.478C76.6348 171.662 76.3116 171.746 75.9881 171.719C75.2822 171.638 75.1768 170.96 75.1768 170.352C75.539 170.297 75.9076 170.378 76.2228 170.582C76.5379 170.787 76.7811 171.102 76.913 171.478V171.478Z" fill="#FF9ABB"/>
<path d="M82.7868 167.753C82.7868 167.753 82.4623 174.595 79.3144 174.818C77.4321 174.952 76.1908 172.96 76.1908 172.96H75.1523C75.1523 172.96 73.5865 176.943 70.2844 175.309C66.6741 173.523 65.2056 162.85 65.2056 162.85C65.2056 162.85 64.3132 167.682 62.4228 167.86C62.6342 170.244 63.025 172.604 63.5911 174.916C64.3294 178.265 68.7673 183.579 75.7608 183.267C78.6816 183.133 82.584 178.488 82.8842 175.059C83.0731 172.626 83.0404 170.179 82.7868 167.753V167.753Z" fill="#263238"/>
<path d="M63.7696 165.833C65.7573 165.833 65.952 160.787 65.952 160.787C65.952 160.787 70.9416 162.163 70.8199 154.848C70.8199 154.848 76.7019 156.786 80.2474 154.518C83.2736 152.58 84.7583 146.765 82.4055 143.416C81.0749 141.532 77.4565 139.844 72.2478 145.747C72.2478 145.747 65.1488 140.701 62.8041 150.025C62.8041 150.025 59.2181 150.624 58.8936 154.491C58.3906 160.591 62.0577 165.869 63.7696 165.833Z" fill="#263238"/>
<path d="M70.8119 154.339C70.8119 154.325 70.8068 154.311 70.7977 154.301C70.7885 154.291 70.7762 154.285 70.7633 154.285C70.7503 154.285 70.738 154.291 70.7288 154.301C70.7197 154.311 70.7146 154.325 70.7146 154.339C71.0716 156.125 71.4366 158.036 70.1953 159.519C69.6372 160.23 68.881 160.718 68.0446 160.907C67.2081 161.096 66.3384 160.976 65.5708 160.564C65.4816 160.519 65.4005 160.671 65.4897 160.724C66.2432 161.125 67.0877 161.271 67.9165 161.144C68.7454 161.017 69.5214 160.622 70.1467 160.01C71.68 158.536 71.5178 156.295 70.8119 154.339Z" fill="#263238"/>
<path d="M63.8832 164.699C61.1085 163.243 58.9585 160.76 58.6258 157.25C58.4008 155.576 58.7508 153.869 59.6075 152.463C60.4188 151.213 61.7413 150.677 62.8528 149.936C62.8528 149.936 62.8528 149.855 62.8528 149.873C55.6483 152.133 57.4332 162.796 63.729 165.056C63.7691 165.064 63.8104 165.057 63.8465 165.036C63.8826 165.015 63.9116 164.982 63.929 164.942C63.9465 164.901 63.9514 164.856 63.9432 164.812C63.9349 164.768 63.9138 164.728 63.8832 164.699V164.699Z" fill="#263238"/>
<path d="M83.3306 143.451C80.1664 138.816 74.2601 142.21 72.0614 146.131C74.0735 143.184 78.3491 140.218 81.6106 142.38C85.5536 144.997 84.1662 152.767 79.7283 153.66C79.5985 153.66 79.631 153.937 79.7283 153.919C83.8823 153.436 85.6834 146.89 83.3306 143.451Z" fill="#263238"/>
<path d="M64.9137 166.717C64.9137 166.717 62.0092 162.305 60.1918 163.457C58.3745 164.609 60.5975 171.022 62.7718 171.87C63.0437 172 63.3367 172.068 63.6331 172.07C63.9295 172.071 64.2231 172.007 64.4962 171.88C64.7692 171.753 65.0161 171.566 65.2217 171.331C65.4273 171.096 65.5875 170.818 65.6925 170.513L64.9137 166.717Z" fill="#F7A9A0"/>
<path d="M60.8651 165.28V165.342C62.3904 165.985 63.2098 167.521 63.794 169.111C63.7037 168.946 63.582 168.804 63.4371 168.696C63.2921 168.587 63.1275 168.515 62.9547 168.483C62.7818 168.452 62.6048 168.462 62.4359 168.514C62.2671 168.565 62.1103 168.656 61.9766 168.781C61.9766 168.781 61.9766 168.879 61.9766 168.87C62.2408 168.769 62.5272 168.762 62.7952 168.85C63.0632 168.938 63.2991 169.117 63.4694 169.361C63.7596 169.764 64.0073 170.201 64.2077 170.665C64.2808 170.817 64.5241 170.737 64.4674 170.558C64.4917 168.397 62.9502 165.449 60.8651 165.28Z" fill="#263238"/>
<path d="M73.4165 183.14L70.1712 191.009L61.5713 180.452L58.8777 183.587C58.8777 183.587 67.1044 200.101 67.1856 199.377L70.4308 192.616L74.5766 197.618L74.6902 185.543L73.4165 183.14Z" fill="#EBEBEB"/>
<path d="M74.9578 191.654C74.9173 189.662 74.9578 187.653 74.7956 185.661C74.7956 185.59 74.6982 185.554 74.6739 185.661C74.2358 187.563 74.4386 195.191 74.3575 197.013C74.1871 196.798 70.5037 192.601 70.4631 192.663C69.7735 193.726 67.3801 198.647 67.2179 199.102C65.9198 196.477 60.9221 186.929 59.3562 184.438C59.347 184.425 59.334 184.416 59.3194 184.412C59.3049 184.409 59.2897 184.411 59.2764 184.418C59.2631 184.426 59.2525 184.438 59.2463 184.453C59.2402 184.467 59.2389 184.484 59.2426 184.5C60.3785 187.26 66.9907 200.112 67.0962 200.076C68.3513 197.764 69.4915 195.379 70.5118 192.931C71.1284 193.824 74.8199 198.558 74.8442 198.29C74.9902 196.082 75.0281 193.866 74.9578 191.654V191.654Z" fill="#263238"/>
<rect x="124.529" y="93.7764" width="127.377" height="16.9691" rx="8.48455" fill="#0076F8"/>
</svg>
